<?xml version="1.0" encoding="UTF-8"?>
<svg id="Layer_2" data-name="Layer 2" xmlns="http://www.w3.org/2000/svg" xmlns:xlink="http://www.w3.org/1999/xlink" viewBox="0 0 553.02 507.73">
  <defs>
    <style>
      .cls-1 {
        fill: url(#linear-gradient);
      }
    </style>
    <linearGradient id="linear-gradient" x1="0" y1="253.86" x2="553.02" y2="253.86" gradientUnits="userSpaceOnUse">
      <stop offset="0" stop-color="#e21011"/>
      <stop offset="1" stop-color="#7b151a"/>
    </linearGradient>
  </defs>
  <g id="Layer_1-2" data-name="Layer 1">
    <path class="cls-1" d="M0,1.6c14.22,2.14,28.34,5.04,42.62,6.88,80.06,10.32,165.43,12.31,245.87,7.11,54.37-3.52,108.68-11.37,163.02-14.98,34.7-2.3,64.01.6,85.9,31.08,40.78,56.76-7.38,124.67-41.42,171.4-16.47,22.6-33.56,45.22-50.57,67.43-2.21,2.89-11.54,15.94-13.97,16.14l-114.41-71.59c-11.25-10.63-.15-20.11,7.06-28.86l81.9-73.11-11.67-10.33c-3.97-2.82-8.96-2.49-13.59-1.92l-35.24,18.43c-7.26-2.18-12.71-14.36-20.75-12.41-5.33,2.93-12.47,12.04-8.64,18.14,1.16,1.84,8.34,4.57,6.89,6.59l-30.49,14.98c-6.94-1.77-12.92-14.12-20.79-11.77-2.11.63-9.48,10.13-9.71,12.4-.71,6.93,7.63,8.22,6.99,10.89-2.41,2.17-8.45,4.34-11.59,4.42-9.97.28-26.87-18.84-35.52-25.3-6.81-5.09-15.17-10.65-22.92-14.08-9.1-4.01-34.94-13.48-40.84-1.9-3.51,6.8,1.68,14.65,5.07,20.68,8.56,15.23,23.37,28.51,37.67,38.33,13.77,9.45,32.66,13.71,26.12,35.37-4.25-.97-5.96-6.54-11.23-4.79-3.83.95-10.24,9.7-10.57,13.55-.66,7.77,15.98,11.53,16.83,16.79l-6.03,32.45c-8.6-2.4-8.64-9.05-17.02-.53-17.33,17.63,10.38,18.86,11.79,26.14-1.99,9.75-3.48,19.62-5.22,29.42-.77,4.32-3.12,7.77-2.49,12.38,1,7.41,11.01,12.5,15.99,17.08l3.01.06c10.94-20.16,19.68-41.61,29.78-62.24,5.36-10.95,19.35-43.05,27.25-49.75,10.13-8.59,18.52,1.93,26.4,8.45,23.38,19.35,45.88,40.09,68.73,60.03,32.14,28.05,69.73,72.43,117.79,55.95-16.51,24.07-47.46,18.07-70.02,6.51-8.7-4.45-14.59-10.57-24.93-12.07-7.96-1.16-21.63-1.49-23.77,8.33l-38.38,134.12c-28.89-.47-58.78,2.38-87.11-4.2-43.05-10-75.29-38.84-93.28-78.72C113.09,301.22,80.39,174.87,41.48,50.62,35.04,33.68,17.98,23.26,0,24.6V1.6Z"/>
  </g>
</svg>