<?xml version="1.0" encoding="UTF-8"?>
<svg id="Layer_2" data-name="Layer 2" xmlns="http://www.w3.org/2000/svg" xmlns:xlink="http://www.w3.org/1999/xlink" viewBox="0 0 866.02 787.43">
  <defs>
    <style>
      .cls-1 {
        fill: url(#linear-gradient);
      }
    </style>
    <linearGradient id="linear-gradient" x1="0" y1="393.72" x2="866.02" y2="393.72" gradientUnits="userSpaceOnUse">
      <stop offset="0" stop-color="#e21011"/>
      <stop offset="1" stop-color="#7b151a"/>
    </linearGradient>
  </defs>
  <g id="Layer_1-2" data-name="Layer 1">
    <path class="cls-1" d="M153.02,1.6c14.22,2.14,28.34,5.04,42.62,6.88,80.06,10.32,165.43,12.31,245.87,7.11,54.37-3.52,108.68-11.37,163.02-14.98,34.7-2.3,64.01.6,85.9,31.08,40.78,56.76-7.38,124.67-41.42,171.4-16.47,22.6-33.56,45.22-50.57,67.43-2.21,2.89-11.54,15.94-13.97,16.14l-114.41-71.59c-11.25-10.63-.15-20.11,7.06-28.86l81.9-73.11-11.67-10.33c-3.97-2.82-8.96-2.49-13.59-1.92l-35.24,18.43c-7.26-2.18-12.71-14.36-20.75-12.41-5.33,2.93-12.47,12.04-8.64,18.14,1.16,1.84,8.34,4.57,6.89,6.59l-30.49,14.98c-6.94-1.77-12.92-14.12-20.79-11.77-2.11.63-9.48,10.13-9.71,12.4-.71,6.93,7.63,8.22,6.99,10.89-2.41,2.17-8.45,4.34-11.59,4.42-9.97.28-26.87-18.84-35.52-25.3-6.81-5.09-15.17-10.65-22.92-14.08-9.1-4.01-34.94-13.48-40.84-1.9-3.51,6.8,1.68,14.65,5.07,20.68,8.56,15.23,23.37,28.51,37.67,38.33,13.77,9.45,32.66,13.71,26.12,35.37-4.25-.97-5.96-6.54-11.23-4.79-3.83.95-10.24,9.7-10.57,13.55-.66,7.77,15.98,11.53,16.83,16.79l-6.03,32.45c-8.6-2.4-8.64-9.05-17.02-.53-17.33,17.63,10.38,18.86,11.79,26.14-1.99,9.75-3.48,19.62-5.22,29.42-.77,4.32-3.12,7.77-2.49,12.38,1,7.41,11.01,12.5,15.99,17.08l3.01.06c10.94-20.16,19.68-41.61,29.78-62.24,5.36-10.95,19.35-43.05,27.25-49.75,10.13-8.59,18.52,1.93,26.4,8.45,23.38,19.35,45.88,40.09,68.73,60.03,32.14,28.05,69.73,72.43,117.79,55.95-16.51,24.07-47.46,18.07-70.02,6.51-8.7-4.45-14.59-10.57-24.93-12.07-7.96-1.16-21.63-1.49-23.77,8.33l-38.38,134.12c-28.89-.47-58.78,2.38-87.11-4.2-43.05-10-75.29-38.84-93.28-78.72-41.43-123.36-74.12-249.72-113.03-373.97-6.44-16.94-23.51-27.36-41.48-26.02V1.6ZM355.96,670.16c-10.01-29.73-16.95-60.52-26.68-90.32-2-6.12-3.71-12.48-6.85-18.15-9.84-17.79-28.53-21.57-47.48-19.64l-.89,7.52c5.41-.13,9.81,2.64,11.73,7.77l32.04,105.96,11.17,13.83,13.01,7.48c-26.73,4.48-58.47,17.32-73.19,41.32-19.18,31.26,2.43,62.22,38.18,48.18,29.88-11.74,51.13-57.53,60.73-86.27l42.25-144.72-7.02-1.04-38.96,134.55c-2.08,1.44-7.33-4.31-8.03-6.44ZM328.54,735.63c-5.88,5.36-30.67,22.84-31.45,5.4-.6-13.35,16.55-29.14,26.61-36.24,4.59-3.25,34.13-20.51,37.32-18.17-7.51,16.97-18.67,36.43-32.47,49.02ZM866.02,684.6l-.1-6.9c-4.58-.79-8.72-1.5-9.84-6.65-1.39-26.22,1.63-53.95-.02-79.99-2.9-45.74-41.17-54.1-80.23-47.14-16.71,2.98-34.29,9.82-47.38,20.69l13.06,18.99c10.13-12.75,21.61-25.78,37.24-31.76,28.08-10.75,38.85,4.08,40.26,30.76-27.03-1.19-58.2,2.09-79.92,19.59-39.42,31.77-23.08,82.05,28.25,83.04,19.31.37,38.44-5.56,54.15-16.64,2.61,7.53,11.02,14.89,19.02,16.02s17.56-.8,25.5,0ZM819.58,662.6c-28.19,15.96-69.24,9.43-65.55-30.48,2.77-29.93,38.18-45.26,64.99-43.52l.56,74ZM548.25,669.87c-6.31-35.09,15.19-98.62-21.57-119.43-25.94-14.69-66.87-8.44-92.34,5-2.11,1.11-13.32,7.93-13.9,9.16l14.07,18.99c18.31-30.7,76.3-60.51,76.5-.98-29.84-1.56-66.63,3.62-87.52,26.98-17.31,19.36-19.8,47.96,2.04,64.99,22.89,17.84,65.95,11.06,87.98-5.96,8.56,19.28,27.82,16.34,45.5,15.99l-.05-6.96c-5.47-.05-9.68-2-10.72-7.78ZM512.02,663.6c-21.65,10.08-56.65,12.5-64.52-15.98-10.26-37.12,31.96-62.36,64.52-59.02v75ZM138.1,637.02c18.1,64.42,117.47,64.18,135.64.8,14.6-50.95-15.35-97.26-69.91-95.93-52.11,1.27-79.36,46.59-65.72,95.14ZM247,635.12c1.19,17.69-4.28,42.02-26.48,41.56-31.66-.65-54.13-60.35-55.55-86.54-.87-16.01,4.09-36.77,22.8-39.28,33.28-4.46,57.47,58.13,59.23,84.25ZM627.02,684.6l-.04-6.96c-4.58.7-10.96-3.99-10.96-8.54v-87.5c26.5,4.77,46.25,26.95,75.27,16.77,20.45-7.17,29.22-31.7,11.2-46.75-14.1-11.78-38.33-11.51-55.01-6.06-12.92,4.23-22.86,12.87-31.46,23.03-1.07-25.82-25.17-28.7-46.07-26.56l-.89,7.52c6.79.13,10.18,2.73,10.95,9.55,3.48,30.63-2.52,67.68-.04,99.04.97,12.27,8.45,24.42,21.54,26.46,7.51,1.17,17.67-.86,25.5,0ZM673.01,563.11c8.53,10.89,1.25,24.23-12.33,23.41l-41.64-11.42c7.4-7.95,18.67-16.72,29.74-18.24,8-1.1,18.9-.57,24.24,6.25ZM0,542.18l.12,7.33,7.88,2.62,2.8,4.2c12.01,31.97,17.93,68.56,29.76,100.24,9.37,25.09,26.67,30.41,52.32,27.9l41.14-142.86-5.9.1-39.66,134.87c-4.27-.9-6.35-4.29-7.92-8-12.95-30.68-17.24-71.31-30.5-102.5-1.89-4.46-4.96-9.71-8.37-13.13-10.64-10.64-27.4-12.18-41.66-10.78ZM752.15,751.23c-8.8,22.01,10.98,42.44,33.4,34.4,5.82-2.08,12.57-7.59,13.42-13.98l-4.48-1.92c-10.52,18.65-38.16,14.69-37.48-8.13h44c.84-28-38.35-36.66-48.87-10.37ZM794.02,756.6h-37c4.42-20.07,33.43-20.44,37,0ZM597.02,738.1l-5.89-1.39-.62,7.9c-2.11-.15-4.07-3.57-6.16-4.84-23.42-14.28-48.74,11.18-35.77,34.77,8.47,15.4,29.62,17.31,40.93,4.09l1.7,6.77,5.8.21v-47.5ZM583.49,745.63c21.52,17.18-5.75,49.58-26.13,30.62-17.91-16.66,5.85-46.81,26.13-30.62ZM384.02,719.6v6h15v60h7v-60l13.36-.14,1.64-5.86h-37ZM657.36,736.77l-5.33-.16c-.2,1.11.13,2,.46,3.03,3.19,10.17,13.53,29.97,18.68,40.32.83,1.67,2.09,5.66,4.35,5.66l22.51-49-6.84.15-17.15,35.83-16.67-35.84ZM863.02,720.1c0-.25.81-.6.77-1l-6.77-1.5v67.5l6,1.5v-66.5ZM472.02,785.6h6v-25.5c0-.75,1.33-7.12,1.68-8.32,2.29-7.82,6.17-10.58,14.32-10.68l1.99-4.49c-7.86-3.45-11.71,2.02-17.48,6l-.5-6.01h-6.01v49.01Z"/>
  </g>
</svg>