<svg width="370" height="205" viewBox="0 0 370 205" fill="none" xmlns="http://www.w3.org/2000/svg">
<path d="M336 20C338.19 26.5688 336.845 32.5428 335 39C335.494 39.3145 335.987 39.6291 336.496 39.9531C337.137 40.3811 337.777 40.8091 338.438 41.25C339.076 41.6677 339.714 42.0853 340.371 42.5156C342.327 44.2977 342.392 45.4908 343 48C343.99 48.4744 344.98 48.9487 346 49.4375C346.99 49.9531 347.98 50.4688 349 51C349.369 52.6592 349.696 54.3277 350 56C350.999 57.2033 352.046 58.3673 353.125 59.5C354.766 61.2852 354.766 61.2852 356 63C355.875 65.9375 355.875 65.9375 355 68C350.878 67.5243 347.651 66.9557 344 65C343.01 65 342.02 65 341 65C340.917 64.3813 340.835 63.7625 340.75 63.125C340.188 60.8412 340.188 60.8412 338.062 59.75C336.053 58.8861 336.053 58.8861 334 59C332.627 57.7077 331.29 56.3756 330 55C325.732 64.6363 325.732 64.6363 326.004 74.5469C327.624 76.3438 327.624 76.3438 329.512 77.6758C330.003 78.1128 330.494 78.5498 331 79C331 80.32 331 81.64 331 83C326.806 82.329 323.597 80.1442 320 78C319.546 78.825 319.093 79.65 318.625 80.5C318.089 81.325 317.553 82.15 317 83C316.34 83 315.68 83 315 83C315 80.69 315 78.38 315 76C311.37 76 307.74 76 304 76C304 74.68 304 73.36 304 72C307.63 71.01 311.26 70.02 315 69C315.205 68.0242 315.41 67.0484 315.621 66.043C315.891 64.7707 316.16 63.4984 316.438 62.1875C316.704 60.9229 316.971 59.6584 317.246 58.3555C318 55 318 55 319 52C317.084 51.9458 315.167 51.9071 313.25 51.875C312.183 51.8518 311.115 51.8286 310.016 51.8047C307.075 51.9951 305.476 52.4733 303 54C302.34 53.34 301.68 52.68 301 52C298.667 51.9583 296.333 51.9583 294 52C293.34 51.67 292.68 51.34 292 51C291.875 48.625 291.875 48.625 292 46C294.835 43.1651 297.961 42.839 301.785 41.8789C302.516 41.5889 303.247 41.2988 304 41C304.33 40.01 304.66 39.02 305 38C306.093 38.2269 307.186 38.4537 308.312 38.6875C309.529 38.7906 310.746 38.8937 312 39C313.021 38.0215 314.021 37.0202 315 36C318.562 35.875 318.562 35.875 322 36C324.242 35.1575 324.242 35.1575 324.93 32.6367C325.557 30.6792 326.182 28.7208 326.805 26.7617C328.93 21.8509 330.559 20 336 20Z" fill="#E21011"/>
<path d="M21 85C23.8171 89.6951 24.9427 93.6133 24 99C22.5261 103.749 20.8203 108.371 19 113C15.0871 111.451 12.9818 109.011 10.3125 105.812C9.52488 104.891 8.73727 103.969 7.92578 103.02C5.7095 99.5445 5.18345 97.0939 5 93C6.36428 90.0765 7.72751 88.2725 10 86C12.0938 85.5859 12.0938 85.5859 14.5 85.375C15.2941 85.3002 16.0881 85.2255 16.9062 85.1484C18.2683 85.0519 19.6345 85 21 85ZM10 92C10.33 94.31 10.66 96.62 11 99C13.97 99.495 13.97 99.495 17 100C18.7365 98.3251 18.7365 98.3251 20 96C19.6639 93.2431 19.6639 93.2431 18 91C14.2242 89.5478 13.4524 89.6984 10 92Z" fill="#E21011"/>
<path d="M142 148C142.99 148.33 143.98 148.66 145 149C146.188 151.562 146.188 151.562 147 154C147.66 154 148.32 154 149 154C150.714 155.959 152.384 157.959 154 160C153.01 160.495 153.01 160.495 152 161C150 159.625 150 159.625 148 158C148 157.34 148 156.68 148 156C146.02 156.33 144.04 156.66 142 157C142 155 142 155 144 153C143.34 152.34 142.68 151.68 142 151C142 150.01 142 149.02 142 148Z" fill="#E21011"/>
<path d="M17 114C18.32 114 19.64 114 21 114C20.67 115.65 20.34 117.3 20 119C18.68 118.34 17.36 117.68 16 117C16.33 116.01 16.66 115.02 17 114Z" fill="#E21011"/>
<path d="M155 161C157.938 161.812 157.938 161.812 161 163C161.33 163.99 161.66 164.98 162 166C159.062 165.188 159.062 165.188 156 164C155.67 163.01 155.34 162.02 155 161Z" fill="#E21011"/>
<path d="M65 61C67.4375 61.75 67.4375 61.75 70 63C70.8125 65.125 70.8125 65.125 71 67C68.9617 65.726 66.9615 64.3894 65 63C65 62.34 65 61.68 65 61Z" fill="#E21011"/>
<path d="M244 156C243.67 156.99 243.34 157.98 243 159C240.438 160.188 240.438 160.188 238 161C238 160.01 238 159.02 238 158C241.75 156 241.75 156 244 156Z" fill="#E21011"/>
<path d="M252 152C251.25 153.938 251.25 153.938 250 156C247.875 156.75 247.875 156.75 246 157C248.258 152 248.258 152 252 152Z" fill="#E21011"/>
<path d="M260 147C259.25 148.938 259.25 148.938 258 151C255.875 151.75 255.875 151.75 254 152C256.258 147 256.258 147 260 147Z" fill="#E21011"/>
<path d="M274 135C274.66 135.66 275.32 136.32 276 137C274.71 138.376 273.373 139.708 272 141C271.34 141 270.68 141 270 141C270 140.01 270 139.02 270 138C272 136.312 272 136.312 274 135Z" fill="#E21011"/>
<path d="M190 134C190.33 134.99 190.66 135.98 191 137C188.525 138.485 188.525 138.485 186 140C186 139.01 186 138.02 186 137C188 135.312 188 135.312 190 134Z" fill="#E21011"/>
<path d="M134 131C134.66 131 135.32 131 136 131C137.461 133.647 138 134.894 138 138C137.34 138 136.68 138 136 138C134.539 135.353 134 134.106 134 131Z" fill="#E21011"/>
<path d="M95 130C97 131.812 97 131.812 99 134C99 134.99 99 135.98 99 137C98.34 137 97.68 137 97 137C95 134 95 134 95 130Z" fill="#E21011"/>
<path d="M281 129C281.66 129 282.32 129 283 129C281.951 131.622 281.351 132.794 278.875 134.25C278.256 134.498 277.637 134.745 277 135C278.152 132.532 279.048 130.952 281 129Z" fill="#E21011"/>
<path d="M204 122C204.66 122 205.32 122 206 122C204.951 124.622 204.351 125.794 201.875 127.25C201.256 127.498 200.637 127.745 200 128C201.152 125.532 202.048 123.952 204 122Z" fill="#E21011"/>
<path d="M91 121C91.66 121 92.32 121 93 121C94.4606 123.647 95 124.894 95 128C94.34 128 93.68 128 93 128C91.5394 125.353 91 124.106 91 121Z" fill="#E21011"/>
<path d="M88 112C88.66 112 89.32 112 90 112C90.66 114.31 91.32 116.62 92 119C91.01 118.67 90.02 118.34 89 118C88.67 116.02 88.34 114.04 88 112Z" fill="#E21011"/>
<path d="M83 94C83.66 94 84.32 94 85 94C85.66 95.98 86.32 97.96 87 100C86.01 100 85.02 100 84 100C83.67 98.02 83.34 96.04 83 94Z" fill="#E21011"/>
<path d="M80 85C80.66 85 81.32 85 82 85C82.66 87.31 83.32 89.62 84 92C83.01 91.67 82.02 91.34 81 91C80.67 89.02 80.34 87.04 80 85Z" fill="#E21011"/>
<path d="M76 76C76.99 76.33 77.98 76.66 79 77C80.1875 79.5625 80.1875 79.5625 81 82C80.01 82 79.02 82 78 82C77.34 80.02 76.68 78.04 76 76Z" fill="#E21011"/>
<path d="M142 66C142.66 66 143.32 66 144 66C143.34 68.31 142.68 70.62 142 73C141.34 73 140.68 73 140 73C140.875 67.125 140.875 67.125 142 66Z" fill="#E21011"/>
<path d="M168 38C167.25 39.9375 167.25 39.9375 166 42C163.875 42.75 163.875 42.75 162 43C163.127 39.6194 164.212 38 168 38Z" fill="#E21011"/>
<path d="M177 34C177 34.66 177 35.32 177 36C174.353 37.4606 173.106 38 170 38C170 37.34 170 36.68 170 36C172.647 34.5394 173.894 34 177 34Z" fill="#E21011"/>
<path d="M208 168C208 168.66 208 169.32 208 170C205.69 170.33 203.38 170.66 201 171C201 170.34 201 169.68 201 169C203.491 168.313 205.379 168 208 168Z" fill="#E21011"/>
<path d="M164 166C166.31 166.33 168.62 166.66 171 167C171 167.66 171 168.32 171 169C168.69 168.67 166.38 168.34 164 168C164 167.34 164 166.68 164 166Z" fill="#E21011"/>
<path d="M235 160C234.67 160.99 234.34 161.98 234 163C232.35 163.33 230.7 163.66 229 164C229.33 163.01 229.66 162.02 230 161C233 160 233 160 235 160Z" fill="#E21011"/>
<path d="M156 151C156.66 151.66 157.32 152.32 158 153C155.353 154.461 154.106 155 151 155C151 154.34 151 153.68 151 153C152.65 152.34 154.3 151.68 156 151Z" fill="#E21011"/>
<path d="M114 150C117.465 151.485 117.465 151.485 121 153C120.34 153.66 119.68 154.32 119 155C116.5 153.625 116.5 153.625 114 152C114 151.34 114 150.68 114 150Z" fill="#E21011"/>
<path d="M165 148C165.66 148.66 166.32 149.32 167 150C164.353 151.461 163.106 152 160 152C160 151.34 160 150.68 160 150C161.65 149.34 163.3 148.68 165 148Z" fill="#E21011"/>
<path d="M106 145C108.438 145.812 108.438 145.812 111 147C111.33 147.99 111.66 148.98 112 150C109.562 149.188 109.562 149.188 107 148C106.67 147.01 106.34 146.02 106 145Z" fill="#E21011"/>
<path d="M175 144C174.67 144.99 174.34 145.98 174 147C171.438 148.188 171.438 148.188 169 149C171.258 144 171.258 144 175 144Z" fill="#E21011"/>
<path d="M268 141C266.63 144.161 266.011 144.993 263 147C263 144 263 144 264.375 142.312C266 141 266 141 268 141Z" fill="#E21011"/>
<path d="M137 140C137.99 140.33 138.98 140.66 140 141C140.33 142.98 140.66 144.96 141 147C138.5 144.826 137.564 143.27 137 140Z" fill="#E21011"/>
<path d="M100 138C101.707 139.281 103.374 140.618 105 142C105 142.66 105 143.32 105 144C101.839 142.63 101.007 142.011 99 139C99.33 138.67 99.66 138.34 100 138Z" fill="#E21011"/>
<path d="M197 128C197.66 128.66 198.32 129.32 199 130C197.71 131.376 196.373 132.708 195 134C194.34 134 193.68 134 193 134C194.152 131.532 195.048 129.952 197 128Z" fill="#E21011"/>
<path d="M294 115C294.66 115.66 295.32 116.32 296 117C294.625 119 294.625 119 293 121C292.34 121 291.68 121 291 121C292.875 116.125 292.875 116.125 294 115Z" fill="#E21011"/>
<path d="M211 115C211.66 115.66 212.32 116.32 213 117C211.71 118.376 210.373 119.708 209 121C208.34 121 207.68 121 207 121C208.152 118.532 209.048 116.952 211 115Z" fill="#E21011"/>
<path d="M300 108C300.66 108 301.32 108 302 108C301.188 110.438 301.188 110.438 300 113C299.01 113.33 298.02 113.66 297 114C298.875 109.125 298.875 109.125 300 108Z" fill="#E21011"/>
<path d="M216 108C216.66 108 217.32 108 218 108C217.34 109.98 216.68 111.96 216 114C215.01 113.67 214.02 113.34 213 113C214.375 110.5 214.375 110.5 216 108Z" fill="#E21011"/>
<path d="M86 103C86.66 103 87.32 103 88 103C88.33 105.31 88.66 107.62 89 110C88.34 110 87.68 110 87 110C86.67 107.69 86.34 105.38 86 103Z" fill="#E21011"/>
<path d="M132 102C132.99 102.495 132.99 102.495 134 103C134 105.31 134 107.62 134 110C133.34 110 132.68 110 132 110C132 107.36 132 104.72 132 102Z" fill="#E21011"/>
<path d="M305 101C305.99 101.33 306.98 101.66 308 102C306.625 104.5 306.625 104.5 305 107C304.34 107 303.68 107 303 107C303.506 104.831 304 103 305 101Z" fill="#E21011"/>
<path d="M315 84C315.66 84 316.32 84 317 84C316.34 86.31 315.68 88.62 315 91C314.34 91 313.68 91 313 91C313.875 86.25 313.875 86.25 315 84Z" fill="#E21011"/>
<path d="M138 75C138.66 75 139.32 75 140 75C139.67 76.98 139.34 78.96 139 81C138.01 81 137.02 81 136 81C136.66 79.02 137.32 77.04 138 75Z" fill="#E21011"/>
<path d="M28 68C28.66 68 29.32 68 30 68C29.1875 70.4375 29.1875 70.4375 28 73C27.01 73.33 26.02 73.66 25 74C26.875 69.125 26.875 69.125 28 68Z" fill="#E21011"/>
<path d="M34 62C34.99 62 35.98 62 37 62C37 62.66 37 63.32 37 64C33.5385 67 33.5385 67 31 67C32.875 63.125 32.875 63.125 34 62Z" fill="#E21011"/>
<path d="M57 57C59.31 57.33 61.62 57.66 64 58C64 58.66 64 59.32 64 60C61.69 59.67 59.38 59.34 57 59C57 58.34 57 57.68 57 57Z" fill="#E21011"/>
<path d="M152 50C152.66 50 153.32 50 154 50C153.75 51.875 153.75 51.875 153 54C150.938 55.25 150.938 55.25 149 56C150 54 151 52 152 50Z" fill="#E21011"/>
<path d="M222 47C222.99 47 223.98 47 225 47C225.66 47.99 226.32 48.98 227 50C226.67 50.99 226.34 51.98 226 53C224.624 51.7103 223.292 50.3731 222 49C222 48.34 222 47.68 222 47Z" fill="#E21011"/>
<path d="M159 43C159.66 43.66 160.32 44.32 161 45C159.71 46.3756 158.373 47.7077 157 49C156.34 49 155.68 49 155 49C156.152 46.532 157.048 44.9522 159 43Z" fill="#E21011"/>
<path d="M215 40C217.438 40.8125 217.438 40.8125 220 42C220.33 42.99 220.66 43.98 221 45C218.562 44.1875 218.562 44.1875 216 43C215.67 42.01 215.34 41.02 215 40Z" fill="#E21011"/>
<path d="M198 33C200.31 33.33 202.62 33.66 205 34C205 34.66 205 35.32 205 36C202.69 35.67 200.38 35.34 198 35C198 34.34 198 33.68 198 33Z" fill="#E21011"/>
<path d="M180 32C181.98 32 183.96 32 186 32C186 32.66 186 33.32 186 34C183.69 34.33 181.38 34.66 179 35C179.33 34.01 179.66 33.02 180 32Z" fill="#E21011"/>
<path d="M182 170C184.31 170 186.62 170 189 170C189 170.66 189 171.32 189 172C186.69 172 184.38 172 182 172C182 171.34 182 170.68 182 170Z" fill="#E21011"/>
<path d="M173 168C175.31 168.33 177.62 168.66 180 169C180 169.66 180 170.32 180 171C178.02 171 176.04 171 174 171C173.67 170.01 173.34 169.02 173 168Z" fill="#E21011"/>
<path d="M217 166C217 166.66 217 167.32 217 168C214.69 168.33 212.38 168.66 210 169C211.596 165.809 213.641 166 217 166Z" fill="#E21011"/>
<path d="M225 163C225.33 163.99 225.66 164.98 226 166C224.02 166.33 222.04 166.66 220 167C220 166.34 220 165.68 220 165C221.65 164.34 223.3 163.68 225 163Z" fill="#E21011"/>
<path d="M132 155C134.31 155 136.62 155 139 155C139 155.66 139 156.32 139 157C136.69 157 134.38 157 132 157C132 156.34 132 155.68 132 155Z" fill="#E21011"/>
<path d="M123 154C124.98 154 126.96 154 129 154C129 154.99 129 155.98 129 157C126.03 156.505 126.03 156.505 123 156C123 155.34 123 154.68 123 154Z" fill="#E21011"/>
<path d="M183 140C183 140.66 183 141.32 183 142C180 144 180 144 177 144C177 143.34 177 142.68 177 142C180 140 180 140 183 140Z" fill="#E21011"/>
<path d="M288 122C288.33 122.99 288.66 123.98 289 125C287.625 126.5 287.625 126.5 286 128C285.34 128 284.68 128 284 128C285.152 125.532 286.048 123.952 288 122Z" fill="#E21011"/>
<path d="M132 122C132.66 122 133.32 122 134 122C134.33 124.31 134.66 126.62 135 129C134.34 128.67 133.68 128.34 133 128C132.375 124.938 132.375 124.938 132 122Z" fill="#E21011"/>
<path d="M132 112C132.66 112 133.32 112 134 112C134 114.31 134 116.62 134 119C133.34 119 132.68 119 132 119C132 116.69 132 114.38 132 112Z" fill="#E21011"/>
<path d="M221 100C221.66 100 222.32 100 223 100C222.494 102.169 222 104 221 106C220.34 106 219.68 106 219 106C219.506 103.831 220 102 221 100Z" fill="#E21011"/>
<path d="M133 93C133.66 93 134.32 93 135 93C135 95.31 135 97.62 135 100C134.34 100 133.68 100 133 100C133 97.69 133 95.38 133 93Z" fill="#E21011"/>
<path d="M226 91C226.66 91.66 227.32 92.32 228 93C227.34 94.65 226.68 96.3 226 98C225.34 98 224.68 98 224 98C224.875 92.125 224.875 92.125 226 91Z" fill="#E21011"/>
<path d="M229 82C229.66 82.33 230.32 82.66 231 83C230.67 84.98 230.34 86.96 230 89C229.34 89 228.68 89 228 89C228.33 86.69 228.66 84.38 229 82Z" fill="#E21011"/>
<path d="M23 76C23.66 76.33 24.32 76.66 25 77C24.01 78.98 23.02 80.96 22 83C21.34 82.34 20.68 81.68 20 81C20.99 79.35 21.98 77.7 23 76Z" fill="#E21011"/>
<path d="M230 73C230.66 73 231.32 73 232 73C232 75.31 232 77.62 232 80C231.34 80 230.68 80 230 80C230 77.69 230 75.38 230 73Z" fill="#E21011"/>
<path d="M72 68C74 69.3125 74 69.3125 76 71C76 71.99 76 72.98 76 74C75.34 74 74.68 74 74 74C72.375 71.5 72.375 71.5 71 69C71.33 68.67 71.66 68.34 72 68Z" fill="#E21011"/>
<path d="M230 64C230.66 64 231.32 64 232 64C232.33 65.98 232.66 67.96 233 70C232.01 70.495 232.01 70.495 231 71C230.67 68.69 230.34 66.38 230 64Z" fill="#E21011"/>
<path d="M146 58C146.66 58 147.32 58 148 58C147.34 59.98 146.68 61.96 146 64C145.34 64 144.68 64 144 64C144.875 59.125 144.875 59.125 146 58Z" fill="#E21011"/>
<path d="M45 58C45 58.66 45 59.32 45 60C43.02 60.66 41.04 61.32 39 62C39 61.01 39 60.02 39 59C41 58 41 58 45 58Z" fill="#E21011"/>
<path d="M48 56C50.31 56 52.62 56 55 56C55 56.66 55 57.32 55 58C52.69 58 50.38 58 48 58C48 57.34 48 56.68 48 56Z" fill="#E21011"/>
<path d="M227 55C227.99 55.33 228.98 55.66 230 56C230.33 57.65 230.66 59.3 231 61C230.34 61 229.68 61 229 61C228.34 59.02 227.68 57.04 227 55Z" fill="#E21011"/>
<path d="M207 35C210.465 36.485 210.465 36.485 214 38C212.188 38.625 212.188 38.625 210 39C209.01 38.34 208.02 37.68 207 37C207 36.34 207 35.68 207 35Z" fill="#E21011"/>
<path d="M189 32C191.31 32 193.62 32 196 32C196 32.66 196 33.32 196 34C193.69 34 191.38 34 189 34C189 33.34 189 32.68 189 32Z" fill="#E21011"/>
<path d="M192 170C194.31 170 196.62 170 199 170C198.67 170.66 198.34 171.32 198 172C196.02 172 194.04 172 192 172C192 171.34 192 170.68 192 170Z" fill="#E21011"/>
<path d="M311 93C311.66 93.33 312.32 93.66 313 94C311.625 96.5 311.625 96.5 310 99C309.34 99 308.68 99 308 99C309.875 94.125 309.875 94.125 311 93Z" fill="#E21011"/>
<path d="M135 84C135.66 84 136.32 84 137 84C136.34 86.31 135.68 88.62 135 91C134.67 91 134.34 91 134 91C134.33 88.69 134.66 86.38 135 84Z" fill="#E21011"/>
</svg>
