<svg xmlns="http://www.w3.org/2000/svg" version="1.1" xmlns:xlink="http://www.w3.org/1999/xlink" 
width="512" height="512" x="0" y="0" viewBox="0 0 682.667 682.667" 
style="enable-background:new 0 0 512 512" xml:space="preserve" class=""><g><defs><clipPath id="a" 
clipPathUnits="userSpaceOnUse"><path d="M0 512h512V0H0Z" fill="#E21011" opacity="1" 
data-original="#000000"></path></clipPath><clipPath id="b" clipPathUnits="userSpaceOnUse"><path d="M0 512h512V0H0Z" fill="#E21011" opacity="1" data-original="#000000"></path></clipPath></defs>
<g clip-path="url(#a)" transform="matrix(1.33333 0 0 -1.33333 0 682.667)"><path d="M0 0v102.893c154-88.488 308 88.487 462 0V0c-34.244 19.677-68.487 26.227-102.731 25.489"
 style="stroke-linecap: round; stroke-linejoin: round; stroke-miterlimit: 10; stroke-dasharray: none; stroke-opacity: 1;" transform="translate(42.5 -168.999)" fill="none" stroke="#E21011" stroke-width="15px" stroke-linecap="round" stroke-linejoin="round" stroke-miterlimit="10" stroke-dasharray="none" stroke-opacity="" data-original="#060606" opacity="1" class=""></path><path d="M0 0c-100.133-20.978-200.267-75.674-300.399-18.139V84.754c154-88.487 308 88.487 462 0V-18.139" style="stroke-linecap: round; stroke-linejoin: round; stroke-miterlimit: 10; stroke-dasharray: none; stroke-opacity: 1;" transform="translate(342.9 -150.86)" fill="none" stroke="#E21011" stroke-width="15px" stroke-linecap="round" stroke-linejoin="round" stroke-miterlimit="10" stroke-dasharray="none" stroke-opacity="" data-original="#060606" opacity="1" class=""></path></g><g clip-path="url(#b)" transform="matrix(1.33333 0 0 -1.33333 0 682.667)"><path d="M0 0h174.721c12.042 0 21.803-9.762 21.803-21.803v-195.162" style="stroke-linecap: round; stroke-linejoin: round; stroke-miterlimit: 10; stroke-dasharray: none; stroke-opacity: 1;" transform="translate(91.572 504.5)" fill="none" stroke="#E21011" stroke-width="15px" stroke-linecap="round" stroke-linejoin="round" stroke-miterlimit="10" stroke-dasharray="none" stroke-opacity="" data-original="#060606" opacity="1" class=""></path><path d="M0 0v-104.607c0-12.041-9.762-21.803-21.804-21.803h-236.99c-12.041 0-21.803 9.762-21.803 21.803v453.394c0 12.041 9.762 21.803 21.803 21.803h20.272" style="stroke-linecap: round; stroke-linejoin: round; stroke-miterlimit: 10; stroke-dasharray: none; stroke-opacity: 1;" transform="translate(288.097 133.91)" fill="none" stroke="#E21011" stroke-width="15px" stroke-linecap="round" stroke-linejoin="round" stroke-miterlimit="10" stroke-dasharray="none" stroke-opacity="" data-original="#060606" opacity="1" class=""></path><path d="M0 0v-42.118h-280.597v361.485H0V152.603" style="stroke-linecap: round; stroke-linejoin: round; stroke-miterlimit: 10; stroke-dasharray: none; stroke-opacity: 1;" transform="translate(288.097 133.91)" fill="none" stroke="#E21011" stroke-width="15px" stroke-linecap="round" stroke-linejoin="round" stroke-miterlimit="10" stroke-dasharray="none" stroke-opacity="" data-original="#060606" opacity="1" class=""></path><path d="M0 0h-44.385c-6.928 0-12.543 5.616-12.543 12.544 0 6.928 5.615 12.544 12.543 12.544H0c6.928 0 12.544-5.616 12.544-12.544C12.544 5.616 6.928 0 0 0Z" style="stroke-linecap: round; stroke-linejoin: round; stroke-miterlimit: 10; stroke-dasharray: none; stroke-opacity: 1;" transform="translate(169.99 37.056)" fill="none" stroke="#E21011"
  stroke-width="15px" stroke-linecap="round" stroke-linejoin="round" stroke-miterlimit="10" stroke-dasharray="none" stroke-opacity=""
   data-original="#060606" opacity="1" class=""></path><path d="M0 0h-153.386c-5.522 0-10 4.477-10 10v53.599c0 5.522 4.478 10 10 10h194c5.524 0 10-4.478 10-10V16.027" style="stroke-linecap: round; stroke-linejoin: round; stroke-miterlimit: 10; stroke-dasharray: none; stroke-opacity: 1;" transform="translate(204.184 333.802)" fill="none" stroke="#E21011" stroke-width="15px" stroke-linecap="round" stroke-linejoin="round" stroke-miterlimit="10" stroke-dasharray="none" stroke-opacity="" data-original="#060606" opacity="1" class=""></path><path d="M0 0c-13.445-16.897-34.188-27.73-57.461-27.73-40.531 0-73.39 32.858-73.39 73.389 0 40.532 32.859 73.39 73.39 73.39 40.532 0 73.39-32.858 73.39-73.39" style="stroke-linecap: round; stroke-linejoin: round; stroke-miterlimit: 10; stroke-dasharray: none; stroke-opacity: 1;" transform="translate(205.259 176.165)" fill="none" stroke="#E21011" stroke-width="15px" stroke-linecap="round" stroke-linejoin="round" stroke-miterlimit="10" stroke-dasharray="none" stroke-opacity="" data-original="#060606" opacity="1" class=""></path><path d="m0 0 22.225-22.225 54.163 54.163" style="stroke-linecap: round; stroke-linejoin: round; stroke-miterlimit: 10; stroke-dasharray: none; stroke-opacity: 1;" transform="translate(109.605 216.968)" fill="none" stroke="#E21011"
    stroke-width="15px" stroke-linecap="round" stroke-linejoin="round"
     stroke-miterlimit="10" stroke-dasharray="none" stroke-opacity="" 
     data-original="#060606" opacity="1" class="">
     </path><path d="M0 0c20.189 10.578 27.981 35.52 17.404 55.709a80.67 80.67 0 0 0-6.992 18.652l-.37 1.551a372.992 372.992 0 0 1-32.373 86.361l-24.407 46.586c-6.699 12.787-22.494 17.721-35.281 11.023-10.206-5.347-15.386-16.488-13.665-27.271-7.883 7.554-19.993 9.637-30.199 4.29-10.206-5.347-15.387-16.488-13.665-27.27-7.884 7.554-19.994 9.636-30.199 4.289-11.48-6.014-16.6-19.355-12.686-31.273l-50.708 96.789c-6.698 12.785-22.493 17.72-35.279 11.021-12.786-6.698-17.722-22.494-11.022-35.28l71.91-137.258 1.043-1.991-41.442 21.815c-13.035 6.201-28.629.66-34.829-12.374v-.001c-6.2-13.034-.66-28.628 12.375-34.828l113.734-56.256a41.272 41.272 0 0 0 18.732-18.771c10.243-20.818 35.63-29.103 56.182-18.335l44.684 23.41" style="stroke-linecap: round; stroke-linejoin: round; stroke-miterlimit: 10; stroke-dasharray: none; stroke-opacity: 1;" transform="translate(482.374 121.015)" fill="none" stroke="#E21011" stroke-width="15px" stroke-linecap="round" stroke-linejoin="round" stroke-miterlimit="10" stroke-dasharray="none" stroke-opacity="" data-original="#060606" opacity="1" class=""></path><path d="m0 0 13.245-25.282" style="stroke-linecap: round; stroke-linejoin: round; stroke-miterlimit: 10; stroke-dasharray: none; stroke-opacity: 1;" transform="translate(299.941 263.662)" fill="none" stroke="#E21011" stroke-width="15px" stroke-linecap="round" stroke-linejoin="round" stroke-miterlimit="10" stroke-dasharray="none" stroke-opacity="" data-original="#060606" opacity="1" class=""></path><path d="m0 0 15.102-28.825" style="stroke-linecap: round; stroke-linejoin: round; stroke-miterlimit: 10; stroke-dasharray: none; stroke-opacity: 1;" transform="translate(342.914 290.691)" fill="none" stroke="#E21011" stroke-width="15px" stroke-linecap="round" stroke-linejoin="round" stroke-miterlimit="10" stroke-dasharray="none" stroke-opacity="" data-original="#060606" opacity="1" class=""></path><path d="m0 0 15.076-28.777" style="stroke-linecap: round; stroke-linejoin: round; stroke-miterlimit: 10; stroke-dasharray: none; stroke-opacity: 1;"
 transform="translate(386.691 313.627)" fill="none"
  stroke="#E21011" stroke-width="15px" stroke-linecap="round" stroke-linejoin="round"
   stroke-miterlimit="10" stroke-dasharray="none" stroke-opacity="" data-original="#060606"
    opacity="1" class=""></path></g></g></svg>