<svg width="512" height="512" viewBox="0 0 512 512" fill="none" xmlns="http://www.w3.org/2000/svg">
<path d="M174.474 74.086C175.481 75.8294 177.108 77.1292 179.03 77.7261C180.953 78.3229 183.03 78.1729 184.847 77.306C203.46 68.424 223.455 63.118 244.276 61.535C246.287 61.3822 248.166 60.4755 249.537 58.9964C250.908 57.5172 251.67 55.5748 251.67 53.558V16.002C251.67 14.9087 251.445 13.8271 251.011 12.8239C250.576 11.8207 249.94 10.9172 249.143 10.1692C248.346 9.42112 247.404 8.8444 246.375 8.47459C245.346 8.10478 244.252 7.94973 243.161 8.019C213.751 9.897 185.484 17.467 159.145 30.519C158.166 31.0047 157.296 31.686 156.59 32.5207C155.884 33.3554 155.357 34.3259 155.04 35.3724C154.724 36.4188 154.625 37.519 154.75 38.605C154.876 39.6911 155.222 40.74 155.768 41.687L174.474 74.086ZM235.67 24.704V46.289C217.999 48.336 200.913 52.869 184.707 59.81L173.975 41.221C193.587 32.49 214.272 26.952 235.67 24.704ZM58.4941 327.808C58.9787 328.789 59.6594 329.66 60.494 330.367C61.3287 331.075 62.2996 331.604 63.3466 331.921C64.3937 332.238 65.4948 332.338 66.5817 332.213C67.6687 332.087 68.7184 331.741 69.6661 331.194L102.218 312.401C103.961 311.395 105.261 309.768 105.858 307.845C106.455 305.923 106.306 303.846 105.439 302.029C96.5341 283.355 91.2021 263.378 89.5881 242.654C89.4317 240.646 88.5236 238.771 87.045 237.403C85.5665 236.035 83.6263 235.275 81.6121 235.275H44.0451C42.9515 235.275 41.8696 235.5 40.8662 235.935C39.8628 236.369 38.9592 237.005 38.2111 237.803C37.463 238.601 36.8863 239.543 36.5167 240.572C36.1471 241.602 35.9924 242.696 36.0621 243.787C37.9501 273.225 45.4981 301.493 58.4941 327.808ZM74.3581 251.274C76.4129 268.804 80.9885 285.945 87.9431 302.167L69.2121 312.981C60.5191 293.382 54.9991 272.692 52.7491 251.274H74.3581ZM44.0461 223.659H81.7601C83.7622 223.659 85.6915 222.908 87.1671 221.555C88.6426 220.202 89.5572 218.345 89.7301 216.35C91.5311 195.576 96.9051 175.618 105.703 157.031C106.562 155.215 106.707 153.142 106.109 151.225C105.51 149.307 104.212 147.685 102.472 146.68L69.7251 127.774C68.778 127.227 67.7289 126.88 66.6425 126.755C65.5561 126.629 64.4554 126.728 63.4086 127.044C62.3618 127.361 61.391 127.889 60.5562 128.595C59.7214 129.302 59.0404 130.172 58.5551 131.152C45.5181 157.481 37.9511 185.741 36.0621 215.146C35.9918 216.238 36.1461 217.332 36.5156 218.362C36.885 219.391 37.4617 220.334 38.21 221.132C38.9583 221.93 39.8623 222.566 40.8661 223C41.8699 223.435 42.9522 223.659 44.0461 223.659ZM69.2631 145.982L88.2131 156.923C81.3351 173.064 76.7591 190.072 74.5631 207.659H52.7501C55.0051 186.267 60.5411 165.587 69.2631 145.982ZM497.977 250.343C495.901 246.065 491.655 243.408 486.894 243.407H479.014C479.302 238.766 479.447 234.104 479.447 229.467C479.447 172.678 458.011 118.65 419.088 77.336C380.336 36.203 328.026 11.584 271.792 8.012C270.701 7.94301 269.608 8.09828 268.579 8.46822C267.551 8.83817 266.609 9.41495 265.812 10.163C265.015 10.911 264.379 11.8144 263.945 12.8175C263.511 13.8205 263.286 14.9019 263.286 15.995V53.561C263.286 55.5763 264.046 57.5174 265.416 58.9961C266.785 60.4749 268.662 61.3823 270.671 61.537C357.749 68.255 425.961 142.018 425.961 229.466C425.961 234.106 425.77 238.771 425.389 243.405H420.273C415.514 243.405 411.267 246.062 409.191 250.34C407.115 254.617 407.654 259.597 410.598 263.335L443.911 305.648C445.06 307.115 446.529 308.301 448.206 309.114C449.883 309.928 451.723 310.348 453.587 310.342C457.385 310.342 460.91 308.63 463.259 305.646L496.57 263.335C499.513 259.599 500.053 254.62 497.977 250.343ZM453.583 292.073L427.866 259.408H432.604C434.555 259.408 436.439 258.695 437.901 257.404C439.363 256.112 440.302 254.331 440.543 252.395C441.486 244.789 441.959 237.132 441.96 229.468C441.96 182.711 424.434 138.115 392.609 103.896C362.648 71.68 322.64 51.405 279.285 46.306V24.697C383.223 35.624 463.448 123.966 463.448 229.468C463.448 236.513 463.088 243.622 462.377 250.596C462.264 251.709 462.385 252.834 462.734 253.897C463.082 254.961 463.65 255.939 464.4 256.77C465.15 257.6 466.065 258.264 467.088 258.718C468.111 259.173 469.217 259.408 470.336 259.408H479.302L453.583 292.073ZM75.5491 117.725L108.183 136.566C109.932 137.577 111.998 137.888 113.967 137.438C115.936 136.987 117.662 135.808 118.797 134.138C130.503 116.931 145.057 102.252 162.053 90.508C163.706 89.3655 164.869 87.6426 165.31 85.6819C165.751 83.7212 165.438 81.6664 164.433 79.926L145.72 47.515C145.172 46.567 144.436 45.7414 143.557 45.0893C142.677 44.4373 141.673 43.9727 140.607 43.7242C139.541 43.4757 138.435 43.4486 137.358 43.6447C136.281 43.8407 135.255 44.2557 134.345 44.864C109.911 61.203 89.2371 81.89 72.8951 106.352C72.2873 107.262 71.8727 108.288 71.6771 109.365C71.4814 110.442 71.5088 111.548 71.7576 112.614C72.0063 113.68 72.4712 114.683 73.1233 115.562C73.7755 116.442 74.6011 117.178 75.5491 117.725ZM136.225 63.066L146.964 81.667C132.862 92.272 120.429 104.812 109.877 119.069L91.0961 108.226C103.695 90.9141 118.922 75.677 136.225 63.066ZM368.99 334.116L291.86 379.04C288.926 380.748 285.952 382.066 282.889 383.001C283.856 381.041 284.625 378.99 285.185 376.878C289.287 361.567 280.206 345.589 264.512 340.502C264.169 340.391 263.82 340.303 263.465 340.239C241.393 336.258 219.565 328.366 202.025 322.025C195.909 319.814 190.132 317.725 185.209 316.129C165.03 309.582 146.896 317.624 131.818 326.355L75.4451 358.994L70.6101 350.45C68.0701 345.962 63.9221 342.728 58.9311 341.344C53.9411 339.963 48.7201 340.599 44.2311 343.138L22.5901 355.386C13.3021 360.643 10.0221 372.476 15.2781 381.765L78.9011 494.182C81.4411 498.671 85.5891 501.905 90.5801 503.288C92.3061 503.766 94.0591 504.003 95.8001 504.003C99.0931 504.003 102.344 503.155 105.28 501.494L126.921 489.246C131.409 486.705 134.643 482.558 136.027 477.567C137.41 472.576 136.773 467.355 134.233 462.866L128.238 452.273L139.911 445.533L238.235 471.879C243.787 473.367 249.312 474.107 254.745 474.107C265.737 474.107 276.356 471.081 286.064 465.104L426.036 378.915C439.305 370.746 443.536 350.194 434.913 335.798C430.74 328.828 413.648 308.109 368.99 334.116ZM120.609 473.294C120.469 473.799 120.079 474.734 119.041 475.322L97.4001 487.57C96.3631 488.159 95.3591 488.011 94.8541 487.87C94.3491 487.73 93.4141 487.34 92.8261 486.302L29.2041 373.885C28.3081 372.302 28.8881 370.207 30.4721 369.311L52.1141 357.063C52.6071 356.783 53.1649 356.636 53.7321 356.637C54.1121 356.637 54.4351 356.7 54.6601 356.763C55.1651 356.903 56.1001 357.293 56.6871 358.33L120.31 470.747C120.896 471.786 120.749 472.788 120.609 473.294ZM417.648 365.292L277.677 451.48C266.858 458.139 254.982 459.805 242.377 456.425L140.851 429.221C138.802 428.673 136.619 428.96 134.781 430.02L120.357 438.347L83.3261 372.917L139.834 340.199C152.465 332.886 166.106 326.75 180.272 331.346C184.942 332.861 190.337 334.811 196.584 337.07C214.538 343.561 236.845 351.626 260.037 355.876C267.466 358.515 271.62 365.681 269.73 372.735C267.239 382.027 259.425 383.183 253.188 382.473C241.896 380.148 231.143 377.079 219.767 373.831C214.345 372.283 208.739 370.682 202.972 369.136C200.935 368.623 198.777 368.932 196.966 369.997C195.154 371.061 193.834 372.795 193.291 374.824C192.747 376.854 193.023 379.015 194.06 380.843C195.096 382.67 196.81 384.017 198.831 384.591C204.471 386.102 210.014 387.685 215.373 389.216C227.167 392.584 250.59 398.272 250.643 398.28L260.237 399.841C274.856 402.178 287.834 399.898 299.911 392.865L377.041 347.941C398.625 335.37 415.128 333.902 421.187 344.019C425.327 350.929 423.541 361.664 417.648 365.292ZM57.8221 377.768C57.9843 378.779 57.9441 379.812 57.7036 380.807C57.4632 381.802 57.0274 382.74 56.4215 383.565C55.8156 384.39 55.0518 385.087 54.1744 385.615C53.2969 386.142 52.3234 386.49 51.3103 386.638C50.2973 386.786 49.2649 386.732 48.2732 386.477C47.2814 386.223 46.3501 385.774 45.5334 385.157C44.7166 384.539 44.0307 383.766 43.5155 382.881C43.0002 381.996 42.666 381.018 42.5321 380.003C42.2665 377.99 42.8041 375.953 44.0286 374.333C45.253 372.713 47.0659 371.64 49.0751 371.347C51.0844 371.053 53.1285 371.562 54.7653 372.764C56.4022 373.965 57.5003 375.763 57.8221 377.768ZM325.509 154.503C325.509 122.591 299.546 96.628 267.634 96.628C235.722 96.628 209.759 122.591 209.759 154.503C209.759 173.967 219.427 191.204 234.203 201.701C195.358 214.447 166.171 248.87 161.603 291.556C161.483 292.672 161.6 293.801 161.945 294.869C162.29 295.937 162.856 296.92 163.606 297.755C164.357 298.59 165.274 299.258 166.299 299.715C167.325 300.171 168.435 300.407 169.557 300.407H365.708C366.831 300.407 367.941 300.171 368.966 299.715C369.991 299.258 370.909 298.59 371.659 297.755C372.41 296.92 372.976 295.936 373.321 294.868C373.666 293.8 373.782 292.671 373.662 291.555C369.093 248.87 339.907 214.448 301.063 201.701C315.84 191.205 325.509 173.967 325.509 154.503ZM356.368 284.407H178.898C187.52 242.776 224.201 212.387 267.613 212.377L267.634 212.378H267.654C311.065 212.388 347.746 242.776 356.368 284.407ZM267.633 196.377H267.607C244.53 196.362 225.759 177.584 225.759 154.503C225.759 131.413 244.544 112.628 267.634 112.628C290.724 112.628 309.509 131.413 309.509 154.503C309.509 177.584 290.738 196.363 267.66 196.377H267.633Z" fill="#E21011"/>
</svg>
