<svg width="512" height="512" viewBox="0 0 512 512" fill="none" xmlns="http://www.w3.org/2000/svg">
<path d="M348.944 221.64V124.746C348.944 121.973 347.664 119.41 345.851 117.383L237.219 3.30899C235.19 1.176 232.309 0 229.429 0H57.1959C25.3979 0 0 25.9299 0 57.7299V383.413C0 415.213 25.3979 440.718 57.1949 440.718H193.148C218.863 483.401 265.604 511.999 318.851 511.999C399.737 511.999 465.792 446.265 465.792 365.272C465.902 294.522 415.104 235.406 348.944 221.641V221.64ZM240.102 37.4579L312.983 114.181H265.71C251.625 114.181 240.101 102.551 240.101 88.4658L240.102 37.4579ZM57.1949 419.374C37.2419 419.374 21.344 403.366 21.344 383.414V57.7299C21.344 37.6679 37.2419 21.344 57.1949 21.344H218.758V88.4638C218.758 114.394 239.781 135.524 265.71 135.524H327.6V218.864C324.401 218.758 321.839 218.437 319.065 218.437C281.823 218.437 247.57 232.738 221.746 255.147H86.2228C80.3518 255.147 75.5509 259.948 75.5509 265.815C75.5509 271.687 80.3508 276.487 86.2228 276.487H201.898C194.32 287.159 188.023 297.831 183.118 309.569H86.2218C80.3508 309.569 75.5499 314.37 75.5499 320.241C75.5499 326.108 80.3498 330.913 86.2218 330.913H176.179C173.511 341.585 172.124 353.429 172.124 365.273C172.124 384.479 175.858 403.476 182.581 419.483H57.1949V419.374ZM318.96 490.764C249.812 490.764 193.574 434.526 193.574 365.378C193.574 296.229 249.704 239.992 318.96 239.992C388.214 239.992 444.343 296.229 444.343 365.378C444.343 434.526 388.108 490.764 318.96 490.764Z" fill="#E21011"/>
<path d="M86.2228 223.027H194.32C200.191 223.027 204.992 218.223 204.992 212.355C204.992 206.485 200.192 201.684 194.32 201.684H86.2228C80.3518 201.684 75.5508 206.484 75.5508 212.355C75.5508 218.223 80.3508 223.027 86.2228 223.027ZM315.438 299.54C316.293 299.75 317.145 299.86 318 299.86C319.066 299.86 320.027 299.75 320.988 299.43C335.074 300.605 346.066 312.344 346.066 326.645C346.066 332.512 350.867 337.313 356.734 337.313C362.605 337.313 367.406 332.512 367.406 326.645C367.406 303.168 350.762 283.531 328.672 278.941V272.113C328.672 266.243 323.867 261.441 318 261.441C312.129 261.441 307.328 266.242 307.328 272.113V279.371C285.984 284.492 270.086 303.809 270.086 326.645C270.086 353.535 291.961 375.305 318.746 375.305C333.793 375.305 346.066 387.575 346.066 402.621C346.066 417.668 333.898 430.047 318.746 430.047C303.699 430.047 291.43 417.773 291.43 402.727C291.43 396.859 286.625 392.055 280.758 392.055C274.887 392.055 270.086 396.859 270.086 402.727C270.086 425.672 285.984 444.879 307.328 450V460.992C307.328 466.863 312.128 471.664 318 471.664C323.867 471.664 328.672 466.864 328.672 460.992V450.32C350.762 445.73 367.406 426.098 367.406 402.621C367.406 375.731 345.531 353.961 318.746 353.961C303.699 353.961 291.43 341.687 291.43 326.645C291.43 312.77 301.887 301.141 315.437 299.539L315.438 299.54Z" fill="#E21011"/>
</svg>
