<svg width="34" height="30" viewBox="0 0 34 30" fill="none" xmlns="http://www.w3.org/2000/svg">
<g clip-path="url(#clip0_228_1353)">
<path d="M34 0C32.6852 3.86391 31.1326 6.13974 28.25 9C22.6869 15.0191 19.5728 22.2817 17 30C13.6413 29.4226 12.0753 28.4249 9.76562 25.9453C9.19199 25.3304 8.61836 24.7155 8.02734 24.082C7.44082 23.4362 6.8543 22.7904 6.25 22.125C5.64801 21.4869 5.04602 20.8488 4.42578 20.1914C0 15.3843 0 15.3843 0 12C8.03501 11.3698 8.03501 11.3698 12.0625 14C12.7019 14.66 13.3413 15.32 14 16C14.3893 15.4315 14.7786 14.863 15.1797 14.2773C19.5229 8.28293 25.9804 0 34 0Z" fill="#E21011"/>
</g>
<defs>
<clipPath id="clip0_228_1353">
<rect width="34" height="30" fill="white"/>
</clipPath>
</defs>
</svg>
