<svg xmlns:xlink="http://www.w3.org/1999/xlink" xmlns="http://www.w3.org/2000/svg" enable-background="new 0 0 2000 2000" viewBox="0 0 2000 2000" width="360" height="360"><path fill="#FFFFFF" fill-rule="evenodd" d="M1266.8,334.2c20.4-5.7,43-0.7,59,17.7c18.7-9.3,41.9-9.1,60.5,0.5c18.6,9.6,32.2,28.3,35.5,48.9
			c10.9-1.5,22.2-2.9,32.9-0.1c10.7,2.8,20.7,11,22.2,22c13.3,0.4,27.2,13.3,22.2,25.6c-2.8,7-10.5,10.8-17.9,11.9
			c-7.4,1-15-0.1-22.5,0.2c-16.1,0.6-31.2,7.5-46.6,12.4c-12.7,4.1-26.7,6-40,3.6c-10.3-1.9-20.4-7.2-25.6-16.2
			c-14.5,12.4-34.5,15.8-53.5,16.7c-14.2,0.7-28.7,0.1-41.9-5c-13.2-5.1-25-15.6-28.6-29.3c-18.7,6.6-40.4,3.3-55.2-10.2
			c-11-10-10.6-28.5-0.4-39c8-8.3,20.9-9,32.5-8.7c8,0.2,16.6,0.7,23.2,5.3c-1.8-12,3-24.2,10.5-33.6
			C1241.9,345.6,1253.9,337.8,1266.8,334.2z" clip-rule="evenodd" class="colorfff svgShape"></path><path fill="#F0F3FA" fill-rule="evenodd" d="M1266.8,334.2c-12.8,3.6-24.8,11.3-33.9,22.6c-7.5,9.4-12.3,21.7-10.5,33.6c1.4,9.1,4.6,17.2,11.7,23.1
			c7.1,5.9,15.9,9.4,24.7,12.3C1245.9,396.3,1248.2,360.6,1266.8,334.2z" clip-rule="evenodd" class="colorf0f3fa svgShape"></path><path fill="#F0F3FA" fill-rule="evenodd" d="M1167.1,432.9c14.8,13.4,36.5,16.7,55.2,10.2c3.7,13.7,15.4,24.1,28.6,29.3c13.2,5.1,27.7,5.7,41.9,5
			c19-0.9,39-4.3,53.5-16.7c5.3,9,15.4,14.3,25.6,16.2c13.3,2.4,27.3,0.5,40-3.6c15.4-4.9,30.5-11.8,46.6-12.4
			c7.5-0.3,15.1,0.8,22.5-0.2c7.4-1,15.1-4.9,17.9-11.9c4.9-12.3-9-25.2-22.2-25.6c-0.2-1.3-0.5-2.5-0.9-3.7
			c-5.2-0.5-10.6-0.4-15.7,0.4c-26.7,3.8-50.5,20.1-77.2,23.5c-7.2,0.9-14.7,0.8-21.6-1.6c-6-2.1-11.3-5.8-16-10.1
			c-8.9-8.2-15.7-18.6-19.7-29.9c4.1,16.2-8.7,33-24.5,38.6s-33.2,2.6-49.3-2.1c-10.1-3-21.3-7.8-24.4-17.9
			c-11.8,9.8-30.9,11.2-42.3,0.9c-13-11.7-6.4-23.2-1.5-35.3c-6.5,1-12.6,3.3-17.1,8C1156.5,404.5,1156.1,422.9,1167.1,432.9z" clip-rule="evenodd" class="colorf0f3fa svgShape"></path><path fill="#E5EEF3" fill-rule="evenodd" d="M1346.4 460.7c-14.5 12.4-34.5 15.8-53.5 16.7-14.2.7-28.7.1-41.9-5-13.2-5.1-25-15.6-28.6-29.3-18.7 6.6-40.4 3.3-55.2-10.2 19.3 7.5 40.3 9.3 60.4 4.1 7.7 15.1 24.1 24.7 40.9 26.7 16.8 2 33.9-2.8 48.9-10.8-.2 7.1-4.6 14-10.9 17.3C1320.5 470.3 1333.9 467.5 1346.4 460.7zM1499.1 448.8c-2.8 7-10.5 10.8-17.9 11.9-7.4 1-15-.1-22.5.2-16.1.6-31.2 7.5-46.6 12.4-12.7 4.1-26.7 6-40 3.6-10.3-1.9-20.4-7.2-25.6-16.2 16.1 6.2 35.7 6 52.2 1 9.4-2.8 18.2-7.4 27.4-10.7C1448.8 442.7 1475.8 441.9 1499.1 448.8z" clip-rule="evenodd" class="colore5eef3 svgShape"></path><ellipse cx="981.6" cy="1648.3" fill="#D2DFEE" fill-rule="evenodd" clip-rule="evenodd" rx="529.8" ry="20.2" class="colord2dfee svgShape"></ellipse><path fill="#EAEFF8" fill-rule="evenodd" d="M971.7,350.1c181.1,0,160.4,319.8,291.1,417.2c173,129,470.7,65.1,470.7,286.5
			c0,388.7-386.1,529.5-806.8,529.5s-779.7-215.6-654.4-603.2C397.5,592.5,550.9,350.1,971.7,350.1z" clip-rule="evenodd" class="coloreaeff8 svgShape"></path><path fill="#61A0E0" fill-rule="evenodd" d="M491.6,563.2l23.1-17.6l0.2-0.1c2.9-1.1,5.7-2.4,8.5-3.1c3-0.8,6.1-1,9.6,0.4c4.9,2,8.7,5.9,13,8.7
			c33,25.1,59.7,45.2,80.9,61c5.1,3.8,91.4,22.1,95.8,25.5c28.4,21.2-2,28.5-16.8,31.7c-4.5,1-7.6,1.6-7.1,2.1
			c6.6,6.8-121.1,34.1-146.9,47.3l-60.9-139.3C490.1,574.2,490,568.7,491.6,563.2z" clip-rule="evenodd" class="color61a0e0 svgShape"></path><path fill="#CF3B44" fill-rule="evenodd" d="M512,550.6l-0.2,0.1l-20.9,15.9c0.2-1.1,0.4-2.2,0.7-3.3l23.1-17.6l0.2-0.1c0.8-0.3,1.6-0.6,2.4-0.9
			C515.7,547.4,514,549.8,512,550.6z" clip-rule="evenodd" class="colorcf3b44 svgShape"></path><path fill="#EEEEEE" fill-rule="evenodd" d="M545.9,551.5c-0.1,0-0.1-0.1-0.2-0.1C545.8,551.5,545.9,551.5,545.9,551.5L545.9,551.5z M545.7,551.4
			C545.7,551.4,545.7,551.4,545.7,551.4C545.7,551.4,545.7,551.4,545.7,551.4z" clip-rule="evenodd" class="coloreee svgShape"></path><path fill="#A4D0FC" fill-rule="evenodd" d="M727,649.4c1.8-0.6,3.6-1.1,5.4-1.7c-1.8-2.9-4.9-6.1-9.7-9.7c-4.5-3.3-90.8-21.7-95.8-25.5
			c-21.2-15.9-47.8-36-80.9-61l0,0c-0.1,0-0.1-0.1-0.2-0.1c0,0,0,0,0,0c0,0,0,0,0,0c-3.5-2.3-6.7-5.3-10.4-7.3
			c2.8,5.3,5.5,11,7.7,12.4c33,25.1,59.7,45.2,80.9,61c5.1,3.8,91.4,22.1,95.8,25.5C722.8,645.3,725.2,647.4,727,649.4z" clip-rule="evenodd" class="colora4d0fc svgShape"></path><path fill="#2C74B9" fill-rule="evenodd" d="M517.1,544.7c0,0,0.1,0,0.1-0.1c0,0,0,0,0,0c0.4-0.2,0.8-0.3,1.2-0.5C518,544.4,517.6,544.5,517.1,544.7z" clip-rule="evenodd" class="color2c74b9 svgShape"></path><path fill="#4086C5" fill-rule="evenodd" d="M550.8,716.8c6.4-3.7,12.4-7.1,17.8-10.1c-9.9-19.5-19.3-39.3-29.3-58.8c-12.5-24.3-27.3-48.6-37.5-74.1
			c-5.7-14.4,13.5-24.4,23.7-29.7c1.6-0.9,3.2-1.5,4.7-2c-2.4-0.5-4.7-0.2-6.9,0.4c-1.7,0.4-3.3,1.1-4.9,1.7
			c-0.4,0.2-0.8,0.3-1.2,0.5c-1.6,2.8-3.3,5.2-5.3,5.9l-0.2,0.1l-20.9,15.9c0.2-1.1,0.4-2.2,0.7-3.3c-1.5,5.5-1.5,11-0.6,16.6
			L550.8,716.8z" clip-rule="evenodd" class="color4086c5 svgShape"></path><path fill="#4086C5" fill-rule="evenodd" d="M490.9,566.5l20.9-15.9l0.2-0.1c2-0.7,3.7-3.1,5.3-5.9c0,0,0,0,0,0c0,0-0.1,0-0.1,0.1
			c-0.7,0.3-1.5,0.6-2.2,0.9l-0.2,0.1l-23.1,17.6C491.3,564.3,491.1,565.4,490.9,566.5z" clip-rule="evenodd" class="color4086c5 svgShape"></path><path fill="#D2E5F7" fill-rule="evenodd" d="M1430.9,527.7c-122.8-61.5-145.4-49.4-230-24.6c-84.6,24.8-324.3,101-413.4,127.7
			c-89.1,26.7-181.4,57.9-189.8,61.1c0,0-29.4,13.5-66.3,36.7c0,0-16.3,9.4-22.9,15.4c-6.3,5.6,3.1,24.7,16.9,30.5
			c3.2,1.4,38.7,12.1,38.7,12.1s18.3,7.4,57,9.6c33.3,1.9,377.8-23.3,717.2-123.7c96.8-28.6,154.3-93.3,148.1-116.6
			C1480.2,533.5,1430.9,527.7,1430.9,527.7z" clip-rule="evenodd" class="colord2e5f7 svgShape"></path><path fill="#61A0E0" fill-rule="evenodd" d="M1338.1,672.4c-36.5,10.8-73.1,20.7-109.4,29.9c-30.7,3.5-61.6,4-92.5,1.1c-45.2-4.2-89.9-12.2-135.2-15.7
			c-52.4-4-105.4-1.1-157.8,2.7c-52.3,3.8-104.4,9.9-156.2,17.9c-52.1,8.1-105.3,18.2-154.2,38.4c-8.1,3.3-16.4,6.6-24.7,10
			c-0.8-2-1.5-4-1.7-5.8c0.7-0.5,1.4-1,2.2-1.5c84-57,186.2-81.7,284.8-99.2c105.4-18.8,213-26.9,320-29.3
			c95.8-2.2,194.5,1.1,287.9-24.3c20-5.4,70-19.6,83.9-43.3c0.4,0.8,0.7,1.7,0.9,2.5C1492.4,579.1,1434.9,643.8,1338.1,672.4z" clip-rule="evenodd" class="color61a0e0 svgShape"></path><path fill="#87BEF5" fill-rule="evenodd" d="M1281.9 555.2c-6.8-7-12.3-15-17.6-23.2-1.8-4.3-2.2-8.6 1.3-12 8-2.7 16.9-5.6 26.6-8.6 2.8-.9 5.5-1.7 8-2.4l51.9 39.9c-12.9 5.2-26 9.8-38.4 13.1C1300.4 565.4 1292.1 565.8 1281.9 555.2zM1419 523.1c0 0-45.1-24.2-57.9-26-3.1-.5-13.8-1.6-56.1 10l50.6 40C1373.4 540.5 1398.9 531.6 1419 523.1z" clip-rule="evenodd" class="color87bef5 svgShape"></path><path fill="#92989C" fill-rule="evenodd" d="M1266.2,535c-0.6-1-1.3-2-1.9-3c-0.4-0.9-0.7-1.8-0.9-2.7c0.2,0.9,0.6,1.8,0.9,2.7
			C1264.9,533,1265.6,534,1266.2,535z" clip-rule="evenodd" class="color92989c svgShape"></path><path fill="#71AFED" fill-rule="evenodd" d="M1272.3,543.7c16.6-6.3,33.3-12.3,50.2-17.6l-22.3-17.1c-2.5,0.7-5.2,1.6-8,2.4c-9.8,3-18.7,5.9-26.6,8.6
			c-2.8,2.6-3.1,5.9-2.2,9.3c0.2,0.9,0.6,1.8,0.9,2.7c0.6,1,1.3,2,1.9,3C1268.2,538,1270.2,540.9,1272.3,543.7z" clip-rule="evenodd" class="color71afed svgShape"></path><path fill="#9BA1A3" fill-rule="evenodd" d="M1387,507c-8.8-4.1-17.4-7.8-23-9.3l0,0C1369.6,499.2,1378.2,502.9,1387,507z" clip-rule="evenodd" class="color9ba1a3 svgShape"></path><path fill="#92989C" fill-rule="evenodd" d="M1364,497.7L1364,497.7c-1.1-0.3-2.1-0.5-2.9-0.6C1361.9,497.2,1362.9,497.4,1364,497.7L1364,497.7z
			 M1361,497.1c-3.1-0.5-13.1-1.4-50.1,8.4C1348,495.7,1358,496.6,1361,497.1L1361,497.1z M1305,507.1c0,0,0.1,0,0.1,0
			C1305.1,507.1,1305,507.1,1305,507.1L1305,507.1z M1305.2,507c0.1,0,0.2-0.1,0.3-0.1C1305.4,507,1305.3,507,1305.2,507L1305.2,507
			z M1305.5,506.9c0,0,0.1,0,0.1,0C1305.6,506.9,1305.5,506.9,1305.5,506.9L1305.5,506.9z M1310.9,505.5L1310.9,505.5L1310.9,505.5z
			" clip-rule="evenodd" class="color92989c svgShape"></path><path fill="#71AFED" fill-rule="evenodd" d="M1410.2,518.5c-6.1-3.2-14.7-7.5-23.1-11.4c-8.8-4.1-17.4-7.8-23-9.3c-1.1-0.3-2.1-0.5-2.9-0.6l0,0
			c0,0-0.1,0-0.1,0c-3.1-0.5-13.1-1.4-50.1,8.4c0,0,0,0,0,0l0,0c-1.7,0.5-3.5,0.9-5.3,1.4c0,0-0.1,0-0.1,0c0,0,0,0,0,0
			c-0.1,0-0.2,0.1-0.3,0.1c0,0-0.1,0-0.1,0c0,0-0.1,0-0.1,0l0,0l22.2,17.6c4.9-1.5,9.8-2.9,14.7-4.3c1.1-0.3,2.3-0.6,3.4-0.9
			c12.6-3.3,25.2-6.1,38.3-5.6C1392.6,514.2,1401.4,516.2,1410.2,518.5z" clip-rule="evenodd" class="color71afed svgShape"></path><path fill="#4086C5" fill-rule="evenodd" d="M1218.6 633.5l-28.2 8.5c-.1 0-1.1.5-2.6.9-4.1 1.1-11.5 1.6-15.8-7.2-6.2-12.8-18.4-57.1-18.5-57.6-.1-.2-3.9-12-.9-17.5.7-1.3 1.7-2.2 3.2-2.5l.2-.1 17.2-5.3 17-5.4c.1 0 .6-.3 1.5-.5 3.6-1 10.2-1.4 13.8 6.4 4.9 10.9 18.5 57.7 18.6 58.2C1224.1 611.5 1229.2 626 1218.6 633.5L1218.6 633.5zM1188.2 644.4c1.7-.4 2.7-.9 2.8-1l28.5-8.6c11.8-8.2 6.3-23.9 6.2-24.1-.5-1.9-13.7-47.4-18.7-58.4-4.2-9.2-12.4-8.2-15.7-7.3-1 .3-1.6.5-1.6.5l-16.9 5.4-17.2 5.3-.2 0c-1.9.5-3.3 1.6-4.2 3.4-3.3 6.2.6 18.3.8 18.8.5 1.8 12.3 44.8 18.6 57.8C1175.4 646.6 1184.5 645.4 1188.2 644.4zM1106.8 607.7c.4-.1.7-.2.7-.2l7.6-2 .1-.1c3-1.9 2.7-5.6 2.2-7.3-.1-.5-3.2-12.7-4.5-15.7-1.1-2.6-3.4-3-5.2-2.5l-.4.1-9.1 2.5 0 0c-.8.2-1.3.6-1.7 1.3-1.1 1.9-.1 5.2 0 5.6.1.4 2.9 12 4.5 15.6C1102.1 607.4 1104.3 608.4 1106.8 607.7z" clip-rule="evenodd" class="color4086c5 svgShape"></path><path fill="#395068" fill-rule="evenodd" d="M1106.9,606.1c0.4-0.1,0.6-0.2,0.6-0.2l6.7-1.8l0.1-0.1c2.6-1.7,2.4-4.9,1.9-6.4c-0.1-0.4-2.8-11.1-3.9-13.8
			c-0.9-2.3-3-2.6-4.6-2.2l-0.3,0.1l-8,2.2l0,0c-0.7,0.2-1.2,0.6-1.5,1.1c-0.9,1.6-0.1,4.6,0,4.9c0.1,0.4,2.5,10.6,3.9,13.7
			C1102.8,605.8,1104.6,606.7,1106.9,606.1z" clip-rule="evenodd" class="color395068 svgShape"></path><path fill="#4F6C8C" fill-rule="evenodd" d="M1112,590.1l-10.6,2.8c-0.3-1.1-0.4-1.8-0.5-1.9c-0.1-0.3-0.9-3.2-0.3-4.8c0.2-0.5,0.5-0.9,1-1l0,0l5.6-1.6
			l0.2-0.1c1.1-0.3,2.6,0.2,3.5,2.5c0.3,0.8,0.7,2.3,1.2,4L1112,590.1z" clip-rule="evenodd" class="color4f6c8c svgShape"></path><path fill="#4086C5" fill-rule="evenodd" d="M1080.3,614.7c0.4-0.1,0.7-0.2,0.7-0.2l7.6-2l0.1-0.1c3-1.9,2.7-5.6,2.2-7.2c-0.1-0.5-3.2-12.7-4.5-15.7
			c-1.1-2.6-3.4-3-5.2-2.5l-0.4,0.1l-9.1,2.5l0,0c-0.8,0.2-1.3,0.6-1.7,1.3c-1.1,1.9-0.1,5.2,0,5.6c0.1,0.4,2.9,12,4.5,15.6
			C1075.6,614.4,1077.8,615.4,1080.3,614.7z" clip-rule="evenodd" class="color4086c5 svgShape"></path><path fill="#395068" fill-rule="evenodd" d="M1080.4,613.1c0.4-0.1,0.6-0.2,0.6-0.2l6.7-1.8l0.1-0.1c2.6-1.7,2.4-4.9,1.9-6.4c-0.1-0.4-2.8-11.1-3.9-13.8
			c-0.9-2.3-3-2.6-4.6-2.2l-0.3,0.1l-8,2.2l0,0c-0.7,0.2-1.2,0.6-1.5,1.1c-0.9,1.6-0.1,4.6,0,4.9c0.1,0.4,2.5,10.6,3.9,13.7
			C1076.2,612.8,1078.1,613.7,1080.4,613.1z" clip-rule="evenodd" class="color395068 svgShape"></path><path fill="#4F6C8C" fill-rule="evenodd" d="M1085.5,597.1l-10.6,2.8c-0.3-1.1-0.4-1.8-0.5-1.9c-0.1-0.3-0.9-3.2-0.3-4.8c0.2-0.5,0.5-0.9,1-1l0,0
			l5.6-1.6l0.2-0.1c1.1-0.3,2.6,0.2,3.5,2.5c0.3,0.8,0.7,2.3,1.2,4L1085.5,597.1z" clip-rule="evenodd" class="color4f6c8c svgShape"></path><path fill="#4086C5" fill-rule="evenodd" d="M1053.8,621.7c0.4-0.1,0.7-0.2,0.7-0.2l7.6-2l0.1-0.1c3-1.9,2.7-5.6,2.2-7.3c-0.1-0.5-3.2-12.7-4.5-15.7
			c-1-2.6-3.4-3-5.2-2.5l-0.4,0.1l-9.1,2.5l0,0c-0.8,0.2-1.3,0.6-1.7,1.3c-1.1,1.9-0.1,5.2,0,5.6c0.1,0.4,2.9,12,4.5,15.6
			C1049.1,621.4,1051.3,622.4,1053.8,621.7z" clip-rule="evenodd" class="color4086c5 svgShape"></path><path fill="#395068" fill-rule="evenodd" d="M1053.8,620.2c0.4-0.1,0.6-0.2,0.6-0.2l6.7-1.8l0.1-0.1c2.6-1.7,2.4-4.9,1.9-6.4c-0.1-0.4-2.8-11.1-3.9-13.8
			c-0.9-2.3-3-2.6-4.5-2.2l-0.3,0.1l-8,2.2l0,0c-0.7,0.2-1.2,0.6-1.5,1.1c-0.9,1.6-0.1,4.6,0,4.9c0.1,0.4,2.5,10.6,3.9,13.7
			C1049.7,619.9,1051.6,620.8,1053.8,620.2z" clip-rule="evenodd" class="color395068 svgShape"></path><path fill="#4F6C8C" fill-rule="evenodd" d="M1058.9,604.1l-10.6,2.8c-0.3-1.1-0.4-1.8-0.5-1.9c-0.1-0.3-0.9-3.2-0.3-4.8c0.2-0.5,0.5-0.8,1-1l0,0
			l5.6-1.6l0.2-0.1c1.1-0.3,2.6,0.2,3.5,2.5c0.3,0.8,0.7,2.3,1.2,4L1058.9,604.1z" clip-rule="evenodd" class="color4f6c8c svgShape"></path><path fill="#4086C5" fill-rule="evenodd" d="M1027.3,628.8c0.4-0.1,0.7-0.2,0.7-0.2l7.6-2l0.1-0.1c2.9-1.9,2.7-5.6,2.2-7.3c-0.1-0.5-3.2-12.7-4.5-15.7
			c-1-2.6-3.4-3-5.2-2.5l-0.4,0.1l-9.1,2.5l0,0c-0.8,0.2-1.3,0.6-1.7,1.3c-1.1,1.9-0.1,5.2,0,5.6c0.1,0.4,2.9,12,4.5,15.6
			C1022.6,628.4,1024.7,629.4,1027.3,628.8z" clip-rule="evenodd" class="color4086c5 svgShape"></path><path fill="#395068" fill-rule="evenodd" d="M1027.3,627.2c0.4-0.1,0.6-0.2,0.6-0.2l6.7-1.8l0.1-0.1c2.6-1.7,2.4-4.9,1.9-6.4c-0.1-0.4-2.8-11.1-3.9-13.8
			c-0.9-2.3-3-2.6-4.5-2.2l-0.3,0.1l-8,2.2l0,0c-0.7,0.2-1.2,0.6-1.5,1.1c-0.9,1.6-0.1,4.6,0,4.9c0.1,0.4,2.5,10.6,3.9,13.7
			C1023.2,626.9,1025.1,627.8,1027.3,627.2z" clip-rule="evenodd" class="color395068 svgShape"></path><path fill="#4F6C8C" fill-rule="evenodd" d="M1032.4,611.2l-10.6,2.8c-0.3-1.1-0.4-1.8-0.5-1.9c-0.1-0.3-0.9-3.2-0.3-4.8c0.2-0.5,0.5-0.9,1-1l0,0
			l5.6-1.6l0.2-0.1c1.1-0.3,2.6,0.2,3.5,2.5c0.3,0.8,0.7,2.3,1.2,4H1032.4z" clip-rule="evenodd" class="color4f6c8c svgShape"></path><path fill="#4086C5" fill-rule="evenodd" d="M1000.8,635.8c0.4-0.1,0.7-0.2,0.7-0.2l7.6-2l0.1-0.1c3-1.9,2.7-5.6,2.2-7.3c-0.1-0.5-3.2-12.7-4.5-15.7
			c-1-2.6-3.4-3-5.2-2.5l-0.4,0.1l-9.1,2.5l0,0c-0.8,0.2-1.3,0.6-1.7,1.3c-1.1,1.9-0.1,5.2,0,5.6c0.1,0.4,2.9,12,4.5,15.6
			C996.1,635.4,998.2,636.5,1000.8,635.8z" clip-rule="evenodd" class="color4086c5 svgShape"></path><path fill="#395068" fill-rule="evenodd" d="M1000.8,634.2c0.4-0.1,0.6-0.2,0.6-0.2l6.7-1.8l0.1-0.1c2.6-1.7,2.4-4.9,1.9-6.4c-0.1-0.4-2.8-11.1-3.9-13.8
			c-0.9-2.3-3-2.6-4.5-2.2l-0.3,0.1l-8,2.2l0,0c-0.7,0.2-1.2,0.6-1.5,1.1c-0.9,1.6-0.1,4.6,0,4.9c0.1,0.4,2.5,10.6,3.9,13.7
			C996.7,633.9,998.6,634.8,1000.8,634.2z" clip-rule="evenodd" class="color395068 svgShape"></path><path fill="#4F6C8C" fill-rule="evenodd" d="M1005.9,618.2l-10.6,2.8c-0.3-1.1-0.4-1.8-0.5-1.9c-0.1-0.3-0.9-3.2-0.3-4.8c0.2-0.5,0.5-0.9,1-1l0,0
			l5.6-1.6l0.2-0.1c1.1-0.3,2.6,0.2,3.5,2.5c0.3,0.8,0.7,2.3,1.2,4L1005.9,618.2z" clip-rule="evenodd" class="color4f6c8c svgShape"></path><path fill="#4086C5" fill-rule="evenodd" d="M974.3,642.8c0.4-0.1,0.7-0.2,0.7-0.2l7.6-2l0.1-0.1c3-1.9,2.7-5.6,2.2-7.3c-0.1-0.5-3.2-12.7-4.5-15.7
			c-1.1-2.6-3.4-3-5.2-2.5l-0.4,0.1l-9.1,2.5l0,0c-0.8,0.2-1.3,0.6-1.7,1.3c-1,1.9-0.1,5.2,0,5.6c0.1,0.4,2.9,12,4.5,15.6
			C969.6,642.5,971.7,643.5,974.3,642.8z" clip-rule="evenodd" class="color4086c5 svgShape"></path><path fill="#395068" fill-rule="evenodd" d="M974.3,641.2c0.4-0.1,0.6-0.2,0.6-0.2l6.7-1.8l0.1-0.1c2.6-1.7,2.4-4.9,1.9-6.4c-0.1-0.4-2.8-11.1-3.9-13.8
			c-0.9-2.3-3-2.6-4.5-2.2l-0.3,0.1l-8,2.2l0,0c-0.7,0.2-1.2,0.6-1.5,1.1c-0.9,1.6-0.1,4.6,0,4.9c0.1,0.4,2.5,10.6,3.9,13.7
			C970.2,640.9,972.1,641.8,974.3,641.2z" clip-rule="evenodd" class="color395068 svgShape"></path><path fill="#4F6C8C" fill-rule="evenodd" d="M979.4,625.2l-10.6,2.8c-0.3-1.1-0.4-1.8-0.5-1.9c-0.1-0.3-0.9-3.2-0.3-4.8c0.2-0.5,0.5-0.9,1-1l0,0l5.6-1.6
			l0.2-0.1c1.1-0.3,2.6,0.2,3.5,2.5c0.3,0.8,0.7,2.3,1.2,4L979.4,625.2z" clip-rule="evenodd" class="color4f6c8c svgShape"></path><path fill="#4086C5" fill-rule="evenodd" d="M947.7,649.8c0.4-0.1,0.7-0.2,0.7-0.2l7.6-2l0.1-0.1c3-1.9,2.7-5.6,2.2-7.3c-0.1-0.5-3.2-12.7-4.5-15.7
			c-1.1-2.6-3.4-3-5.2-2.5l-0.4,0.1l-9.1,2.5l0,0c-0.8,0.2-1.3,0.6-1.7,1.3c-1.1,1.9-0.1,5.2,0,5.6c0.1,0.4,2.9,12,4.5,15.6
			C943.1,649.5,945.2,650.5,947.7,649.8z" clip-rule="evenodd" class="color4086c5 svgShape"></path><path fill="#395068" fill-rule="evenodd" d="M947.8,648.2c0.4-0.1,0.6-0.2,0.6-0.2l6.7-1.8l0.1-0.1c2.6-1.7,2.4-4.9,1.9-6.4c-0.1-0.4-2.8-11.1-3.9-13.8
			c-0.9-2.3-3-2.6-4.5-2.2l-0.3,0.1l-8,2.2l0,0c-0.7,0.2-1.2,0.6-1.5,1.1c-0.9,1.6-0.1,4.6,0,4.9c0.1,0.4,2.5,10.6,3.9,13.7
			C943.7,647.9,945.6,648.8,947.8,648.2z" clip-rule="evenodd" class="color395068 svgShape"></path><path fill="#4F6C8C" fill-rule="evenodd" d="M952.9,632.2l-10.6,2.8c-0.3-1.1-0.4-1.8-0.5-1.9c-0.1-0.3-0.9-3.2-0.3-4.8c0.2-0.5,0.5-0.9,1-1l0,0l5.6-1.6
			l0.2-0.1c1.1-0.3,2.6,0.2,3.5,2.5c0.3,0.8,0.7,2.3,1.2,4L952.9,632.2z" clip-rule="evenodd" class="color4f6c8c svgShape"></path><path fill="#4086C5" fill-rule="evenodd" d="M921.2,656.8c0.4-0.1,0.7-0.2,0.7-0.2l7.6-2l0.1-0.1c3-1.9,2.7-5.6,2.2-7.3c-0.1-0.5-3.2-12.7-4.5-15.7
			c-1.1-2.6-3.4-3-5.2-2.5l-0.4,0.1l-9.1,2.5l0,0c-0.8,0.2-1.3,0.6-1.7,1.3c-1,1.9-0.1,5.2,0,5.6c0.1,0.4,2.9,12,4.5,15.6
			C916.6,656.5,918.7,657.5,921.2,656.8z" clip-rule="evenodd" class="color4086c5 svgShape"></path><path fill="#395068" fill-rule="evenodd" d="M921.3,655.3l0.6-0.2l6.7-1.8l0.1-0.1c2.6-1.7,2.4-4.9,1.9-6.4c-0.1-0.4-2.8-11.1-3.9-13.8
			c-0.9-2.3-3-2.6-4.5-2.2l-0.3,0.1l-8,2.2l0,0c-0.7,0.2-1.2,0.6-1.5,1.1c-0.9,1.6-0.1,4.6,0,4.9c0.1,0.4,2.5,10.6,3.9,13.7
			C917.2,654.9,919.1,655.8,921.3,655.3z" clip-rule="evenodd" class="color395068 svgShape"></path><path fill="#4F6C8C" fill-rule="evenodd" d="M926.4,639.2l-10.6,2.8c-0.3-1.1-0.4-1.8-0.5-1.9c-0.1-0.3-0.9-3.2-0.3-4.8c0.2-0.5,0.5-0.9,1-1l0,0l5.6-1.6
			l0.2-0.1c1.1-0.3,2.6,0.2,3.5,2.5c0.3,0.8,0.7,2.3,1.2,4H926.4z" clip-rule="evenodd" class="color4f6c8c svgShape"></path><path fill="#4086C5" fill-rule="evenodd" d="M894.7,663.9c0.4-0.1,0.7-0.2,0.7-0.2l7.6-2l0.1-0.1c3-1.9,2.7-5.6,2.2-7.3c-0.1-0.5-3.2-12.7-4.5-15.7
			c-1.1-2.6-3.4-3-5.2-2.5l-0.4,0.1l-9.1,2.5l0,0c-0.8,0.2-1.3,0.6-1.7,1.3c-1.1,1.9-0.1,5.2,0,5.6c0.1,0.4,2.9,12,4.5,15.6
			C890,663.5,892.2,664.5,894.7,663.9z" clip-rule="evenodd" class="color4086c5 svgShape"></path><path fill="#395068" fill-rule="evenodd" d="M894.8,662.3c0.4-0.1,0.6-0.2,0.6-0.2l6.7-1.8l0.1-0.1c2.6-1.7,2.4-4.9,1.9-6.4c-0.1-0.4-2.8-11.1-3.9-13.8
			c-0.9-2.3-3-2.6-4.5-2.2l-0.3,0.1l-8,2.2l0,0c-0.7,0.2-1.2,0.6-1.5,1.1c-0.9,1.6-0.1,4.6,0,4.9c0.1,0.4,2.5,10.6,3.9,13.7
			C890.7,662,892.5,662.9,894.8,662.3z" clip-rule="evenodd" class="color395068 svgShape"></path><path fill="#4F6C8C" fill-rule="evenodd" d="M899.9,646.3l-10.6,2.8c-0.3-1.1-0.4-1.8-0.5-1.9c-0.1-0.3-0.9-3.2-0.3-4.8c0.2-0.5,0.5-0.9,1-1l0,0l5.6-1.6
			l0.2-0.1c1.1-0.3,2.6,0.2,3.5,2.5c0.3,0.8,0.7,2.3,1.2,4L899.9,646.3z" clip-rule="evenodd" class="color4f6c8c svgShape"></path><path fill="#4086C5" fill-rule="evenodd" d="M868.2,670.9c0.4-0.1,0.7-0.2,0.7-0.2l7.6-2l0.1-0.1c2.9-1.9,2.7-5.6,2.2-7.3c-0.1-0.5-3.2-12.7-4.5-15.7
			c-1.1-2.6-3.4-3-5.2-2.5l-0.4,0.1l-9.1,2.5l0,0c-0.8,0.2-1.3,0.6-1.7,1.3c-1.1,1.9-0.1,5.2,0,5.6c0.1,0.4,2.9,12,4.5,15.6
			C863.5,670.5,865.7,671.5,868.2,670.9z" clip-rule="evenodd" class="color4086c5 svgShape"></path><path fill="#395068" fill-rule="evenodd" d="M868.3,669.3c0.4-0.1,0.6-0.2,0.6-0.2l6.7-1.8l0.1-0.1c2.6-1.7,2.4-4.9,1.9-6.4c-0.1-0.4-2.8-11.1-3.9-13.8
			c-0.9-2.3-3-2.6-4.5-2.2l-0.3,0.1l-8,2.2l0,0c-0.7,0.2-1.2,0.6-1.5,1.1c-0.9,1.6-0.1,4.6,0,4.9c0.1,0.4,2.5,10.6,3.9,13.7
			C864.2,669,866,669.9,868.3,669.3z" clip-rule="evenodd" class="color395068 svgShape"></path><path fill="#4F6C8C" fill-rule="evenodd" d="M873.4,653.3l-10.6,2.8c-0.3-1.1-0.4-1.8-0.5-1.9c-0.1-0.3-0.9-3.2-0.3-4.8c0.2-0.5,0.5-0.8,1-1l0,0l5.6-1.6
			l0.2-0.1c1.1-0.3,2.6,0.2,3.5,2.5c0.3,0.8,0.7,2.3,1.2,4L873.4,653.3z" clip-rule="evenodd" class="color4f6c8c svgShape"></path><path fill="#4086C5" fill-rule="evenodd" d="M841.7,677.9c0.4-0.1,0.7-0.2,0.7-0.2l7.6-2l0.1-0.1c3-1.9,2.7-5.6,2.2-7.3c-0.1-0.5-3.2-12.7-4.5-15.7
			c-1.1-2.6-3.4-3-5.2-2.5l-0.4,0.1l-9.1,2.5l0,0c-0.8,0.2-1.3,0.6-1.7,1.3c-1.1,1.9-0.1,5.2,0,5.6c0.1,0.4,2.9,12,4.5,15.6
			C837,677.6,839.2,678.6,841.7,677.9z" clip-rule="evenodd" class="color4086c5 svgShape"></path><path fill="#395068" fill-rule="evenodd" d="M841.8,676.3c0.4-0.1,0.6-0.2,0.6-0.2l6.7-1.7l0.1-0.1c2.6-1.7,2.4-4.9,1.9-6.4c-0.1-0.4-2.8-11.1-3.9-13.8
			c-0.9-2.3-3-2.6-4.6-2.2l-0.3,0.1l-8,2.2l0,0c-0.7,0.2-1.2,0.6-1.5,1.1c-0.9,1.6-0.1,4.6,0,4.9c0.1,0.4,2.5,10.6,3.9,13.7
			C837.6,676,839.5,676.9,841.8,676.3z" clip-rule="evenodd" class="color395068 svgShape"></path><path fill="#4F6C8C" fill-rule="evenodd" d="M846.9,660.3l-10.6,2.8c-0.3-1.1-0.4-1.8-0.5-1.9c-0.1-0.3-0.9-3.2-0.3-4.8c0.2-0.5,0.5-0.9,1-1l0,0l5.6-1.6
			l0.2-0.1c1.1-0.3,2.6,0.2,3.5,2.5c0.3,0.8,0.7,2.3,1.2,4L846.9,660.3z" clip-rule="evenodd" class="color4f6c8c svgShape"></path><path fill="#4086C5" fill-rule="evenodd" d="M815.2,684.9c0.4-0.1,0.7-0.2,0.7-0.2l7.6-2l0.1-0.1c3-1.9,2.7-5.6,2.2-7.3c-0.1-0.5-3.2-12.7-4.5-15.7
			c-1.1-2.6-3.4-3-5.2-2.5l-0.4,0.1l-9.1,2.5l0,0c-0.8,0.2-1.3,0.6-1.7,1.3c-1.1,1.9-0.1,5.2,0,5.6c0.1,0.4,2.9,12,4.5,15.6
			C810.5,684.6,812.7,685.6,815.2,684.9z" clip-rule="evenodd" class="color4086c5 svgShape"></path><path fill="#395068" fill-rule="evenodd" d="M815.2,683.3l0.6-0.2l6.7-1.8l0.1-0.1c2.6-1.7,2.4-4.9,1.9-6.4c-0.1-0.4-2.8-11.1-3.9-13.8
			c-0.9-2.3-3-2.6-4.5-2.2l-0.3,0.1l-8,2.2l0,0c-0.7,0.2-1.2,0.6-1.5,1.1c-0.9,1.6-0.1,4.6,0,4.9c0.1,0.4,2.5,10.6,3.9,13.7
			C811.1,683,813,683.9,815.2,683.3z" clip-rule="evenodd" class="color395068 svgShape"></path><path fill="#4F6C8C" fill-rule="evenodd" d="M820.3,667.3l-10.6,2.8c-0.3-1.1-0.4-1.8-0.5-1.9c-0.1-0.3-0.9-3.2-0.3-4.8c0.2-0.5,0.5-0.9,1-1h0l5.6-1.6
			l0.2-0.1c1.1-0.3,2.6,0.2,3.5,2.5c0.3,0.8,0.7,2.3,1.2,4H820.3z" clip-rule="evenodd" class="color4f6c8c svgShape"></path><path fill="#4086C5" fill-rule="evenodd" d="M788.7,691.9c0.4-0.1,0.7-0.2,0.7-0.2l7.6-2l0.1-0.1c3-1.9,2.7-5.6,2.2-7.3c-0.1-0.5-3.2-12.7-4.5-15.7
			c-1.1-2.6-3.4-3-5.2-2.5l-0.4,0.1l-9.1,2.5l0,0c-0.8,0.2-1.3,0.6-1.7,1.3c-1.1,1.9-0.1,5.2,0,5.6c0.1,0.4,2.9,12,4.5,15.6
			C784,691.6,786.1,692.6,788.7,691.9z" clip-rule="evenodd" class="color4086c5 svgShape"></path><path fill="#395068" fill-rule="evenodd" d="M788.7,690.4c0.4-0.1,0.6-0.2,0.6-0.2l6.7-1.8l0.1-0.1c2.6-1.7,2.4-4.9,1.9-6.4c-0.1-0.4-2.8-11.1-3.9-13.8
			c-0.9-2.3-2.9-2.6-4.5-2.2l-0.3,0.1l-8,2.2l0,0c-0.7,0.2-1.1,0.6-1.5,1.1c-0.9,1.6-0.1,4.6,0,4.9c0.1,0.4,2.5,10.6,3.9,13.7
			C784.6,690,786.5,690.9,788.7,690.4z" clip-rule="evenodd" class="color395068 svgShape"></path><path fill="#4F6C8C" fill-rule="evenodd" d="M793.8,674.3l-10.6,2.8c-0.3-1.1-0.4-1.8-0.5-1.9c-0.1-0.3-0.9-3.2-0.3-4.8c0.2-0.5,0.5-0.9,1-1l0,0l5.6-1.6
			l0.2-0.1c1.1-0.3,2.6,0.2,3.5,2.5c0.3,0.8,0.7,2.3,1.2,4L793.8,674.3z" clip-rule="evenodd" class="color4f6c8c svgShape"></path><path fill="#4086C5" fill-rule="evenodd" d="M762.2,699c0.4-0.1,0.7-0.2,0.7-0.2l7.6-2l0.1-0.1c3-1.9,2.7-5.6,2.2-7.3c-0.1-0.5-3.2-12.7-4.5-15.7
			c-1.1-2.6-3.4-3-5.2-2.5l-0.4,0.1l-9.1,2.5l0,0c-0.8,0.2-1.3,0.6-1.7,1.3c-1,1.9-0.1,5.2,0,5.6c0.1,0.4,2.9,12,4.5,15.6
			C757.5,698.6,759.6,699.6,762.2,699z" clip-rule="evenodd" class="color4086c5 svgShape"></path><path fill="#395068" fill-rule="evenodd" d="M762.2,697.4c0.4-0.1,0.6-0.2,0.6-0.2l6.7-1.8l0.1-0.1c2.6-1.7,2.4-4.9,1.9-6.4c-0.1-0.4-2.8-11.1-3.9-13.8
			c-0.9-2.3-2.9-2.6-4.5-2.2l-0.3,0.1l-8,2.2l0,0c-0.7,0.2-1.2,0.6-1.5,1.1c-0.9,1.6-0.1,4.6,0,4.9c0.1,0.4,2.5,10.6,3.9,13.7
			C758.1,697.1,760,698,762.2,697.4z" clip-rule="evenodd" class="color395068 svgShape"></path><path fill="#4F6C8C" fill-rule="evenodd" d="M767.3,681.4l-10.6,2.8c-0.3-1.1-0.4-1.8-0.5-1.9c-0.1-0.3-0.9-3.2-0.3-4.8c0.2-0.5,0.5-0.9,1-1l0,0l5.6-1.6
			l0.2-0.1c1.1-0.3,2.6,0.2,3.5,2.5c0.3,0.8,0.7,2.3,1.2,4L767.3,681.4z" clip-rule="evenodd" class="color4f6c8c svgShape"></path><path fill="#4086C5" fill-rule="evenodd" d="M735.7,706c0.4-0.1,0.7-0.2,0.7-0.2l7.6-2l0.1-0.1c3-1.9,2.7-5.6,2.2-7.3c-0.1-0.5-3.2-12.7-4.5-15.7
			c-1.1-2.6-3.4-3-5.2-2.5l-0.4,0.1l-9.1,2.5l0,0c-0.8,0.2-1.3,0.6-1.7,1.3c-1.1,1.9-0.1,5.2,0,5.6c0.1,0.4,2.9,12,4.5,15.6
			C731,705.6,733.1,706.6,735.7,706z" clip-rule="evenodd" class="color4086c5 svgShape"></path><path fill="#395068" fill-rule="evenodd" d="M735.7,704.4l0.6-0.2l6.7-1.7l0.1-0.1c2.6-1.7,2.4-4.9,1.9-6.4c-0.1-0.4-2.8-11.1-3.9-13.8
			c-0.9-2.3-3-2.6-4.5-2.2l-0.3,0.1l-7.9,2.2l0,0c-0.7,0.2-1.2,0.6-1.5,1.1c-0.9,1.6-0.1,4.6,0,4.9c0.1,0.4,2.5,10.6,3.9,13.7
			C731.6,704.1,733.5,705,735.7,704.4z" clip-rule="evenodd" class="color395068 svgShape"></path><path fill="#4F6C8C" fill-rule="evenodd" d="M740.8,688.4l-10.6,2.8c-0.3-1.1-0.4-1.8-0.5-1.9c-0.1-0.3-0.9-3.2-0.3-4.8c0.2-0.5,0.5-0.9,1-1l0,0l5.6-1.6
			l0.2-0.1c1.1-0.3,2.6,0.2,3.5,2.5c0.3,0.8,0.8,2.3,1.2,4L740.8,688.4z" clip-rule="evenodd" class="color4f6c8c svgShape"></path><path fill="#4086C5" fill-rule="evenodd" d="M709.1,713c0.4-0.1,0.7-0.2,0.7-0.2l7.6-2l0.1-0.1c3-1.9,2.7-5.6,2.2-7.3c-0.1-0.5-3.2-12.7-4.5-15.7
			c-1.1-2.6-3.4-3-5.2-2.5l-0.4,0.1l-9.1,2.5l0,0c-0.8,0.2-1.3,0.6-1.7,1.3c-1.1,1.9-0.1,5.2,0,5.6c0.1,0.4,2.9,12,4.5,15.6
			C704.5,712.6,706.6,713.7,709.1,713z" clip-rule="evenodd" class="color4086c5 svgShape"></path><path fill="#395068" fill-rule="evenodd" d="M709.2,711.4c0.4-0.1,0.6-0.2,0.6-0.2l6.7-1.8l0.1-0.1c2.6-1.7,2.4-4.9,1.9-6.4c-0.1-0.4-2.8-11.1-3.9-13.8
			c-0.9-2.3-3-2.6-4.5-2.2l-0.3,0.1l-8,2.2l0,0c-0.7,0.2-1.2,0.6-1.5,1.1c-0.9,1.6-0.1,4.6,0,4.9c0.1,0.4,2.5,10.6,3.9,13.7
			C705.1,711.1,707,712,709.2,711.4z" clip-rule="evenodd" class="color395068 svgShape"></path><path fill="#4F6C8C" fill-rule="evenodd" d="M714.3,695.4l-10.6,2.8c-0.3-1.1-0.4-1.8-0.5-1.9c-0.1-0.3-0.9-3.2-0.3-4.8c0.2-0.5,0.5-0.9,1-1l0,0l5.6-1.6
			l0.2-0.1c1.1-0.3,2.6,0.2,3.5,2.5c0.3,0.8,0.7,2.3,1.2,4L714.3,695.4z" clip-rule="evenodd" class="color4f6c8c svgShape"></path><path fill="#2C74B9" fill-rule="evenodd" d="M930.2,762.9C930.2,762.9,930.2,762.9,930.2,762.9C765.4,789,642.7,797,621.5,796.1
			C642.7,797,765.4,789,930.2,762.9L930.2,762.9z M621.5,796.1C621.5,796.1,621.5,796.1,621.5,796.1
			C621.5,796.1,621.5,796.1,621.5,796.1L621.5,796.1z M621.5,796.1c0,0-0.1,0-0.1,0C621.4,796.1,621.5,796.1,621.5,796.1
			L621.5,796.1z M621.3,796.1L621.3,796.1C621.3,796.1,621.3,796.1,621.3,796.1L621.3,796.1z M621.3,796.1L621.3,796.1L621.3,796.1
			L621.3,796.1z M621.3,796.1L621.3,796.1L621.3,796.1L621.3,796.1z M621.2,796.1L621.2,796.1L621.2,796.1L621.2,796.1z
			 M621.2,796.1C621.2,796.1,621.2,796.1,621.2,796.1C621.2,796.1,621.2,796.1,621.2,796.1L621.2,796.1z M621.2,796.1L621.2,796.1
			C621.2,796.1,621.1,796.1,621.2,796.1C621.1,796.1,621.2,796.1,621.2,796.1z" clip-rule="evenodd" class="color2c74b9 svgShape"></path><path fill="#2C6FB0" fill-rule="evenodd" d="M621.2,796.1C621.2,796.1,621.1,796.1,621.2,796.1L621.2,796.1C621.1,796.1,621.2,796.1,621.2,796.1z" clip-rule="evenodd" class="color2c6fb0 svgShape"></path><path fill="#2C74B9" fill-rule="evenodd" d="M621.1,796.1C621.1,796.1,621.1,796.1,621.1,796.1C621.1,796.1,621.1,796.1,621.1,796.1L621.1,796.1z
			 M621.1,796.1L621.1,796.1C621.1,796.1,621.1,796.1,621.1,796.1C621.1,796.1,621.1,796.1,621.1,796.1z" clip-rule="evenodd" class="color2c74b9 svgShape"></path><polygon fill="#2C6FB0" fill-rule="evenodd" points="621.1 796.1 621.1 796.1 621.1 796.1" clip-rule="evenodd" class="color2c6fb0 svgShape"></polygon><path fill="#2C74B9" fill-rule="evenodd" d="M621.1,796.1C621.1,796.1,621.1,796.1,621.1,796.1C621.1,796.1,621.1,796.1,621.1,796.1L621.1,796.1z
			 M621,796.1C621,796.1,621,796.1,621,796.1C621,796.1,621,796.1,621,796.1L621,796.1z M621,796.1C621,796.1,621,796.1,621,796.1
			C621,796.1,621,796.1,621,796.1z" clip-rule="evenodd" class="color2c74b9 svgShape"></path><path fill="#2C6FB0" fill-rule="evenodd" d="M621,796.1C621,796.1,621,796.1,621,796.1L621,796.1C621,796.1,621,796.1,621,796.1L621,796.1z" clip-rule="evenodd" class="color2c6fb0 svgShape"></path><path fill="#2C74B9" fill-rule="evenodd" d="M620.9,796.1C620.9,796.1,620.9,796.1,620.9,796.1C620.9,796.1,620.9,796.1,620.9,796.1z" clip-rule="evenodd" class="color2c74b9 svgShape"></path><path fill="#2C6FB0" fill-rule="evenodd" d="M620.9,796.1C620.9,796.1,620.9,796.1,620.9,796.1L620.9,796.1C620.9,796.1,620.9,796.1,620.9,796.1
			C620.9,796.1,620.9,796.1,620.9,796.1z" clip-rule="evenodd" class="color2c6fb0 svgShape"></path><path fill="#2C74B9" fill-rule="evenodd" d="M525.2,774.5L525.2,774.5C525.2,774.5,525.2,774.4,525.2,774.5C525.2,774.4,525.2,774.5,525.2,774.5
			L525.2,774.5z M525.2,774.4c-0.4-0.2-0.8-0.4-1.2-0.5C524.4,774.1,524.8,774.3,525.2,774.4L525.2,774.4z M523.9,773.9
			C523.9,773.9,523.9,773.9,523.9,773.9C523.9,773.9,523.9,773.9,523.9,773.9z" clip-rule="evenodd" class="color2c74b9 svgShape"></path><path fill="#2C6FB0" fill-rule="evenodd" d="M525.2,774.5c-2.4-1-4.6-2.4-6.7-4.1c1.7,1.4,3.5,2.5,5.4,3.5c0,0,0,0,0,0c0,0,0,0,0,0
			C524.4,774.1,524.8,774.3,525.2,774.5L525.2,774.5C525.2,774.4,525.2,774.5,525.2,774.5z" clip-rule="evenodd" class="color2c6fb0 svgShape"></path><path fill="#EFF9FC" fill-rule="evenodd" d="M1339.4 494.3c0 0-36.3-11.7-81.8-2.7-3.6.7-9 2-16 3.9-81.8 21.7-376.1 115-376.1 115l390.2-109.1c0 0 .8-.3 2.3-.7 5.2-1.4 18.2-3.5 28.1 6.4L1339.4 494.3zM1421.1 590.8c21.9-7 50.5-18.4 62.3-34.7-.1-.5-.3-.7-.3-.7-14.2-21.9-53-22.7-53-22.7-16.9 8.8-15.8 32.9-10.8 54C1419.9 588.1 1420.5 589.5 1421.1 590.8z" clip-rule="evenodd" class="coloreff9fc svgShape"></path><path fill="#81B0D5" fill-rule="evenodd" d="M1427.7,602.4c17.5-9.5,35.1-20.3,48.6-34.7c2.7-2.9,5.3-6.2,7.4-9.6c-0.1-0.9-0.2-1.5-0.3-1.9
			c-11.8,16.3-40.4,27.7-62.3,34.7C1422.9,594.9,1425.1,598.8,1427.7,602.4z" clip-rule="evenodd" class="color81b0d5 svgShape"></path><path fill="#EAEAEA" fill-rule="evenodd" d="M1263.4,693.4L1263.4,693.4L1263.4,693.4L1263.4,693.4z M1263.3,693.4c-10.2,2.7-20.3,5.3-30.5,7.9
			c-0.1,0-0.1,0-0.2,0C1242.9,698.7,1253.1,696.1,1263.3,693.4L1263.3,693.4z M1228.7,702.3L1228.7,702.3
			c-33.9,8.5-67.4,16.3-100.4,23.5l0,0C1161.3,718.6,1194.8,710.8,1228.7,702.3z" clip-rule="evenodd" class="coloreaeaea svgShape"></path><path fill="#C3DFFA" fill-rule="evenodd" d="M1263.4,693.4L1263.4,693.4c12.1-3.2,24.3-6.5,36.5-9.9C1287.7,686.8,1275.5,690.1,1263.4,693.4
			c-10.2,2.7-20.3,5.3-30.5,7.9C1243,698.7,1253.2,696.1,1263.4,693.4L1263.4,693.4L1263.4,693.4z M1228.7,702.3
			c-30.7,3.5-61.6,4-92.5,1.1c-5.9-0.6-11.9-1.2-17.8-1.8c3.3,6.2,6.7,14.5,9.9,24.3C1161.3,718.6,1194.8,710.8,1228.7,702.3
			L1228.7,702.3z M931.7,760.3c13.5-23.6,24.3-42.7,24.3-42.7s1.4-2,3.8-4.8c-3.8,3.4-7.6,6.9-11.8,9.8c-7.1,5.1-15,8.3-23.2,10.5
			c-11.4,3-23.4,4-35.1,4.8c-24.3,1.7-48.5,4.7-72.7,7.6c-22.2,2.7-44.5,5.3-66.7,7.9c-16.4,1.9-34.3,5.4-50.7,2.7
			c-16.6-2.7-29.9-13.6-46.6-16.5c-18.1-3.1-36.7,1.4-54.6,3.6c-24.5,3-49,5-73.6,6.9c-5.5,2.2-11,4.4-16.5,6.7
			c-0.6-1.3-1-2.6-1.3-3.9c1.4,5.8,5.7,12.8,11.7,17.6c-4.5-3.6-8-8.4-10.1-13c10.2,4.7,21.4,7.4,32.3,9.5c0.2,0,0.4,0.1,0.6,0.1
			c0.2-0.2,0.2-0.2,0.2-0.2c0,0,8-7,16.9-9.4c1.4-0.4,2.9-0.6,4.3-0.7l84.6-12.7c0,0,5.1-0.5,10.4,1.2c2.3,0.6,4.4,1.5,5.7,2.8
			c0.1,0.1,0.2,0.2,0.3,0.2c4.4,3.5,8.5,11.8,3,17.1c-2.5,2.4-10.6,7.5-21.5,13.7c43.8,1.9,87.4-1.5,131.2-5.6
			C828.2,768.6,880,765.2,931.7,760.3L931.7,760.3z M989.1,693.8l20.2-5.4c-1.4-0.1-2.7-0.2-4.1-0.3
			C999.9,689.8,994.5,691.6,989.1,693.8z" clip-rule="evenodd" class="colorc3dffa svgShape"></path><path fill="#61A0E0" fill-rule="evenodd" d="M1263.4,693.4c12.1-3.2,24.3-6.5,36.4-9.9c12.7-3.6,25.5-7.2,38.3-11l0,0c96.7-28.6,154.3-93.2,148.1-116.6
			c0,0,0,0,0,0l0,0c-0.1-0.5-0.3-0.9-0.5-1.4c-0.6,1.2-1.2,2.4-2,3.6c0.4,6.1-2.9,23.3-41.3,57c-4.8-2.5-9.3-5.5-12.9-10.2
			c-0.6-0.8-1.2-1.6-1.8-2.5c-3.5,1.9-6.9,3.7-10.3,5.5c-40,21.2-82.3,38.1-124.8,53.7c-22.8,8.4-45.8,17.7-69.4,23.9
			c-17.9,4.7-36.1,7.7-54.8,7.3c-14.8-0.3-12.6-12.7-20.9-21.5c-2.7-2.9-6-4.7-9.6-5.9c0,0.1,0.1,0.3,0.1,0.4c0.6,2.2,0,5.1-2.1,8.9
			c-2.3,4.1-9.5,12.3-19.5,22.7c0.7,1.2,1.5,2.5,2.2,3.9c5.9,0.7,11.9,1.3,17.8,1.8c30.8,2.9,61.8,2.4,92.5-1.1l0,0
			c1.3-0.3,2.7-0.7,4-1c0.1,0,0.1,0,0.2,0C1243,698.7,1253.2,696.1,1263.4,693.4L1263.4,693.4z M1009.3,688.4l65.8-17.4
			c-15.5,2.8-30.9,6-46.1,10.1c-7.4,2-14.8,4.1-22.1,6.5c-0.6,0.2-1.2,0.4-1.7,0.6C1006.7,688.2,1008,688.3,1009.3,688.4
			L1009.3,688.4z M508.2,756.7c5.5-2.3,11.1-4.5,16.5-6.7c-6,0.5-12.1,0.9-18.1,1.4c0.1,0.5,0.2,0.9,0.3,1.4
			C507.1,754.1,507.6,755.4,508.2,756.7z" clip-rule="evenodd" class="color61a0e0 svgShape"></path><path fill="#EAEAEA" fill-rule="evenodd" d="M621.5,796.1C621.5,796.1,621.5,796.1,621.5,796.1C621.5,796.1,621.5,796.1,621.5,796.1L621.5,796.1z
			 M621.5,796.1C621.5,796.1,621.5,796.1,621.5,796.1L621.5,796.1L621.5,796.1z M621.4,796.1C621.4,796.1,621.4,796.1,621.4,796.1
			C621.4,796.1,621.4,796.1,621.4,796.1C621.4,796.1,621.4,796.1,621.4,796.1C621.4,796.1,621.4,796.1,621.4,796.1z" clip-rule="evenodd" class="coloreaeaea svgShape"></path><path fill="#D7D8DA" fill-rule="evenodd" d="M621.4,796.1C621.4,796.1,621.4,796.1,621.4,796.1C621.4,796.1,621.4,796.1,621.4,796.1z" clip-rule="evenodd" class="colord7d8da svgShape"></path><path fill="#EAEAEA" fill-rule="evenodd" d="M621.3,796.1C621.3,796.1,621.3,796.1,621.3,796.1C621.3,796.1,621.3,796.1,621.3,796.1
			C621.3,796.1,621.3,796.1,621.3,796.1C621.3,796.1,621.3,796.1,621.3,796.1z" clip-rule="evenodd" class="coloreaeaea svgShape"></path><path fill="#D7D8DA" fill-rule="evenodd" d="M621.3,796.1C621.3,796.1,621.3,796.1,621.3,796.1C621.3,796.1,621.3,796.1,621.3,796.1z" clip-rule="evenodd" class="colord7d8da svgShape"></path><path fill="#EAEAEA" fill-rule="evenodd" d="M621.3,796.1L621.3,796.1C621.3,796.1,621.3,796.1,621.3,796.1C621.3,796.1,621.3,796.1,621.3,796.1
			C621.3,796.1,621.3,796.1,621.3,796.1z" clip-rule="evenodd" class="coloreaeaea svgShape"></path><path fill="#D7D8DA" fill-rule="evenodd" d="M621.3,796.1C621.3,796.1,621.3,796.1,621.3,796.1C621.3,796.1,621.3,796.1,621.3,796.1z" clip-rule="evenodd" class="colord7d8da svgShape"></path><path fill="#EAEAEA" fill-rule="evenodd" d="M621.3,796.1L621.3,796.1C621.3,796.1,621.3,796.1,621.3,796.1C621.3,796.1,621.3,796.1,621.3,796.1
			C621.3,796.1,621.3,796.1,621.3,796.1z" clip-rule="evenodd" class="coloreaeaea svgShape"></path><path fill="#D7D8DA" fill-rule="evenodd" d="M621.3,796.1C621.3,796.1,621.3,796.1,621.3,796.1C621.3,796.1,621.3,796.1,621.3,796.1z" clip-rule="evenodd" class="colord7d8da svgShape"></path><path fill="#EAEAEA" fill-rule="evenodd" d="M621.2,796.1C621.2,796.1,621.2,796.1,621.2,796.1C621.2,796.1,621.2,796.1,621.2,796.1L621.2,796.1
			C621.2,796.1,621.2,796.1,621.2,796.1z" clip-rule="evenodd" class="coloreaeaea svgShape"></path><path fill="#D7D8DA" fill-rule="evenodd" d="M621.2,796.1C621.2,796.1,621.2,796.1,621.2,796.1C621.2,796.1,621.2,796.1,621.2,796.1z" clip-rule="evenodd" class="colord7d8da svgShape"></path><path fill="#EAEAEA" fill-rule="evenodd" d="M621.2,796.1L621.2,796.1C621.2,796.1,621.2,796.1,621.2,796.1C621.2,796.1,621.2,796.1,621.2,796.1
			C621.2,796.1,621.2,796.1,621.2,796.1L621.2,796.1C621.2,796.1,621.2,796.1,621.2,796.1z" clip-rule="evenodd" class="coloreaeaea svgShape"></path><path fill="#D7D8DA" fill-rule="evenodd" d="M621.2,796.1C621.2,796.1,621.2,796.1,621.2,796.1C621.2,796.1,621.2,796.1,621.2,796.1L621.2,796.1z
			 M621.2,796.1C621.2,796.1,621.2,796.1,621.2,796.1C621.2,796.1,621.2,796.1,621.2,796.1z" clip-rule="evenodd" class="colord7d8da svgShape"></path><path fill="#EAEAEA" fill-rule="evenodd" d="M621.1,796.1L621.1,796.1C621.1,796.1,621.1,796.1,621.1,796.1L621.1,796.1
			C621.1,796.1,621.1,796.1,621.1,796.1z" clip-rule="evenodd" class="coloreaeaea svgShape"></path><path fill="#D7D8DA" fill-rule="evenodd" d="M621.1,796.1C621.1,796.1,621.1,796.1,621.1,796.1C621.1,796.1,621.1,796.1,621.1,796.1z" clip-rule="evenodd" class="colord7d8da svgShape"></path><path fill="#EAEAEA" fill-rule="evenodd" d="M621.1,796.1C621.1,796.1,621.1,796.1,621.1,796.1C621.1,796.1,621.1,796.1,621.1,796.1z" clip-rule="evenodd" class="coloreaeaea svgShape"></path><path fill="#D7D8DA" fill-rule="evenodd" d="M621.1,796.1C621.1,796.1,621.1,796.1,621.1,796.1C621.1,796.1,621.1,796.1,621.1,796.1
			C621.1,796.1,621.1,796.1,621.1,796.1z" clip-rule="evenodd" class="colord7d8da svgShape"></path><path fill="#EAEAEA" fill-rule="evenodd" d="M621.1,796.1C621,796.1,621.1,796.1,621.1,796.1C621,796.1,621,796.1,621.1,796.1L621.1,796.1
			C621,796.1,621,796.1,621.1,796.1z" clip-rule="evenodd" class="coloreaeaea svgShape"></path><path fill="#D7D8DA" fill-rule="evenodd" d="M621.1,796.1C621,796.1,621,796.1,621.1,796.1C621,796.1,621,796.1,621.1,796.1z" clip-rule="evenodd" class="colord7d8da svgShape"></path><path fill="#EAEAEA" fill-rule="evenodd" d="M621,796.1L621,796.1C621,796.1,621,796.1,621,796.1C621,796.1,621,796.1,621,796.1L621,796.1z M621,796.1
			L621,796.1L621,796.1z" clip-rule="evenodd" class="coloreaeaea svgShape"></path><path fill="#D7D8DA" fill-rule="evenodd" d="M621 796.1C621 796.1 621 796.1 621 796.1L621 796.1 621 796.1C621 796.1 621 796.1 621 796.1 621 796.1 621 796.1 621 796.1L621 796.1zM621 796.1C620.9 796.1 620.9 796.1 621 796.1 620.9 796.1 620.9 796.1 621 796.1zM620.9 796.1C620.9 796.1 620.9 796.1 620.9 796.1L620.9 796.1C620.9 796.1 620.9 796.1 620.9 796.1z" clip-rule="evenodd" class="colord7d8da svgShape"></path><path fill="#2C6FB0" fill-rule="evenodd" d="M930.2,762.9L930.2,762.9C765,789,642.1,797.1,621.4,796.1c0,0,0,0,0,0c0,0,0.1,0,0.1,0c0,0,0,0,0,0
			c0,0,0,0,0,0c0,0,0,0,0,0C642.7,797,765.4,789,930.2,762.9L930.2,762.9z M621.4,796.1C621.4,796.1,621.3,796.1,621.4,796.1
			C621.3,796.1,621.3,796.1,621.4,796.1L621.4,796.1C621.4,796.1,621.4,796.1,621.4,796.1L621.4,796.1z M621.3,796.1
			C621.3,796.1,621.3,796.1,621.3,796.1L621.3,796.1L621.3,796.1C621.3,796.1,621.3,796.1,621.3,796.1L621.3,796.1z M621.3,796.1
			C621.3,796.1,621.3,796.1,621.3,796.1L621.3,796.1L621.3,796.1C621.3,796.1,621.3,796.1,621.3,796.1L621.3,796.1z M621.3,796.1
			C621.2,796.1,621.2,796.1,621.3,796.1C621.2,796.1,621.2,796.1,621.3,796.1L621.3,796.1C621.3,796.1,621.3,796.1,621.3,796.1
			L621.3,796.1z M621.2,796.1C621.2,796.1,621.2,796.1,621.2,796.1L621.2,796.1C621.2,796.1,621.2,796.1,621.2,796.1L621.2,796.1
			L621.2,796.1z M621.2,796.1C621.2,796.1,621.2,796.1,621.2,796.1C621.2,796.1,621.2,796.1,621.2,796.1L621.2,796.1z M621.2,796.1
			L621.2,796.1L621.2,796.1L621.2,796.1L621.2,796.1z M621.1,796.1C621.1,796.1,621.1,796.1,621.1,796.1L621.1,796.1
			C621.1,796.1,621.1,796.1,621.1,796.1L621.1,796.1L621.1,796.1z M621.1,796.1L621.1,796.1L621.1,796.1L621.1,796.1L621.1,796.1z
			 M621.1,796.1C621.1,796.1,621.1,796.1,621.1,796.1L621.1,796.1C621.1,796.1,621.1,796.1,621.1,796.1L621.1,796.1z M621,796.1
			C621,796.1,621,796.1,621,796.1L621,796.1C621,796.1,621,796.1,621,796.1L621,796.1z" clip-rule="evenodd" class="color2c6fb0 svgShape"></path><path fill="#61A0E0" fill-rule="evenodd" d="M930.2,762.9c0.5-0.9,1-1.7,1.5-2.6c-51.7,4.9-103.4,8.3-155.1,13.2c-43.8,4.1-87.4,7.5-131.2,5.6
			c-8.8,5-19.4,10.9-30.1,16.7c1.8,0.1,3.7,0.3,5.7,0.4l0,0c0,0,0,0,0,0c0,0,0,0,0,0c0,0,0,0,0,0c0,0,0,0,0,0c0,0,0,0,0.1,0
			c0,0,0,0,0,0c0,0,0,0,0,0c0,0,0,0,0,0c0,0,0,0,0,0h0h0c0,0,0,0,0,0c0,0,0,0,0,0c0,0,0,0,0,0c0,0,0,0,0,0h0c0,0,0,0,0,0
			c0,0,0,0,0,0c0,0,0,0,0,0c0,0,0,0,0,0c0,0,0,0,0,0c0,0,0,0,0,0c0,0,0,0,0,0c0,0,0,0,0,0c0,0,0,0,0,0c0,0,0,0,0,0c0,0,0,0,0,0
			c0,0,0,0,0,0c0,0,0,0,0,0C642.1,797.1,765,789,930.2,762.9L930.2,762.9z M532.1,776.8c4.9-5.2,8.3-8.8,9.3-9.8
			c-0.2,0-0.4-0.1-0.6-0.1c-10.9-2-22.1-4.8-32.3-9.5c2.1,4.6,5.6,9.4,10.1,13c2.1,1.7,4.3,3.1,6.7,4.1l0,0
			C526,774.8,528.6,775.6,532.1,776.8z" clip-rule="evenodd" class="color61a0e0 svgShape"></path><path fill="#7CA7C8" fill-rule="evenodd" d="M1442.5,615.1c38.3-33.7,41.7-51,41.3-57c-2.1,3.4-4.7,6.7-7.4,9.6c-13.5,14.4-31.1,25.2-48.6,34.7
			c0.6,0.8,1.2,1.6,1.8,2.5C1433.2,609.6,1437.7,612.6,1442.5,615.1z" clip-rule="evenodd" class="color7ca7c8 svgShape"></path><path fill="#C3DFFA" fill-rule="evenodd" d="M1011.7,723.8c0,0,58.8-25.1,96.2-33.2l22.4,93.4l0.2,0.3l4.7,9.4c0,0-44,12.1-101.3,14
			c-5.1,1.4-16.1-14.4-22.2-37.5C1005.6,746.9,1006.6,725.1,1011.7,723.8z" clip-rule="evenodd" class="colorc3dffa svgShape"></path><path fill="#A4D0FC" fill-rule="evenodd" d="M1071.6 759.5c10.4-3.3 20.9-6 31.4-9.1 3-.9 5.9-1.9 8.9-2.9-.2-.9-.5-1.8-.7-2.7-3.5-13.3-5.7-25.8-6.4-35.4-10.9 11-23.7 23.4-36.5 35.8L1071.6 759.5zM1134.8 793.8c.3-.1.5-.1.5-.1l0 0v0c-1.9.4-4.4-1.6-7-5.6-5.7 1.4-11.4 3.1-17.2 3.9-10.2 1.5-20.4 3-30.5 4.5l1.7 7.2C1111.3 799.8 1131.5 794.6 1134.8 793.8z" clip-rule="evenodd" class="colora4d0fc svgShape"></path><path fill="#EFF9FC" fill-rule="evenodd" d="M1111.1,744.8c7.5,28.5,18.4,50.3,24.2,48.8c5.8-1.5,4.5-25.9-3.1-54.4c-7.5-28.5-18.4-50.3-24.2-48.7
			C1102.2,692.1,1103.6,716.4,1111.1,744.8z" clip-rule="evenodd" class="coloreff9fc svgShape"></path><path fill="#4086C5" fill-rule="evenodd" d="M1112,708.1c0.2-1.6,0.7-2.6,1.3-2.8c3.1-0.8,9.8,14.5,15,34.2c5.2,19.7,6.9,36.3,3.8,37.1
			c-0.8,0.2-1.8-0.7-3-2.4c0.8-5.6-1.1-19-5.2-34.3C1120.1,725.3,1115.4,713.1,1112,708.1z" clip-rule="evenodd" class="color4086c5 svgShape"></path><path fill="#4086C5" fill-rule="evenodd" d="M1112,708.1c3.4,5,8.1,17.1,12,31.7c4.1,15.3,6,28.7,5.2,34.3c-3.4-5-8.1-17.1-12-31.7
			C1113.1,727.2,1111.2,713.7,1112,708.1z" clip-rule="evenodd" class="color4086c5 svgShape"></path><path fill="#C3DFFA" fill-rule="evenodd" d="M986.2,770.4c0,0,49.7-21.2,81.3-28.1l18.9,78.9l0.2,0.2l4,7.9l0,0l-0.9,0.2c-6.1,1.6-40.8,10.1-84.6,11.6
			c-4.4,1.2-13.6-12.2-18.8-31.7C981,790,981.8,771.6,986.2,770.4z" clip-rule="evenodd" class="colorc3dffa svgShape"></path><path fill="#A4D0FC" fill-rule="evenodd" d="M990.5,818c12.7-5.4,25.7-10,38.7-14.8c11.2-4.1,22.7-6.9,34.1-10.2c5.2-1.5,10.1-3.5,15.1-5l-10.2-42.7
			c-36.9,35.5-75,70.5-75,70.5S992.2,816.6,990.5,818z" clip-rule="evenodd" class="colora4d0fc svgShape"></path><path fill="#C2D1D0" fill-rule="evenodd" d="M1090.5,829.5l-2.7-5.5c0,0,0,0,0,0L1090.5,829.5L1090.5,829.5z M1004.9,841.3L1004.9,841.3L1004.9,841.3z" clip-rule="evenodd" class="colorc2d1d0 svgShape"></path><path fill="#A4D0FC" fill-rule="evenodd" d="M1090.4,829.5L1090.4,829.5l-2.7-5.5c-5.9,1.4-11.7,3.2-17.8,4.1c-9,1.3-18,2.6-27,4
			c-14.7,2.2-29.5,3.4-44.3,5.3c2.4,2.9,4.6,4.4,6.1,4h0c0,0,0,0,0,0l0,0c44-1.5,78.6-10,84.7-11.6L1090.4,829.5L1090.4,829.5z
			 M1090.5,829.5" clip-rule="evenodd" class="colora4d0fc svgShape"></path><path fill="#EFF9FC" fill-rule="evenodd" d="M1070.2,788.2c6.4,24.1,15.5,42.5,20.5,41.2c4.9-1.3,3.8-21.8-2.6-45.9c-6.4-24-15.5-42.5-20.5-41.2
			C1062.6,743.6,1063.8,764.2,1070.2,788.2z" clip-rule="evenodd" class="coloreff9fc svgShape"></path><path fill="#4086C5" fill-rule="evenodd" d="M1070.9,757.2c0.2-1.3,0.6-2.2,1.1-2.3c2.6-0.7,8.3,12.2,12.7,28.9c4.4,16.6,5.9,30.7,3.3,31.4
			c-0.7,0.2-1.6-0.6-2.6-2c0.7-4.7-1-16.1-4.4-29C1077.7,771.7,1073.8,761.4,1070.9,757.2z" clip-rule="evenodd" class="color4086c5 svgShape"></path><path fill="#4086C5" fill-rule="evenodd" d="M1070.9,757.2c2.9,4.2,6.9,14.5,10.1,26.8c3.4,13,5.1,24.3,4.4,29c-2.9-4.2-6.8-14.5-10.1-26.8
			C1071.8,773.3,1070.2,762,1070.9,757.2z" clip-rule="evenodd" class="color4086c5 svgShape"></path><path fill="#C2D1D0" fill-rule="evenodd" d="M985.3,694.8l128.1-33.9c0,0,33.8-6.1,22.4,14.1c-11.4,20.2-142.7,140.8-142.7,140.8s-12.7,11.9-33.4,18.1
			c0,0-93.2,31.8-76.4,7.3c16.8-24.5,72.6-123.7,72.6-123.7S969.5,698.2,985.3,694.8z" clip-rule="evenodd" class="colorc2d1d0 svgShape"></path><path fill="#C3DFFA" fill-rule="evenodd" d="M985.3,694.8l128.1-33.9c0,0,33.8-6.1,22.4,14.1c-11.4,20.2-142.7,140.8-142.7,140.8s-12.7,11.9-33.4,18.1
			c0,0-93.2,31.8-76.4,7.3c16.8-24.5,72.6-123.7,72.6-123.7S969.5,698.2,985.3,694.8z" clip-rule="evenodd" class="colorc3dffa svgShape"></path><path fill="#A4D0FC" fill-rule="evenodd" d="M883.3,841.2c16.8-24.5,72.6-123.7,72.6-123.7s13.5-19.3,29.4-22.8l15.1-4c-14.9,10.4-25.4,24.5-36.1,40.4
			c-15.3,23-29.9,46.5-45.5,69.3c-6.3,9.3-12.8,18.3-18.1,28.3c-3,5.5-6.5,11.5-4.4,17.8c0.5,1.3,1.2,2.4,2,3.4
			C885.4,851.5,877.3,850,883.3,841.2z" clip-rule="evenodd" class="colora4d0fc svgShape"></path><path fill="#D2E5F7" fill-rule="evenodd" d="M961.6,827c22.4-5.9,43.2-30.2,43.2-30.2s107.8-106.5,118.2-122.6c8.6-13.4-16.7-7.6-25.4-5.3
			c-1.8,0.5-2.8,0.8-2.8,0.8c17,0.8-0.7,17.5-0.7,17.5s-87.5,92.7-98.9,108.6c-11.3,15.8-37.2,32-37.2,32
			C959.2,827.6,960.4,827.3,961.6,827z" clip-rule="evenodd" class="colord2e5f7 svgShape"></path><path fill="#4086C5" fill-rule="evenodd" d="M562.8,756.6l84.6-12.7c0,0,9.8-0.9,16.4,4.3c4.4,3.5,8.5,11.8,3,17.1c-9.9,9.7-112.2,62.4-112.2,62.4
			s-21.4,9.6-38.8,7.9c0,0-47.6,4.5-34.2-7.5c13.4-12,59.9-61.5,59.9-61.5C541.6,766.7,552.3,757.3,562.8,756.6z" clip-rule="evenodd" class="color4086c5 svgShape"></path><path fill="#61A0E0" fill-rule="evenodd" d="M562.8,756.6l84.6-12.7c0,0,27-0.1,13.3,13.4c-9.9,9.7-106.4,65.5-106.4,65.5s-9.4,5.5-23.3,7.3
			c0,0-62.8,10.2-49.4-1.8c13.4-12,59.9-61.5,59.9-61.5C541.6,766.7,552.3,757.3,562.8,756.6z" clip-rule="evenodd" class="color61a0e0 svgShape"></path><path fill="#ABCCE3" fill-rule="evenodd" d="M556.7,816.9l98.7-62.7c2.2-7.9-15.9-6.1-15.9-6.1l-49.4,6.8c0,0,36.5-2.7,45.1-1.6c8.6,1.1,1.8,5.5,1.8,5.5
			L556.7,816.9z" clip-rule="evenodd" class="colorabcce3 svgShape"></path><path fill="#EFF9FC" fill-rule="evenodd" d="M1110.6,621c9.3-3.3,18.4-6.6,27.6-10.1c0,0-16.9,4-44.4,10.5C1099.3,621.2,1105,621.1,1110.6,621
			L1110.6,621z M839.2,690.7c-23.9,1.8-47.8,4.1-71.6,6.8l-4.8,1.2c0,0-0.3,0.1-0.7,0.2c-1.4,0.4-2.7,0.2-3.8-0.4
			c-1.7,0.2-3.4,0.4-5.1,0.6c-2.4,0.5-4.7,1-7,1.5c-0.3,1.1-1,2.2-2.2,3l-0.1,0.1l-7.6,2c0,0-0.3,0.1-0.7,0.2
			c-2.2,0.6-4.2-0.1-5.3-1.9c-3.5,0.7-6.9,1.4-10.3,2.1c-0.1,1.2-0.5,2.5-1.4,3.6C747.6,706,789.8,699.8,839.2,690.7L839.2,690.7z
			 M704.2,711.6c-0.3-0.4-0.6-0.8-0.8-1.3c-0.1-0.2-0.2-0.4-0.3-0.7c-9.8,2-18.7,3.7-26.5,5.1C676.7,714.8,686.6,713.8,704.2,711.6z
			" clip-rule="evenodd" class="coloreff9fc svgShape"></path><path fill="#EFF9FC" fill-rule="evenodd" d="M996.5,655.8c37.9-10,76.5-21.6,114.1-34.8c-5.6,0.1-11.2,0.3-16.8,0.4c-66.1,15.6-193.6,45.5-296.6,68.2
			c0,0,0,0,0,0l-0.1,0.1l-7.6,2c0,0-0.3,0.1-0.7,0.2c-0.9,0.2-1.8,0.3-2.5,0.1c-4.7,1-9.4,2.1-14,3.1c-0.4,0.6-0.9,1.1-1.6,1.6
			l-0.1,0.1l-2.8,0.7c23.8-2.7,47.7-5,71.6-6.8C886.7,682,940.8,670.5,996.5,655.8L996.5,655.8z M758.4,698.5
			c-0.2-0.1-0.4-0.2-0.5-0.4c-1.5,0.3-3.1,0.7-4.6,1C755,698.9,756.7,698.7,758.4,698.5z" clip-rule="evenodd" class="coloreff9fc svgShape"></path><path fill="#F7F5F5" fill-rule="evenodd" d="M788.7 691.9c.4-.1.7-.2.7-.2l7.6-2 .1-.1c0 0 0 0 0 0-3.7.8-7.4 1.6-11 2.4C786.9 692.2 787.8 692.2 788.7 691.9zM762.2 699c.4-.1.7-.2.7-.2l4.8-1.2 2.8-.7.1-.1c.7-.4 1.2-1 1.6-1.6-2.7.6-5.4 1.2-8 1.7l-1.3.3c0 0-.2.1-.6.2-.5.1-1 .2-1.4.2-1 .2-1.9.4-2.9.6.2.1.3.3.5.4C759.4 699.2 760.7 699.3 762.2 699z" clip-rule="evenodd" class="colorf7f5f5 svgShape"></path><path fill="#ECEDEF" fill-rule="evenodd" d="M762.2,697.4c0.4-0.1,0.6-0.2,0.6-0.2l1.3-0.3c-1.1,0.2-2.3,0.5-3.4,0.7
			C761.2,697.6,761.7,697.5,762.2,697.4z" clip-rule="evenodd" class="colorecedef svgShape"></path><path fill="#F7F5F5" fill-rule="evenodd" d="M735.7,706c0.4-0.1,0.7-0.2,0.7-0.2l7.6-2l0.1-0.1c1.2-0.8,1.9-1.9,2.2-3c-0.6,0.1-1.3,0.3-1.9,0.4
			c-0.3,0.5-0.8,0.9-1.3,1.3l-0.1,0.1l-6.7,1.7l-0.6,0.2c-1.5,0.4-2.8,0.1-3.8-0.7c-0.5,0.1-1.1,0.2-1.6,0.3
			C731.5,705.8,733.4,706.6,735.7,706z" clip-rule="evenodd" class="colorf7f5f5 svgShape"></path><path fill="#ECEDEF" fill-rule="evenodd" d="M735.7,704.4l0.6-0.2l6.7-1.7l0.1-0.1c0.6-0.4,1-0.8,1.3-1.3c-4.3,0.9-8.4,1.8-12.5,2.7
			C732.9,704.5,734.2,704.8,735.7,704.4z" clip-rule="evenodd" class="colorecedef svgShape"></path><path fill="#F7F5F5" fill-rule="evenodd" d="M718.6,709.8c1-1.1,1.4-2.4,1.4-3.6c-0.5,0.1-1,0.2-1.4,0.3c-0.3,1.1-0.9,2.1-2,2.9l-0.1,0.1l-4.7,1.2
			C714,710.4,716.3,710.1,718.6,709.8L718.6,709.8z M706.5,711.3c-0.9-0.3-1.6-1-2.2-2c-0.4,0.1-0.8,0.2-1.2,0.2
			c0.1,0.2,0.2,0.5,0.3,0.7c0.2,0.5,0.5,1,0.8,1.3C705,711.5,705.7,711.4,706.5,711.3z" clip-rule="evenodd" class="colorf7f5f5 svgShape"></path><path fill="#ECEDEF" fill-rule="evenodd" d="M716.5,709.5l0.1-0.1c1.2-0.8,1.8-1.8,2-2.9c-4.9,1-9.7,2-14.3,2.9c0.5,1,1.3,1.6,2.2,2
			c1.7-0.2,3.5-0.4,5.3-0.7L716.5,709.5z" clip-rule="evenodd" class="colorecedef svgShape"></path><circle cx="1217.1" cy="1330.6" r="318.9" fill="#8BBAE9" fill-rule="evenodd" clip-rule="evenodd" transform="rotate(-45.001 1217.074 1330.61)" class="color8bbae9 svgShape"></circle><circle cx="1217.1" cy="1330.6" r="307.1" fill="#DFEDFA" fill-rule="evenodd" clip-rule="evenodd" transform="rotate(-45.001 1217.074 1330.61)" class="colordfedfa svgShape"></circle><path fill="#8BBAE9" fill-rule="evenodd" d="M1363.6,1131.4c1.6-2.2,1.9-3.4,3.7-5.3c11.3-12,31.5-0.2,42.5-0.5l1,9.7c5.2,0.1,8.2-1.6,8-7.1
			c-0.4-10-23.9-6.1-27.3-15.8c5.6-7.8,22.4,2.4,29.1,5.8c4.9,2.5,9.6,4.8,14,7.3c4.7,2.6,10.2,7.2,12.4,8.5
			c1.3-5.2,1.8-14.7,4.3-17.7c0.6-0.1,1.2,0,1.8,0.1c-16.9-18.6-35.9-35.1-56.7-49.3c-1.3,0.7-2.9,1.1-4.6,1.2
			c-6.8,0.5-8.9-3.8-17.1-1.2c-4.2,1.3-9.9,4.5-14.6,3.8c1.3-1,7.5-6.8,8.2-8.2c7.1-12.7-14.9-3.3-10.9-18.4
			c-11-5.4-22.4-10.2-34.1-14.3c-0.5,1.4-0.4,3.4,0.4,6.5c1.7,6.4,3,11-1.7,15c-3.8,3.3-9.5,3.9-4.2,11.4c3.9,5.6,8.4,4,16.1,3.8
			c1.6,4.4,1.4,8.3,5.5,9.6c4.9,1.6,7.7,1.7,9.8,5.9c-1.4,3.6-3.9,4.7-5.4,9.6c-4.7,15.2-1.1,14.9-19.9,25.9
			c3.7,3.6,15.8,0.5,18.5,9.4c2.7,8.7-8,10-14.5,12.6c-10.4,4.2-7.5,9.1-2.5,16.6c3.1,4.7,7.2,13.3,14.7,12.7
			c3.2-3.1,1.1-4.6,6.9-6.1c1.6,4.3,4.9,6.7,3.9,13.3c-0.6,4.4-3.5,8.5-4.9,12.4c-1.6,4.4-2,9.3-3.5,13.7
			c-3.9,11.8-11.3,22.4-5.2,41.7c1.4,4.4,3.1,8,5.6,11.5c2.5,3.6,5,4.9,6.6,10.6c2.8,10.2,5.8,12.5,16.7,17.7
			c14.6,7,18.6,25.2,30.1,20.4c10.1-4.2,1.5-13.8,21.8-12.6c8.6,0.5,8-1.3,9.3-8.6c1-5.5,5-6.7,10.6-5.1c5.6,1.6,10.8,0.3,15.4,1.7
			c8.9,2.8,2.1,14.7,7.6,25.4c3,5.8,10.1,17.6,13.5,20.8c5.4,5.1,13.6,10.8,7.5,22.9c-4,8-9.4,15.6-3.9,25.7
			c14.3,26.5,24.4,18,23.8,45c-0.2,9.8,5.1,21.3,10.9,24.2c1.5-1,2.2-1.9,3.4-2.8c12.7-34.4,19.6-71.6,19.6-110.4
			c0-72.7-24.3-139.7-65.3-193.3l-25.7,5.4c0.5,3.4,2.4,4.3,5.1,5.6c-5.5,4.6-8.9,12.4-20.6,5c-14.6-9.3-11.4,0.8-22.3,0.6
			c0.8-3.4,1.1-6.3,0.3-10c-3.7-2.2-10.7-1.2-14.5,0c-8.1,2.4-24.6,11.5-28,19.3l-9.6,0.9c2.4-3.7,7.4-5.4,5.8-13.3
			c-1.1-5.8-4.3-9.1-3.4-16.2C1361.2,1133.1,1361.7,1134,1363.6,1131.4L1363.6,1131.4z M905,1264.6c6.1-28.9,16.1-56.4,29.4-81.8
			c6.2,0.1,13.4,1,20.5-1c9.9-2.8,27.5-11.2,31.3-17.1c-10.3,4.3-14.2,8.5-28.9,6.3c-1.4-1.5-2.4-3.8-3.9-5.6
			c-2.8,3-3.3,8.2-7.7,8.9c-2.3,0.4-4.4-0.4-5.8-1.8c2-3.5,4.1-7,6.3-10.5c6.5-1.3,15-1,19.9-2.7c22.6-8,13.2-14.8,17.3-17.2
			c7.1-2.1,7.6,5.5,8.3,11.7c8.9,0.7,21.1-5.5,28.2,0.2c-0.2-10.6-6.8-27.9,8.5-26.6c-0.6-3.7,0.2-4.4,2.5-7.1
			c1.6-1.8,0.4-0.1,1.3-1.8l-6.6,0c-0.5-2.9-1.6-4.7,1.3-5.5c6.9-2,11.9,4.2,18.6,4.7c8.8,0.6,14.9-6,23.1-7.5
			c11.5-2.1,14.7,4.7,23.1,7.5c7.8,2.6,22-3.7,25.8,2.5c-6.1,6.2-18.6-1.4-15.4,8.3l7.2,1.2c-1.3,6.2-2.4,7.1-1.9,14.4
			c-11.5,1.3-19.5-2.9-30.7-2.7c1.6-4.9,4.1-5.1,3.9-11.4l-9.8,3c-0.1-0.1-0.3-0.3-0.4-0.3c-4.2-3.9-10.3-4.6-15.6-1.7
			c2.8,6.6,3.4,6.5,3.5,15.1c2.4,1.9,6.4,2.3,4.1,6.7c-1.4,2.9-4.2,3.9-6.6,5.8c-3.1,2.5-2.2,4.9-7.5,4.3c-3.2-0.4-6.5-2.3-7.6-4.1
			c-1.4,2.7-1.9,4.8-3.4,7.5c-4,7.3-9.5,14-5.8,22.5c6.1,0.7,27.5-2.5,35.1-3.3c26.1-2.7,8.8-15.1,7.9-17.7
			c-2.8-8.2,4.2-22.2,17.5-20.3c6.2,0.9,8.4,6.3,12.4,7.1c8.8,1.5,8.1-3.8,10-8.7c6.5-0.9,6.7,4.4,10.3,8
			c5.5,5.5,19.7,5.2,26.5,11.3c5.2,4.7,4.3,4.8,6.7,11.9c4,0.3,6.1-0.8,9.2,1.7c2.1,1.7,3.9,3.7,3.1,7.9c-3.4,2.2-11.9,2.7-17.1,2
			c-6.5-0.8-6.7-5.4-8-11.1c-4.4,0.6-7.8,2.5-11.4,3.5c-5.8,1.5-8.7-2.8-11.2,1.8c-3.1,5.7-5.7,13.3-8.8,18.8
			c5.7,0.1,7.9-5.8,16.4-5.4l1.1,6.3l11.7-0.8c-0.6,4.3-3.4,7.8-5.8,9.5c-5.4,4-6,1.7-9.4-1.4c-16.5-0.7-10.1,11.9-13.9,23.4
			c-2,6-6.8,5.3-7.4,11.2c-1.1,10.2-2.8,4.2-7.6,10c1.5,5.3,6,4.4,2.3,14.2c-1.7,4.7-4.6,8.5-4.6,14.2c0.1,9.4,6.2,18.9,7.4,29.8
			c-4.1-1.1-6.5-3.5-8.5-5.9c-8.9-11-13-9.8-25.2-3.7l-0.6,4.2c-19.9,2.5-29.1,12.5-28.2,34c0.4,9.3,5.7,15.5,13.4,17.6
			c8.7,2.4,19.1,0.7,17.2-11.9c13-1.9,7.9,4.3,13,12.7c4.1,6.7,9.8,7.3,19,4.5c0.8,6.1,0.2,5.8,4.3,8.7c2.9,2.1,3.8,3.2,7.8,5.2
			c14.2,7.1,8.7-2.5,19.1-1c3.1,2.9,1.7,5,8.4,4.1c-0.1-19.1-3-18.7,30.6-20.4c29.1-1.5,20.9-0.9,32.7,6.2c3.2,1.9,5.6,2.3,9.9,2.5
			c17.6,0.7,25.2,9.8,40.5,11.2c11.7,1.1,37.8-5.3,45.5,3.2c2.7,3-1.1,15.8-0.3,22.3c0.9,6.4,4.3,13.2,6.7,18.7
			c13.7,31.2-12.1,22.7-18.3,51.7c-1.7,8-4.4,11.6-7.1,18.4c-4.9,12.1,8,37.9-6.6,40.1c-2.1-1.9-4.3-9.8-10.4-6.2
			c-6.1,3.5-0.3,14.5,3,18.5c5.7,6.9,6.2,9.6-1.2,16.4l2.4,0.9c0.6,0.7,0.8,2.2,0.5,3.3c-1,3.5-9.5,1.7-16.2,7
			c-0.5,12.4,1.9,21.8,5.2,32.6c1.2,4.1,2.3,11.2,5.2,13.3c4.7,3.5,13.4-2.6,13.9,5.5c-5.6,2.6-18.9,5.1-26.1,1.9
			c-4.6-2-10-10.6-13.1-16.5l-17.9-41.2c-2.6-9.4,1.2-18,0.4-27.9c-0.7-9-3-15.7-6.5-23c-6.1-12.6-12.5-28.7-18.5-40.5
			c-8.6,0.3-14.3,0.5-19.1-4.3c-1.6-1.6-3.6-4.4-5.3-6.4c-3.7-4.3-6.8-8.4-11.4-11.9c-2.4-1.8-4.7-2.8-7.2-4.5
			c-16.8-11.5-4.7-40-13.3-55.5c-5.8-10.4-9.6-4.9-14.4-6.2c-2.3-0.6-5.4-2.8-7.8-3.9c-8.7-4-17.4-4.1-24.9-9.5
			c-7.2-5.3-8.3-3.7-18.1-4.4c-14.9-1.1-30.6,3.9-43.7,1.6c-14.3-2.6-20.4-12.3-27.5-18.5c-3.4-3-24.1-16.7-28.6-16.4
			c-4.3,12.5,14.5,19.2,17.9,28.7c-17.5-0.1-15.6-13-22.4-25.1c-6.7-11.9-19-10-29-17.7c-8.5-6.5-11.4-22.4-14.1-32.7
			c-3.5-13.4-10.1-21-13.9-32.2l-0.7,1.7c-0.9,3-1.2,7-2.5,9.7C908.4,1271.1,905.9,1268.4,905,1264.6L905,1264.6z M951.1,1154.6
			c3.5-0.4,4.6-2.7,7.8-3.9c2.7-1,8.9,0.6,14.1-0.4c8.9-1.8,3.9-2.9,8-7.7c2.8-3.2,8.1-2.3,8.7-6.8c-6-5-7.5,1.4-10,4.1
			c-6,6.5-7.7-3.2-12.2,0.8c-1.9,1.7-0.7,3.1-4.9,2.9c-2.1-0.1-3.2-0.1-4,0.1C956.1,1147.3,953.6,1150.9,951.1,1154.6L951.1,1154.6z
			 M973,1137.5c7.6,2.9,11.1-17.1,0.6-3C971.5,1137.4,973,1137.5,973,1137.5L973,1137.5z M995.4,1118.5c1.5,2.7,2.9,3,6.2,2
			c4.5-1.4,3.5-1.7,6.8,0.5l0.3-4.1C1002.1,1116.1,997.1,1113,995.4,1118.5L995.4,1118.5z M1138.3,1333.9c3.8,2,10,1.5,13.6-1.2
			c4.6-3.3-1.6-2.4,7.5-8.4c0.1-0.1,0.3-0.2,0.5-0.3l0.9-0.7c-5.7,0.2-10.7-0.9-16.3,0.6C1138.5,1325.6,1136.6,1327.2,1138.3,1333.9
			L1138.3,1333.9z M1092.3,1331.9c7.4-0.2,6.2-1.6,9.9-4.2c8.5-5.8,16.8,3.9,22.3,3.3c3.7-0.4,9.9-0.7,9.4-4.7c-0.6-4.6-5-3-9.3-2.7
			c-5.6,0.4-6-2.8-13-1.7C1104.9,1323,1093.3,1325.6,1092.3,1331.9L1092.3,1331.9z M1238.7,1086.2c1.6-1.7,1.6-3.7,3.5-5.3
			c3.9-3.5,15.4-1.8,15.6-12.5c-3.2-0.2-4.4,0.3-7.5-0.7c-6.9-2.1-7.5,1.1-11.2,3.8c-3,2.2-3.8,0.7-7.4,1.6c-3.8,1-9.7,4.8-5.2,8
			C1228.3,1082.4,1236.1,1085.4,1238.7,1086.2L1238.7,1086.2z M1293.3,1105.7c1.6-3.1,7.4-9.1,7.2-11.8c-0.4-4-3.1-0.1-0.4-7.4
			c1.1-3.1,1.2-4.3,1.8-7.6c9.1,1.9,16.5,17.5,33.9,19.7c-0.9,5.5,0.5,6.9-3.4,9.8c-2.3,1.7-6.2,3.3-9.3,3.7
			c-8.8,1-8.2-8.5-12.1-12.6c-8.5,0-2.1,7.5-7,10.1C1300.4,1111.4,1295.2,1107.4,1293.3,1105.7L1293.3,1105.7z M1034.4,1095
			c-6.9,0.9-14.5,2.5-19.2,5.3c0.3,6.3,6.6,6.3,12.4,5.1c8.1-1.6,9.2-0.3,10,7.4c11.2,0.7,22,2.2,22.1-7.7l-7.2,0.5
			c-1.4-2.3,0-0.9-1.8-2.3c4.2-9.8,12.1-8.7,17.9-18.7c2.4-4.1,2.6-9.5,5.4-13.2c3.2-4.3,7.3-2.5,9.7-9.5
			c-13.9,0.9-15.7,8.8-27.7,13.5C1044.4,1079.8,1033.3,1080.2,1034.4,1095L1034.4,1095z M1084.1,1086.3c5.9,3.2,13.7-6.6,28.3,5.9
			c16.6,14.1,22.6,4.9,26.1,4.7c1.6,8.1,3,13.1,7.4,17.3c2,1.9,11.2,8.9,14.9,10.5c7.7,3.4,14.5,0.8,16.1-6
			c1.7-7.2-2.2-16.7,1.3-22.9c1.5-2.7,9.2-4.7,15.3-9.5c4.9-3.9,8.8-7.6,14.1-11.3c3.8-2.7,13.9-6.8,15.4-10.1
			c2-4.6-6.6-12.2-4-19.8c3.2-1.6,7.9-0.1,12-1c4.6-1.1,3.8-3.2,5.7-7.5c3.1-7.2,13.9-5,9.8-14.6c-6.4-2-16.3,8.4-20.2,11.1
			c-6,4.1-5.9-0.1-18.7,6c-0.8,0.4-2.2,1-3,1.2c-2.6,0.5-2.8-0.1-3.2-0.2c-0.9-4.5,0.9-7.3,2.2-11.1c1.7-4.9,4.2-8,3.9-10.7
			c-0.9-8.1-13.2,1.5-20.3,1.8c-4.7,0.2-8.7-1.7-12.7,0.4c-5,2.7-2.2,7.6-6.6,8.5c-7.7,1.6-14.1-10.5-21.1,2.3
			c-4.5,8.3-8.8,8-20.1,9.4c-4.3,0.5-7.7,1.9-10.7,3.8l-24.5,20.2c-3.3,3.6-8.2,12.5-8.3,18.1L1084.1,1086.3L1084.1,1086.3z
			 M1035.2,1133.1l-6.5-4.5l1.4,9.5c11,0.2,12.2,4.4,15.5,9.3C1056.6,1142.3,1037.8,1134.5,1035.2,1133.1z" clip-rule="evenodd" class="color8bbae9 svgShape"></path><path fill="#1E77D1" fill-rule="evenodd" d="M902.8,1170.8l4.7,2.3l-0.3,0.6l-0.4,0.9l-0.4,0.9l-0.4,0.9l-0.4,0.9l-0.4,0.9l-0.4,0.9l-0.4,0.9l-0.4,0.9
		l-0.4,0.9l-0.4,0.9l-4.7-2.2l0.4-0.9l0.4-0.9l0.4-0.9l0.4-0.9l0.4-0.9l0.4-0.9l0.4-0.9l0.4-0.9l0.4-0.9l0.4-0.9L902.8,1170.8
		L902.8,1170.8z M1543.9,1181.2l-4.7,2.2l-1-2.1l-0.6-1.2l4.7-2.3l0.6,1.2L1543.9,1181.2L1543.9,1181.2z M1540,1173.1l-4.7,2.3
		l-0.1-0.2l-1-2l-1-2l-1-2l-1-2l-0.5-1l4.6-2.5l0.5,1l1.1,2l1,2l1,2l1,2L1540,1173.1L1540,1173.1z M1532.7,1159.1l-4.6,2.5l-0.2-0.4
		l-1.1-2l-1.1-1.9l-1.1-1.9l-1.1-1.9l-0.5-0.8l4.5-2.7l0.5,0.9l1.1,2l1.1,2l1.1,2l1.1,2L1532.7,1159.1L1532.7,1159.1z
		 M1524.8,1145.5l-4.5,2.7l-0.3-0.4l-1.2-1.9l-1.2-1.9l-1.2-1.9l-1.2-1.9l-0.5-0.8l4.4-2.9l0.6,0.9l1.2,1.9l1.2,1.9l1.2,1.9l1.2,1.9
		L1524.8,1145.5L1524.8,1145.5z M1516.3,1132.2l-4.3,2.9l-0.2-0.4l-1.2-1.8l-1.2-1.8l-1.3-1.8l-1.3-1.8l-0.7-0.9l4.2-3l0.7,1
		l1.3,1.8l1.3,1.8l1.3,1.8l1.3,1.8L1516.3,1132.2L1516.3,1132.2z M1507.2,1119.3l-4.2,3.1l-0.1-0.2l-1.3-1.8l-1.3-1.7l-1.3-1.7
		l-1.3-1.7l-0.9-1.1l4.1-3.2l0.9,1.1l1.4,1.8l1.3,1.8l1.3,1.8l1.3,1.8L1507.2,1119.3L1507.2,1119.3z M1497.6,1106.8l-4,3.3l-1.4-1.7
		l-1.4-1.7l-1.4-1.7l-1.4-1.7l-1.1-1.3l4-3.4l1.2,1.3l1.4,1.7l1.4,1.7l1.4,1.7L1497.6,1106.8L1497.6,1106.8z M1487.4,1094.8
		l-3.9,3.5l-1.2-1.3l-1.4-1.6l-1.5-1.6l-1.5-1.6l-1.5-1.6l0,0l3.8-3.6l0,0l1.5,1.6l1.5,1.6l1.5,1.6l1.5,1.6L1487.4,1094.8
		L1487.4,1094.8z M1476.6,1083.2l-3.7,3.6l-0.9-0.9l-1.5-1.5l-1.5-1.5l-1.5-1.5l-1.5-1.5l-0.4-0.3l3.6-3.8l0.4,0.4l1.6,1.5l1.5,1.5
		l1.5,1.5l1.5,1.6L1476.6,1083.2L1476.6,1083.2z M1465.4,1072.1l-3.6,3.8l-0.5-0.5l-1.6-1.5l-1.6-1.4l-1.6-1.4l-1.6-1.4l-0.8-0.7
		l3.5-3.9l0.8,0.7l1.6,1.5l1.6,1.5l1.6,1.5l1.6,1.5L1465.4,1072.1L1465.4,1072.1z M1453.7,1061.6l-3.4,4l-0.1-0.1l-1.6-1.4l-1.6-1.4
		l-1.6-1.4l-1.6-1.4l-1.3-1.1l3.3-4.1l1.3,1.1l1.7,1.4l1.7,1.4l1.7,1.4l1.6,1.4L1453.7,1061.6L1453.7,1061.6z M1441.5,1051.5
		l-3.2,4.1l-1.3-1l-1.7-1.3l-1.7-1.3l-1.7-1.3l-1.7-1.3l-0.2-0.1l3.1-4.2l0.2,0.1l1.7,1.3l1.7,1.3l1.7,1.3l1.7,1.3L1441.5,1051.5
		L1441.5,1051.5z M1428.9,1042.1l-3,4.2l-0.8-0.6l-1.7-1.2l-1.7-1.2l-1.7-1.2l-1.7-1.2l-0.8-0.5l2.9-4.3l0.8,0.5l1.8,1.2l1.8,1.2
		l1.8,1.2l1.8,1.2L1428.9,1042.1L1428.9,1042.1z M1415.9,1033.1l-2.9,4.4l-0.2-0.1l-1.8-1.2l-1.8-1.1l-1.8-1.1l-1.8-1.1l-1.4-0.9
		l2.7-4.5l1.5,0.9l1.8,1.1l1.8,1.1l1.8,1.2l1.8,1.2L1415.9,1033.1L1415.9,1033.1z M1402.5,1024.8l-2.6,4.5l-1.4-0.8l-1.8-1.1
		l-1.8-1.1l-1.8-1l-1.8-1l-0.3-0.2l2.5-4.6l0.3,0.2l1.9,1l1.9,1.1l1.9,1.1l1.9,1.1L1402.5,1024.8L1402.5,1024.8z M1388.8,1017.1
		l-2.4,4.6l-0.7-0.4l-1.9-1l-1.9-1l-1.9-1l-1.9-1l-1-0.5l2.3-4.7l1,0.5l1.9,1l1.9,1l1.9,1l1.9,1L1388.8,1017.1L1388.8,1017.1z
		 M1374.7,1010l-2.3,4.7l0,0l-1.9-0.9l-1.9-0.9l-1.9-0.9l-1.9-0.9l-1.7-0.8l2.1-4.8l1.8,0.8l1.9,0.9l1.9,0.9l1.9,0.9L1374.7,1010
		L1374.7,1010L1374.7,1010z M1360.3,1003.5l-2,4.8l-1.2-0.5l-1.9-0.8l-1.9-0.8l-2-0.8l-2-0.8l-0.6-0.2l1.9-4.9l0.6,0.2l2,0.8l2,0.8
		l2,0.8l2,0.8L1360.3,1003.5L1360.3,1003.5z M1345.7,997.6l-1.8,4.9l-0.5-0.2l-2-0.7l-2-0.7l-2-0.7l-2-0.7l-1.3-0.5l1.7-4.9l1.4,0.5
		l2,0.7l2,0.7l2,0.7l2,0.7L1345.7,997.6L1345.7,997.6z M1330.8,992.4l-1.6,5l-1.7-0.6l-2-0.6l-2-0.6l-2-0.6l-2-0.6l-0.1,0l1.4-5
		l0.1,0l2.1,0.6l2,0.6l2,0.6l2,0.6L1330.8,992.4L1330.8,992.4z M1315.6,987.9l-1.4,5l-1-0.3l-2-0.5l-2-0.5l-2-0.5l-2-0.5l-0.9-0.2
		l1.2-5.1l0.9,0.2l2.1,0.5l2.1,0.5l2.1,0.5l2.1,0.6L1315.6,987.9L1315.6,987.9z M1300.4,984l-1.2,5.1l-0.2-0.1l-2.1-0.5l-2.1-0.5
		l-2.1-0.4l-2.1-0.4l-1.7-0.3l1-5.1l1.7,0.3l2.1,0.4l2.1,0.4l2.1,0.5l2.1,0.5L1300.4,984L1300.4,984z M1284.9,980.8l-0.9,5.1
		l-1.5-0.3l-2.1-0.4l-2.1-0.4l-2.1-0.3l-2.1-0.3l-0.3-0.1l0.8-5.2l0.4,0.1l2.1,0.3l2.1,0.3l2.1,0.4l2.1,0.4L1284.9,980.8
		L1284.9,980.8z M1269.3,978.3l-0.7,5.2l-0.8-0.1l-2.1-0.3l-2.1-0.3l-2.1-0.3l-2.1-0.2l-1.1-0.1l0.6-5.2l1.1,0.1l2.1,0.2l2.1,0.3
		l2.1,0.3l2.1,0.3L1269.3,978.3L1269.3,978.3z M1253.7,976.5l-0.5,5.2l-0.1,0l-2.1-0.2l-2.1-0.2l-2.1-0.2l-2.1-0.2l-1.8-0.1l0.3-5.2
		l1.8,0.1l2.1,0.2l2.1,0.2l2.1,0.2L1253.7,976.5L1253.7,976.5L1253.7,976.5z M1237.9,975.4l-0.2,5.2l-1.5-0.1l-2.1-0.1l-2.1-0.1
		l-2.1-0.1l-2.1-0.1l-0.3,0l0.1-5.2l0.4,0l2.2,0.1l2.2,0.1l2.2,0.1l2.2,0.1L1237.9,975.4L1237.9,975.4z M1222.2,975l0,5.2l-0.9,0
		l-2.1,0l-2.1,0l-2.1,0l-2.1,0l-1,0l-0.2-5.2l1,0l2.2,0l2.2,0l2.2,0l2.2,0L1222.2,975L1222.2,975z M1206.4,975.3l0.2,5.2l-0.2,0
		l-2.1,0.1l-2.1,0.1l-2.1,0.1l-2.1,0.1l-1.5,0.1l-0.4-5.2l1.6-0.1l2.2-0.1l2.2-0.1l2.2-0.1l2.2-0.1L1206.4,975.3L1206.4,975.3z
		 M1190.6,976.2l0.5,5.2l-1.9,0.2l-2.1,0.2l-2.1,0.2l-2.1,0.2l-2.1,0.2l-0.6-5.2l2.1-0.2l2.2-0.2l2.2-0.2l2.2-0.2L1190.6,976.2
		L1190.6,976.2z M1174.9,977.9l0.7,5.2l-1.4,0.2l-2.1,0.3l-2.1,0.3l-2.1,0.3l-2.1,0.3l-0.3,0.1l-0.9-5.1l0.4-0.1l2.2-0.3l2.2-0.3
		l2.2-0.3l2.2-0.3L1174.9,977.9L1174.9,977.9z M1159.3,980.3l0.9,5.1l-1,0.2l-2.1,0.4l-2.1,0.4l-2.1,0.4l-2.1,0.4l-0.7,0.1l-1.1-5.1
		l0.7-0.1l2.2-0.4l2.2-0.4l2.2-0.4l2.2-0.4L1159.3,980.3L1159.3,980.3z M1143.9,983.4l1.1,5.1l-0.6,0.1l-2.1,0.5l-2.1,0.5l-2.1,0.5
		l-2.1,0.5l-0.9,0.2l-1.3-5.1l1-0.2l2.2-0.5l2.2-0.5l2.2-0.5l2.2-0.5L1143.9,983.4L1143.9,983.4z M1128.6,987.2l1.4,5l-0.4,0.1
		l-2.1,0.6l-2.1,0.6l-2.1,0.6l-2.1,0.6l-1.1,0.3l-1.5-5l1.1-0.3l2.1-0.6l2.1-0.6l2.1-0.6l2.2-0.6L1128.6,987.2L1128.6,987.2z
		 M1113.4,991.6l1.6,5l-0.3,0.1l-2.1,0.7l-2.1,0.7l-2.1,0.7l-2.1,0.7l-1.1,0.4l-1.7-4.9l1.1-0.4l2.1-0.7l2.1-0.7l2.1-0.7l2.1-0.7
		L1113.4,991.6L1113.4,991.6z M1098.5,996.7l1.8,4.9l-0.3,0.1l-2.1,0.8l-2.1,0.8l-2.1,0.8l-2.1,0.8l-1,0.4l-2-4.8l1-0.4l2.1-0.8
		l2.1-0.8l2.1-0.8l2.1-0.8L1098.5,996.7L1098.5,996.7z M1083.8,1002.5l2,4.8l-0.5,0.2l-2.1,0.9l-2.1,0.9l-2.1,0.9l-2.1,0.9l-0.8,0.3
		l-2.2-4.7l0.8-0.4l2.1-0.9l2.1-0.9l2.1-0.9l2.1-0.9L1083.8,1002.5L1083.8,1002.5z M1069.4,1008.9l2.2,4.7l-0.4,0.2l-0.9,0.4
		l-0.9,0.4l-0.9,0.4l-0.9,0.4l-0.9,0.4l-0.9,0.4l-0.9,0.4l-0.9,0.4l-0.9,0.4l-0.9,0.4l-0.2,0.1l-2.4-4.7l0.2-0.1l0.9-0.4l0.9-0.4
		l0.9-0.4l0.9-0.4l0.9-0.4l0.9-0.4l0.9-0.4l0.9-0.4l0.9-0.4l0.9-0.4L1069.4,1008.9L1069.4,1008.9z M1055.3,1015.9l2.4,4.6l-0.3,0.2
		l-0.8,0.4l-0.9,0.5l-0.8,0.5l-0.8,0.5l-0.9,0.5l-0.8,0.5l-0.8,0.5l-0.8,0.5l-0.8,0.5l-0.8,0.5l-0.4,0.2l-2.6-4.5l0.4-0.2l0.9-0.5
		l0.9-0.5l0.9-0.5l0.9-0.5l0.9-0.5l0.9-0.5l0.9-0.5l0.9-0.5l0.9-0.5l0.9-0.5L1055.3,1015.9L1055.3,1015.9z M1041.5,1023.5l2.6,4.5
		l-0.2,0.1l-0.8,0.5l-0.8,0.5l-0.8,0.5l-0.8,0.5l-0.8,0.5l-0.8,0.5l-0.8,0.5l-0.8,0.5l-0.8,0.5l-0.8,0.5l-0.5,0.3l-2.8-4.4l0.5-0.3
		l0.8-0.5l0.8-0.5l0.8-0.5l0.8-0.5l0.8-0.5l0.8-0.5l0.8-0.5l0.8-0.5l0.8-0.5l0.8-0.5L1041.5,1023.5L1041.5,1023.5z M1028,1031.8
		l2.8,4.4l-0.8,0.5l-0.8,0.5l-0.8,0.5l-0.8,0.5l-0.8,0.5l-0.8,0.5l-0.8,0.5l-0.8,0.5l-0.8,0.5l-0.8,0.5l-0.7,0.5l-3-4.3l0.7-0.5
		l0.8-0.5l0.8-0.5l0.8-0.5l0.8-0.5l0.8-0.5l0.8-0.5l0.8-0.5l0.8-0.5l0.8-0.5L1028,1031.8L1028,1031.8z M1014.9,1040.6l3,4.3
		l-0.6,0.4l-0.8,0.6l-0.8,0.6l-0.8,0.6l-0.8,0.6l-0.8,0.6l-0.8,0.6l-0.8,0.6l-0.8,0.6l-0.8,0.6l-0.8,0.6l-0.1,0.1l-3.2-4.2l0.1-0.1
		l0.8-0.6l0.8-0.6l0.8-0.6l0.8-0.6l0.8-0.6l0.8-0.6l0.8-0.6l0.8-0.6l0.8-0.6l0.8-0.6L1014.9,1040.6L1014.9,1040.6z M1002.3,1050
		l3.2,4.1l-0.3,0.3l-0.8,0.6l-0.7,0.6l-0.7,0.6l-0.7,0.6l-0.7,0.6l-0.7,0.6l-0.7,0.6l-0.7,0.6l-0.7,0.6l-0.7,0.6l-0.3,0.3l-3.3-4
		l0.3-0.3l0.7-0.6l0.7-0.6l0.8-0.6l0.8-0.6l0.8-0.6l0.8-0.6l0.8-0.6l0.8-0.6l0.8-0.6l0.8-0.6L1002.3,1050L1002.3,1050z M990,1060
		l3.4,4l-0.1,0.1l-0.7,0.6l-0.7,0.6l-0.7,0.6l-0.7,0.6l-0.7,0.6l-0.7,0.6l-0.7,0.6l-0.7,0.6l-0.7,0.6l-0.7,0.6l-0.5,0.5l-3.5-3.9
		l0.5-0.5l0.7-0.6l0.7-0.6l0.7-0.6l0.7-0.6l0.7-0.6l0.7-0.6l0.7-0.6l0.7-0.6l0.7-0.6L990,1060L990,1060L990,1060z M978.2,1070.5
		l3.6,3.8l-0.6,0.5l-0.7,0.7l-0.7,0.7l-0.7,0.7l-0.7,0.7l-0.7,0.7l-0.7,0.7l-0.7,0.7l-0.7,0.7l-0.7,0.7l-0.7,0.7l0,0l-3.7-3.7l0,0
		l0.7-0.7l0.7-0.7l0.7-0.7l0.7-0.7l0.7-0.7l0.7-0.7l0.7-0.7l0.7-0.7l0.7-0.7l0.7-0.7L978.2,1070.5L978.2,1070.5z M966.9,1081.5
		l3.7,3.7l-0.3,0.3l-0.7,0.7l-0.7,0.7l-0.7,0.7l-0.7,0.7l-0.7,0.7l-0.7,0.7l-0.7,0.7l-0.7,0.7l-0.7,0.7l-0.6,0.7l-0.2,0.3l-3.8-3.5
		l0.3-0.3l0.7-0.7l0.7-0.7l0.7-0.7l0.7-0.7l0.7-0.7l0.7-0.7l0.7-0.7l0.7-0.7l0.7-0.7l0.7-0.7L966.9,1081.5L966.9,1081.5z
		 M956.1,1092.9l3.9,3.5l-0.1,0.1l-0.6,0.7l-0.6,0.7l-0.6,0.7l-0.6,0.7l-0.6,0.7l-0.6,0.7l-0.6,0.7l-0.6,0.7l-0.6,0.7l-0.6,0.7
		l-0.4,0.5l-4-3.4l0.4-0.5l0.6-0.7l0.6-0.7l0.6-0.7l0.6-0.7l0.6-0.7l0.6-0.7l0.6-0.7l0.6-0.7l0.6-0.7l0.6-0.7L956.1,1092.9
		L956.1,1092.9z M945.8,1104.9l4,3.3l-0.5,0.6l-0.6,0.7l-0.6,0.7l-0.6,0.7l-0.6,0.7l-0.6,0.7l-0.6,0.7l-0.6,0.7l-0.6,0.8l-0.6,0.7
		l-0.6,0.8l-4.1-3.2l0.6-0.8l0.6-0.8l0.6-0.8l0.6-0.8l0.6-0.8l0.6-0.8l0.6-0.8l0.6-0.8l0.6-0.8l0.6-0.7L945.8,1104.9L945.8,1104.9z
		 M936.1,1117.3l4.2,3.1l-0.3,0.4l-0.6,0.8l-0.6,0.8l-0.6,0.8l-0.6,0.8l-0.6,0.8l-0.6,0.8l-0.6,0.8l-0.6,0.8l-0.6,0.8l-0.6,0.8
		l-0.1,0.2l-4.3-3l0.2-0.2l0.6-0.8l0.6-0.8l0.6-0.8l0.6-0.8l0.6-0.8l0.6-0.8l0.6-0.8l0.6-0.8l0.6-0.8l0.6-0.8L936.1,1117.3
		L936.1,1117.3z M926.9,1130.1l4.3,2.9l-0.2,0.2l-0.5,0.8l-0.5,0.8l-0.5,0.8l-0.5,0.8l-0.5,0.8l-0.5,0.8l-0.5,0.8l-0.5,0.8l-0.5,0.8
		l-0.5,0.8l-0.3,0.4l-4.4-2.8l0.3-0.4l0.5-0.8l0.5-0.8l0.5-0.8l0.5-0.8l0.5-0.8l0.5-0.8l0.5-0.8l0.5-0.8l0.5-0.8l0.5-0.8
		L926.9,1130.1L926.9,1130.1z M918.3,1143.3l4.4,2.8l0,0.1l-0.5,0.8l-0.5,0.8l-0.5,0.8l-0.5,0.8l-0.5,0.8l-0.5,0.8l-0.5,0.8
		l-0.5,0.8l-0.5,0.8l-0.5,0.8l-0.4,0.6l-4.5-2.6l0.4-0.6l0.5-0.8l0.5-0.8l0.5-0.8l0.5-0.8l0.5-0.8l0.5-0.8l0.5-0.8l0.5-0.8l0.5-0.8
		L918.3,1143.3L918.3,1143.3L918.3,1143.3z M910.2,1156.9l4.6,2.5l-0.4,0.7l-0.5,0.8l-0.5,0.8l-0.5,0.8l-0.5,0.8l-0.5,0.8l-0.5,0.8
		l-0.5,0.8l-0.5,0.9l-0.5,0.9l-0.4,0.8l-4.6-2.4l0.4-0.8l0.5-0.9l0.5-0.9l0.5-0.9l0.5-0.9l0.5-0.9l0.5-0.9l0.5-0.9l0.5-0.9l0.5-0.9
		L910.2,1156.9z" clip-rule="evenodd" class="color1e77d1 svgShape"></path><path fill="#DFEDFA" fill-rule="evenodd" d="M1216.1,1074.8c7.1-1.2,17.2-2.9,20.2,2h1.5v17.7h-1.7c-4.9,6.4-24.7,2.4-31.8-0.3c-3.3,6.2-11,17-12.7,19.6
		c-2.6,3.8-9.2,12.8-11,17.1v3h-11v-1.7h-14.6v-3.5c0-2.7,7.1-13.8,8.6-16.6c0.3-0.6,0.7-1.2,1-1.8c0.5-1,1.9-3.5,2.8-5.5h-0.1v-3.5
		c0-7.6,4.3-17.5,7.4-24.5c2.3-5.2,8.9-18.5,8.9-23.8v-3.5h2.8c2.2-3.7,1.9-20.2,1.7-28.3c-7.3-0.2-14.6-0.8-21.8-1.6
		c-14.3-1.5-28.9-3.7-43.4-3.9c-3.5,5.9-12.2,16.2-14.2,18.6c-3.6,4.5-7.2,8.9-10.9,13.3c-0.8,1-2.5,3.4-4.2,5.1v2.4l-9,0.9h-9
		l2-5.9c0.2-2.3,1.2-6.3,1.7-8.3c1.1-5.1,2.3-10.2,3.4-15.3c0.7-3.1,3.2-14.7,3.5-19.9h-0.8v-1.5c-3.1-1.9-3.9-6.5-3.4-10.2
		c-0.5-3.8,0.3-8.3,3.4-10.2V983h0.8c-0.3-5.2-2.8-16.8-3.5-19.9c-1.1-5.1-2.3-10.2-3.4-15.3c-0.5-2-1.5-5.9-1.7-8.3l-2-5.9h9l9,0.9
		v2.4c1.7,1.8,3.4,4.1,4.2,5.1c3.7,4.4,7.3,8.9,10.9,13.3c2,2.5,10.7,12.7,14.2,18.6c14.4-0.2,29-2.4,43.4-3.9
		c7.2-0.8,14.5-1.5,21.8-1.6c0.2-8.1,0.5-24.7-1.7-28.3h-2.8v-3.5c0-5.3-6.6-18.6-8.9-23.8c-3.1-7-7.4-16.8-7.4-24.5v-3.5h0.1
		c-0.9-2-2.2-4.5-2.8-5.5c-0.3-0.6-0.7-1.2-1-1.8c-1.6-2.8-8.6-14-8.6-16.6v-3.5h14.6v-1.7h11v3c1.9,4.2,8.5,13.2,11,17
		c1.7,2.6,9.4,13.4,12.7,19.6c7.1-2.8,26.8-6.7,31.8-0.3h1.7v17.7h-1.5c-3,4.8-13.1,3.2-20.2,2c2.8,4.2,7.3,9.4,9.3,13.4h0
		c1.2-0.4,2.4-0.8,3.4-1.1c3.5-1.1,7-2.1,10.6-2.9c6.5-1.5,19.5-3.7,22.4,4.1h1.1v18.9h-1.5c-3.3,5.5-14.8,4.8-22.2,4.2
		c3.4,5.6,10.7,14.1,13.6,19.6c2.7,0,5.4,0,8.1,0.1c11.4,0.2,89.9,2.2,88.2,24c1.7,21.8-76.9,23.7-88.2,24c-2.7,0.1-5.4,0.1-8.1,0.1
		c-2.9,5.5-10.2,13.9-13.6,19.6c7.5-0.6,19-1.3,22.2,4.2h1.5v18.9h-1.2c-0.3,0.7-0.7,1.5-1.3,2.1c-4.5,5.4-15.1,3.3-21.1,2
		c-3.6-0.8-7.1-1.8-10.6-2.9c-1-0.3-2.2-0.7-3.4-1.1h0C1223.4,1065.4,1218.9,1070.6,1216.1,1074.8z" clip-rule="evenodd" class="colordfedfa svgShape"></path><path fill="#1E77D1" fill-rule="evenodd" d="M1250.5,1015.2c0,3.1-20.1,26.9-15.7,26.9c3.5-0.1,24.1-3.1,24.1,3.9h0.6v11.8h-0.6c0,12.9-32.9-0.6-35.3-0.6
		v0.6h-0.6c0,2.8-12.9,17.8-12.9,21.3c3.3,0,23.6-5.5,23.6,1.1h0.6v10.7h-0.6c0,6.7-24.1,2-29.2-0.6h-2.2c0,1.1-7,11.5-13.6,21.4
		c-6,8.9-11.6,17.4-11.6,18.4h-3.9v-1.7h-6.4h-8.2c0-1.1,4.5-8.2,8.2-14.9c0.3-0.6,0.7-1.2,1-1.8c3.1-5.7,5.3-10.7,3.1-10.7
		c0-13.6,16.3-38.1,16.3-48.2c6.1,0,4.5-27.6,4.5-35.3c-7.9,0-16.3-0.7-24.9-1.6c-15.3-1.7-31.1-4-45.8-4c0,2.2-30.7,39.3-30.9,39.3
		v0.6l-5.6,0.6h-3.9l0.6-1.7c0-3.1,11.6-47.7,7.9-47.7v-0.6c-3.3,0-4-4.1-3.4-7.6c-0.6-3.5,0.1-7.6,3.4-7.6v-0.6
		c3.8,0-7.9-44.6-7.9-47.7l-0.6-1.7h3.9l5.6,0.6v0.6c0.1,0,30.9,37,30.9,39.3c14.6,0,30.5-2.3,45.8-4c8.6-0.9,17-1.6,24.9-1.6
		c0-7.7,1.6-35.3-4.5-35.3c0-10.2-16.3-34.7-16.3-48.2c2.2,0,0-5-3.1-10.7c-0.3-0.6-0.7-1.2-1-1.8c-3.7-6.7-8.2-13.8-8.2-14.9h8.2
		h6.4v-1.7h3.9c0,1,5.7,9.5,11.6,18.4c6.6,9.9,13.6,20.3,13.6,21.4h2.2c5.1-2.5,29.2-7.2,29.2-0.6h0.6v10.7h-0.6
		c0,6.6-20.3,1.1-23.6,1.1c0,3.5,12.9,18.5,12.9,21.3h0.6v0.6c2.4,0,35.3-13.5,35.3-0.6h0.6v11.8h-0.6c0,7-20.6,4-24.1,3.9
		c-4.4,0,15.7,23.8,15.7,26.9c3.6,0,7.1,0,10.4,0.1c57.2,1.1,86,10.9,84.7,20.4c1.2,9.5-27.5,19.4-84.7,20.4
		C1257.5,1015.2,1254.1,1015.2,1250.5,1015.2z" clip-rule="evenodd" class="color1e77d1 svgShape"></path><path fill="#F57A44" fill-rule="evenodd" d="M1571.3,1205.5L1571.3,1205.5c22,22,20.6,56.6,0,79.9l-39.9,45l-39.9-45c-20.6-23.2-22-57.9,0-79.9l0,0
			C1513.4,1183.6,1549.3,1183.6,1571.3,1205.5z" clip-rule="evenodd" class="colorf57a44 svgShape"></path><circle cx="1531.3" cy="1244.6" r="34.2" fill="#FFFFFF" fill-rule="evenodd" clip-rule="evenodd" class="colorfff svgShape"></circle><path fill="#F57A44" fill-rule="evenodd" d="M1531.3 1218.2c14.6 0 26.4 11.8 26.4 26.4 0 14.6-11.8 26.4-26.4 26.4-14.6 0-26.4-11.8-26.4-26.4C1504.9 1230 1516.7 1218.2 1531.3 1218.2zM945 1205.5L945 1205.5c22 22 20.6 56.6 0 79.9l-39.9 45-39.9-45c-20.6-23.2-22-57.9 0-79.9l0 0C887.1 1183.6 923 1183.6 945 1205.5z" clip-rule="evenodd" class="colorf57a44 svgShape"></path><path fill="#FFFFFF" fill-rule="evenodd" d="M905,1210.4c18.9,0,34.2,15.3,34.2,34.2c0,18.9-15.3,34.2-34.2,34.2s-34.2-15.3-34.2-34.2
			C870.8,1225.7,886.2,1210.4,905,1210.4z" clip-rule="evenodd" class="colorfff svgShape"></path><path fill="#F57A44" fill-rule="evenodd" d="M905,1218.2c14.6,0,26.4,11.8,26.4,26.4c0,14.6-11.8,26.4-26.4,26.4c-14.6,0-26.4-11.8-26.4-26.4
			C878.6,1230,890.4,1218.2,905,1218.2z" clip-rule="evenodd" class="colorf57a44 svgShape"></path><path fill="#FFB27D" fill-rule="evenodd" d="M840.5 1091.2c0 0-1.3 59.4 1.7 76.7 2.9 17.3-3.8 97.9-3.8 97.9l-13.9-1.7c0 0-34.8-131.6-31.2-148.5C796.7 1098.7 840.5 1091.2 840.5 1091.2zM838.3 1265.9c0 0 5.4 18 4.1 21.5-1.3 3.4-8.1 10.6-13.8 15-5.6 4.4-.7-11.5.4-16.7 1.1-5.2-7.2-5.5-5.9-13.5 1.3-8 1.3-8 1.3-8L838.3 1265.9z" clip-rule="evenodd" class="colorffb27d svgShape"></path><path fill="#FFB27D" fill-rule="evenodd" d="M823.1,1272.1c0,0,0,14.9-0.1,17.9c-0.2,2.9,2.9,0.3,3.4-2.3c0.4-2.6,3.1-6.9,4.4-7.3
			C832.1,1280,823.1,1272.1,823.1,1272.1z" clip-rule="evenodd" class="colorffb27d svgShape"></path><path fill="#3B5BB3" fill-rule="evenodd" d="M737.9,1494.8c5,50.3,23.1,127.7,23.1,127.7l14-10.1c0,0,24.7-173.6,28.8-187.7
			c28-98.1,31.2-194.4,31.2-194.4L753,1206c-8.4,14.1-14.9,37.2-12.9,63.4C748.7,1383.6,731.9,1434.5,737.9,1494.8z" clip-rule="evenodd" class="color3b5bb3 svgShape"></path><path fill="#FFB27D" fill-rule="evenodd" d="M655,1268.3c0,0-0.3,5.6-4.5,11.1c-1,1.2-3.8,4.5-4.8,3.3c-1.1-1.2,2.9-9.9,0.6-15.3
			C645.4,1265.5,655,1268.3,655,1268.3z" clip-rule="evenodd" class="colorffb27d svgShape"></path><path fill="#284191" fill-rule="evenodd" d="M821.1,1627.5c-0.6-1.6-2-2.9-3.7-3.4c-4.2-1.2-12.5-2.3-20-9.1c-4.3-3.9-20.6-14.2-20.6-14.2l-0.1,0
			c-0.4,0-2.1,0.5-9.5,6.8c-3.8,3.2-10.4-4.6-10.4-4.6s-1.2,1-2.1,2.9c-0.7,1.5-1.3,3.5-0.9,6.1c0.6,3.6-1.3,10.2-2.8,14.7
			c-0.9,2.7-1.7,4.6-1.7,4.6s-0.4,2.2,7.6,3.2h9.3c3.1-0.5,5.4-1.4,8.6-1.8c4.9-0.6,7.1,1.4,7.5,1.8l0.1,0.1H822
			C822.9,1633.2,822,1629.9,821.1,1627.5z" clip-rule="evenodd" class="color284191 svgShape"></path><path fill="#4567C6" fill-rule="evenodd" d="M691.9,1491c5,50.3,22,129.3,22,129.3l12.4,4c0,0,27.4-189.3,31.5-203.4c28-98.1,32.4-214.5,32.4-214.5
			l-83.2-4.1c-8.4,14.1-14.9,37.2-12.9,63.4C702.7,1379.8,685.9,1430.7,691.9,1491z" clip-rule="evenodd" class="color4567c6 svgShape"></path><path fill="#284191" fill-rule="evenodd" d="M774.2,1627.5c-0.6-1.6-2-2.9-3.7-3.4c-4.2-1.2-12.5-2.3-20-9.1c-4.3-3.9-20.6-14.2-20.6-14.2l-0.1,0
			c-0.4,0-2.1,0.5-9.5,6.8c-3.8,3.2-10-4.8-10-4.8s-1.6,1.2-2.5,3.1c-0.7,1.5-1.3,3.5-0.8,6.1c0.6,3.6-1.3,10.2-2.8,14.7
			c-0.9,2.7-1.7,4.6-1.7,4.6s-0.4,2.2,7.6,3.2h9.3c3.1-0.5,5.4-1.4,8.6-1.8c4.9-0.6,7.1,1.4,7.5,1.8l0.1,0.1h39.6
			C776.1,1633.2,775.1,1629.9,774.2,1627.5z" clip-rule="evenodd" class="color284191 svgShape"></path><path fill="#61A0E0" fill-rule="evenodd" d="M836.2,1247c-7.2,8.5-70.5,6.8-84.7,3.7c-9.8-2.2-17.3-12.5-22.7-30.9c-1.8,12.8-5.8,27.9-14.8,28.8
			c-14.7,1.5-20.8-1-22.6-6.6c-0.3-0.9,2.7-39.7,5.3-78.7c1.8-26.9,3.4-53.9,3.6-68.7c0-1.9,0-3.5,0-5c-23.3-1.3-32.4-0.3-32.4-0.3
			s11.1-35.9,36.5-65c23.6-26.9,79.7-18.9,102.5-12.2c14.3,4.2,27.9,19.6,20.9,52.3c-4.1,19.2,1.8,50,4.1,95.4
			C834.1,1203.5,837.8,1245.2,836.2,1247z" clip-rule="evenodd" class="color61a0e0 svgShape"></path><path fill="#61A0E0" fill-rule="evenodd" d="M818.7,1018.6c0,0,17.6,14.3,27.7,79.1c0,0-5.7,7.8-22.5,5.7C807.1,1101.3,818.7,1018.6,818.7,1018.6z" clip-rule="evenodd" class="color61a0e0 svgShape"></path><path fill="#284191" fill-rule="evenodd" d="M799.2,905.8c0,0-40.8-46.3-60.8-15.4c0,0-15.4,6.9-20.3,33.6c-5,27.2,13.6,47.3,22.7,42
			c5.9-3.4,10.7,6.9,10.7,6.9L799.2,905.8z" clip-rule="evenodd" class="color284191 svgShape"></path><path fill="#284191" fill-rule="evenodd" d="M742.5,885.5c0,0-5.9-21.1-36.9-13.6c0,0,14.9-2.3,19.1,3.3c0,0-12-5.1-19.3-0.3c-7.3,4.7-8.1,20-6.8,24.6
			c1.2,4.6,9.8,18.2,15.2,18.1c5.4-0.1,11.7-5.1,11.7-5.1L742.5,885.5z" clip-rule="evenodd" class="color284191 svgShape"></path><path fill="#FFB27D" fill-rule="evenodd" d="M748.5,1005.1c-0.8-4.6,3.8-12.7,3-38.4l2,0.3l33.6,5.7c0,0,0.8,27.3,1,37.2
			C788.3,1018.2,747.9,1012.4,748.5,1005.1z" clip-rule="evenodd" class="colorffb27d svgShape"></path><path fill="#F08261" fill-rule="evenodd" d="M787,972.7c0,0,0.3,9.9,0.6,19.8c-18.7,0-29.8-16.1-34.1-25.5L787,972.7z" clip-rule="evenodd" class="colorf08261 svgShape"></path><path fill="#284191" fill-rule="evenodd" d="M749.9,963.5c0,0-10.2-15.2-12.9-28.4c-1.9-9.4,1.9-44.5,37.2-40.5c0,0,10.2,0.7,20,6.9
			c7.8,4.9,19.1,15.8,7.6,46.7l-2.9,10.4L749.9,963.5z" clip-rule="evenodd" class="color284191 svgShape"></path><path fill="#FFB27D" fill-rule="evenodd" d="M748.5,956.4c-0.8-27.5-7-45.8,21.1-48.2c28.2-2.4,34,7.9,36.5,17.1C826.7,1004.7,750,997.1,748.5,956.4z" clip-rule="evenodd" class="colorffb27d svgShape"></path><path fill="#284191" fill-rule="evenodd" d="M789.8,906.9c0,0-11.2,32.6-29.6,37.9c-18.4,5.3-26.6,0.5-26.6,0.5s13.9-11.7,16.3-31.6
			C749.8,913.8,780.2,891.8,789.8,906.9z" clip-rule="evenodd" class="color284191 svgShape"></path><path fill="#284191" fill-rule="evenodd" d="M786.9,909.6c0,0,9.2,7,11.6,13.9c2.4,6.9,3.8,21.4,8,20.8c0,0,8.5-22.2-2.1-34.3
			C793.2,897,786.9,909.6,786.9,909.6z" clip-rule="evenodd" class="color284191 svgShape"></path><path fill="#284191" fill-rule="evenodd" d="M788.6,910.6c0,0-7.7,34.1-30.8,45.6c0,0,22.9-21.4,24.2-43.8C783.4,890,788.6,910.6,788.6,910.6z" clip-rule="evenodd" class="color284191 svgShape"></path><path fill="#FFB27D" fill-rule="evenodd" d="M682.1,1068.4c0,0-29.9,58.2-31.5,82.6c-1.7,24.4-5.8,94.1-5.8,94.1l12.3,6.2c0,0,25.6-91.8,27.2-105.7
			c1.7-15.5,52.4-66.9,52.4-66.9L682.1,1068.4z" clip-rule="evenodd" class="colorffb27d svgShape"></path><path fill="#61A0E0" fill-rule="evenodd" d="M735.2,1046h-44.6l-22.8,43.4c0,0,36.3,30.1,72.5,17.9C776.5,1095.1,735.2,1046,735.2,1046z" clip-rule="evenodd" class="color61a0e0 svgShape"></path><path fill="#FBBFA8" fill-rule="evenodd" d="M611,1384.7l-83.4,1.3c-12.3,0.2-21.4,10.1-22.3,22.3c-5.2,68.2-5.6,125.6,0,185.7
			c1.1,12.2,10.1,24.2,22.3,25.3c28,2.4,55.8,4,83.4,3c12.3-0.5,21.5-10.1,22.3-22.3c4.3-63.7,4.2-128,0-192.9
			C632.5,1394.7,623.2,1384.5,611,1384.7z" clip-rule="evenodd" class="colorfbbfa8 svgShape"></path><path fill="#F57A44" fill-rule="evenodd" d="M671.2,1380.7l-113.4-1c-10.2-0.1-33.8,2.1-42,9.9c3.4-2.2,7.3-3.5,11.7-3.6l83.4-1.3
			c12.3-0.2,21.5,10.1,22.3,22.3c4.2,64.9,4.3,129.2,0,192.9c-0.8,12.2-10,21.8-22.3,22.3c-8.1,0.3-16.3,0.4-24.5,0.3
			c28,2.4,66.9-2.7,84.3-7.1c11.9-3,21.1-11.6,21.9-23.8c4.3-63.7,4.9-123.7,0.7-188.6C692.7,1390.8,683.5,1380.8,671.2,1380.7z" clip-rule="evenodd" class="colorf57a44 svgShape"></path><path fill="#FC9774" fill-rule="evenodd" d="M609.4,1408.1L609.4,1408.1c-3.4,0-6.2,2.9-6.2,6.4c0.2,29.9,0.3,59.8,0.3,89.6c0,29.9-0.3,59.8-0.5,89.6
			c0,3.5,2.8,6.4,6.3,6.4l0,0c3.5,0,6.4-2.8,6.4-6.3c0.4-29.9,0.8-59.8,0.8-89.8c0-29.9-0.3-59.8-0.8-89.8
			C615.7,1410.9,612.8,1408,609.4,1408.1L609.4,1408.1z M530.5,1409.8L530.5,1409.8c-3.4,0-6.4,2.8-6.6,6.3
			c-1.4,29.1-2.6,58.2-2.9,87.2c-0.2,29.1,0.5,58.2,1.7,87.3c0.1,3.4,3.1,6.2,6.6,6.3l0,0c3.5,0.1,6.2-2.7,6.1-6.1
			c-0.9-29.1-1.5-58.3-1.3-87.4c0.2-29.1,1.2-58.2,2.4-87.4C536.6,1412.6,533.9,1409.8,530.5,1409.8L530.5,1409.8z M556.8,1409.3
			L556.8,1409.3c-3.4,0.1-6.4,3-6.5,6.4c-0.9,29.3-1.7,58.5-1.8,87.8c-0.2,29.2,0.3,58.5,1,87.8c0.1,3.4,3,6.4,6.5,6.5l0,0
			c3.5,0.2,6.3-2.5,6.2-5.9c-0.5-29.4-0.8-58.8-0.6-88.2c0.1-29.4,0.7-58.8,1.3-88.2C563,1412,560.2,1409.2,556.8,1409.3
			L556.8,1409.3z M583.1,1408.6L583.1,1408.6c-3.4,0.1-6.3,3.1-6.3,6.5c-0.3,29.6-0.7,59.2-0.8,88.8c-0.1,29.6,0,59.2,0.2,88.8
			c0,3.5,2.9,6.4,6.4,6.6l0,0c3.5,0.2,6.3-2.5,6.3-6c0-29.7,0-59.5,0.1-89.2c0.1-29.7,0.2-59.4,0.2-89.2
			C589.3,1411.3,586.5,1408.5,583.1,1408.6z" clip-rule="evenodd" class="colorfc9774 svgShape"></path><path fill="#FBBFA8" fill-rule="evenodd" d="M658.5,1594.9c4.3-64.5,4.9-125.2,0.7-190.9c-0.8-12.4-10-22.5-22.3-22.6l-93.8-0.8c5.7-0.7,11.1-1,14.7-0.9
			l99.6,0.9c9.1,2.8,15.5,11.5,16.2,21.8c4.2,66,3.6,127.1-0.7,191.9c-0.8,12.4-10,21.2-21.9,24.2c-2.4,0.6-5.2,1.2-8.3,1.9
			c-7.5,0.9-15.5,1.7-23.5,2.2c6.9-1.1,12.9-2.3,17.5-3.5C648.5,1616,657.7,1607.3,658.5,1594.9z" clip-rule="evenodd" class="colorfbbfa8 svgShape"></path><path fill="#8BBAE9" fill-rule="evenodd" d="M643.4,1294.1v86.4l8.4,0.1v-86.4H643.4L643.4,1294.1z M589.4,1294.1v85.9l8.4,0.1v-86H589.4z" clip-rule="evenodd" class="color8bbae9 svgShape"></path><path fill="#FC9774" fill-rule="evenodd" d="M648.2,1271.4l-55,1.3c-3.5,0.1-6.4,2.9-6.4,6.4v15h13.7v-2.9c0-4.1,3.3-7.4,7.4-7.4h24.2
			c4.1,0,7.4,3.3,7.4,7.4v2.9h15.1v-16.4C654.6,1274.2,651.7,1271.3,648.2,1271.4z" clip-rule="evenodd" class="colorfc9774 svgShape"></path><path fill="#61A0E0" fill-rule="evenodd" d="M593.9,1380v-85.9h3.9v86L593.9,1380L593.9,1380z M648.1,1380.5l3.7,0v-86.4h-3.7V1380.5z" clip-rule="evenodd" class="color61a0e0 svgShape"></path><path fill="#F57A44" fill-rule="evenodd" d="M628.1 1623.4c-4.7 0-12.2 0-12.5 13.6-.2 13.6 7.8 12.5 12.5 12.5 4.7 0 8.5-5.8 8.5-13.1C636.5 1629.2 632.8 1623.4 628.1 1623.4zM659.1 1618.9c-3.6 0-9.3 0-9.4 10.3-.2 10.3 5.9 9.5 9.4 9.5 3.5 0 6.4-4.4 6.4-9.9S662.7 1618.9 659.1 1618.9zM565.2 1621.8c-.7 1.3-1.1 3.2-1.1 5.7-.1 9.3 5.3 8.6 8.5 8.6 3.2 0 5.8-4 5.8-8.9 0-1.8-.4-3.5-1-4.9C573.3 1622.1 569.3 1622 565.2 1621.8zM544.4 1620.3c-4.4 0-11.6 0-11.8 12.9-.2 12.9 7.4 11.9 11.8 11.9 4.4 0 8-5.5 8-12.4C552.4 1625.8 548.8 1620.3 544.4 1620.3z" clip-rule="evenodd" class="colorf57a44 svgShape"></path><path fill="#FBBFA8" fill-rule="evenodd" d="M628.1 1629.3c-2.6 0-4.6 3.2-4.6 7.1 0 3.9 2.1 7.1 4.6 7.1s4.6-3.2 4.6-7.1C632.7 1632.5 630.6 1629.3 628.1 1629.3zM659.1 1623.3c-1.9 0-3.5 2.4-3.5 5.4 0 3 1.6 5.4 3.5 5.4 1.9 0 3.5-2.4 3.5-5.4C662.6 1625.8 661.1 1623.3 659.1 1623.3zM572.6 1622.3c-1.8 0-3.2 2.2-3.2 4.9 0 2.7 1.4 4.9 3.2 4.9 1.8 0 3.2-2.2 3.2-4.9C575.8 1624.5 574.3 1622.3 572.6 1622.3zM544.4 1625.9c-2.4 0-4.4 3-4.4 6.8 0 3.7 2 6.8 4.4 6.8 2.4 0 4.4-3 4.4-6.8C548.8 1628.9 546.8 1625.9 544.4 1625.9z" clip-rule="evenodd" class="colorfbbfa8 svgShape"></path><path fill="#F57A44" fill-rule="evenodd" d="M651.8,1294.1h-3.7h-4.7h-4v-2.9c0-4.1-3.3-7.4-7.4-7.4h-24.2c-4,0-7.2,3.2-7.4,7.1v-1.7
			c0-4.1,3.3-7.4,7.4-7.4h24.4c4.1,0,7.4,3.3,7.4,7.4v2.9h14.8v1.9H651.8L651.8,1294.1z M600.5,1292.2v1.9h-2.7h-3.9h-4.5h-2.6v-1.9
			H600.5z" clip-rule="evenodd" class="colorf57a44 svgShape"></path><path fill="#FFB27D" fill-rule="evenodd" d="M644.7,1245.1c0,0-11,12.9-12.2,19.6c-1.2,6.7-0.6,24.6,2.8,25.2c3.6,0.7,5.8-11.7,6.9-14.1
			c3.9-8.2,11.7-4.4,12.7-7.3c1-2.9,2.1-17.1,2.1-17.1L644.7,1245.1z" clip-rule="evenodd" class="colorffb27d svgShape"></path><g><path fill="#FFFFFF" fill-rule="evenodd" d="M508.7,1221.4c-0.9-6.3-5-12-10.7-14.9c-5.7-2.9-12.7-2.9-18.3,0.1c-3.5-9.2-13.2-15.6-23-15.3
			c-9.8,0.3-19.1,7.4-22,16.8c-6.2-0.4-12,5.5-11.6,11.7c-4.7-2.1-10.4,3.4-9.3,8.4c1.1,5,7.2,7.9,12.2,6.7
			c12.6,9.3,30.2,11,44.4,4.4c11.2,7.4,28.5,3.1,34.9-8.7c-0.8,1.6,12.6,4.1,15.2-1.6C523.4,1222.4,513.7,1218.5,508.7,1221.4z" clip-rule="evenodd" class="colorfff svgShape"></path><path fill="#F0F3FA" fill-rule="evenodd" d="M413.8,1228.1c1.1,5,7.2,7.9,12.2,6.7c12.6,9.3,30.2,11,44.4,4.4c11.2,7.4,28.5,3.1,34.9-8.7
			c-0.8,1.6,12.6,4.1,15.2-1.6c2.9-6.5-6.8-10.4-11.7-7.5c-0.9-6.3-5-12-10.7-14.9c-1.6-0.8-3.3-1.4-5-1.7c1.9,2.4,3.5,5,4.1,7.9
			c0.9,4-0.4,8.8-4,10.9c-2.5,1.5-5.5,1.5-8.4,1.3c-3.4-0.2-7.4-0.9-8.8-4c-0.5-1.1-0.5-2.2-0.7-3.4c-1-5.7-6.7-10.2-12.5-9.9
			c3,0.4,5,3.8,4.3,6.8c-0.6,3-3.2,5.2-6,6.2c-2.8,1-5.9,1-9,0.8c-5-0.3-10.6-1.2-13.8-5.1c-2.5,2.6-6.9,3.2-9.9,1.3
			c-1.5-1-2.5-2.4-3.1-4.1c0-0.1-0.1-0.3-0.1-0.6c-1.4,2-2.2,4.3-2.1,6.8C418.4,1217.5,412.7,1223,413.8,1228.1z" clip-rule="evenodd" class="colorf0f3fa svgShape"></path><path fill="#E5EEF3" fill-rule="evenodd" d="M505.3,1230.5c-0.8,1.6,12.6,4.1,15.2-1.6c2.9-6.5-6.8-10.4-11.7-7.5c2.3-0.3,4.8-0.3,7.1,0.1
			c1.3,0.2,2.7,0.7,3.2,1.9c0.2,0.5,0.2,1,0.2,1.5c-0.1,1.8-0.9,3.5-2.4,4.5c-1.3,0.8-2.9,1-4.5,1
			C510.3,1230.5,507.3,1230.5,505.3,1230.5z" clip-rule="evenodd" class="colore5eef3 svgShape"></path><path fill="#E5EEF3" fill-rule="evenodd" d="M505.3,1230.5c-6.4,11.9-23.6,16.2-34.9,8.7c-14.1,6.6-31.8,4.8-44.4-4.4c-5,1.2-11.1-1.7-12.2-6.7
			c-1.1-5,4.6-10.5,9.3-8.4c-3.4,0.3-5.7,4.4-4.7,7.6c1,3.3,5.3,5,8.3,3.3c-0.7-1.8-1.1-3.8-1.1-5.8c1.3,2.9,4.9,3.8,8.1,3.9
			c3,0.1,6.1-0.3,9-1.1c-0.7,3.7-4.1,6.7-7.9,7c5.5,3.1,12,3.7,18.2,3.7c4.2,0,8.6-0.4,12.3-2.5c3.7-2.1,6.4-6.4,5.5-10.5
			c3.1,2.8,4,7.7,2,11.3c5.1,2.7,11.2,3.1,16.7,1.8S500.9,1234.2,505.3,1230.5z" clip-rule="evenodd" class="colore5eef3 svgShape"></path></g><g><path fill="#FFFFFF" fill-rule="evenodd" d="M518,920.3c-18.9-10.5-20.6-40.6-0.7-50.7c2.4-1.2,6.1-3.2,8.8-3.6c1.4-0.2,10.4,1,10.3,3
			c0.3-6.9,5.5-12.8,11.4-16.3c15-8.8,36.4-4.2,46.4,10c10,14.2,7.1,35.9-6.3,47c5.3-2.4,12.1-0.8,15.9,3.7
			c3.7,4.5,4.1,11.5,0.8,16.3c7-4.1,17.1-1.6,21.4,5.3c10.7-2.3,22-1.4,32.1,2.7c2.3,0.9,4.6,2,6,4c1.5,1.9,1.8,4.9,0.1,6.7
			c-1.1,1.1-2.7,1.6-4.2,1.9c-5.8,1.2-11.9,1.2-17.8,1.2c-27.9,0.1-55.7,0.3-83.6,0.4c-2.8,0-5.7,0-8.3-1.1
			c-2.6-1.2-4.7-3.8-4.3-6.6c-4.1,3.2-8.9,5.7-14,6.3c-5.2,0.6-10.7-1-14.2-4.9c-16.2,4.4-33.4,5.4-50,3c-2.7-0.4-5.6-0.9-7.9-2.5
			c-2.3-1.5-4-4.3-3.5-7c0.5-2.7,3.1-4.7,5.8-5.3c2.7-0.6,5.5-0.1,8.3,0.5c-1.1-5.3,2.1-10.8,6.7-13.8c4.5-3,10.1-3.8,15.5-4
			C501.3,916.2,509.9,917.5,518,920.3z" clip-rule="evenodd" class="colorfff svgShape"></path><path fill="#F0F3FA" fill-rule="evenodd" d="M462.3,933.8c-2.7,0.6-5.3,2.5-5.8,5.3c-0.5,2.7,1.2,5.5,3.5,7c2.3,1.5,5.1,2.1,7.9,2.5
			c16.6,2.4,33.8,1.4,50-3c3.5,3.8,9.1,5.4,14.2,4.9c5.2-0.6,10-3.1,14-6.3c-0.4,2.8,1.7,5.4,4.3,6.6c2.6,1.2,5.5,1.2,8.3,1.1
			c27.9-0.1,55.7-0.3,83.6-0.4c6,0,12-0.1,17.8-1.2c1.5-0.3,3.1-0.7,4.2-1.9c1.6-1.8,1.3-4.8-0.1-6.7c-0.5-0.7-1.2-1.3-1.9-1.9
			c-8.5,2.5-17.8,1.6-26.6,0c-3-0.5-6.2-1.3-8.3-3.5c-0.4-0.4-0.7-0.9-0.9-1.3c-0.1,0-0.3,0.1-0.4,0.1c-4.3-6.9-14.4-9.4-21.4-5.3
			c3.3-4.8,3-11.8-0.8-16.3c-3.7-4.5-10.5-6-15.9-3.7c10-8.3,14.1-22.5,11.4-35.1c-1.3,8.7-4.3,17.1-9.7,24
			c-6.4,8.1-16.3,13.7-26.6,13.5c-1.4-10.6-8.3-20.3-17.8-25.2c5.2,3.9,5.3,12.5,0.9,17.3c-4.4,4.8-12.1,5.6-18,2.8
			c-5.8-2.8-9.8-8.8-11.3-15.1c-2.3-9.4,0.9-17.3,5.8-24.9c-1.9,0.8-3.9,1.8-5.4,2.6c-20,10.1-18.3,40.3,0.7,50.7
			c-2-0.7-4.1-1.3-6.2-1.8c-6.9,1.8-14.5,2.9-21.3,4.8c-7.2,1.9-14.4,6.4-16.5,13.5c-1.1-0.9-2.3-1.8-3.5-2.5c0,0,0,0,0,0
			C467.8,933.7,465,933.2,462.3,933.8z" clip-rule="evenodd" class="colorf0f3fa svgShape"></path><path fill="#E5EEF3" fill-rule="evenodd" d="M518 920.3c-18.9-10.5-20.6-40.6-.7-50.7 1.5-.8 3.5-1.8 5.4-2.6-10 4.9-15.1 16.4-15.3 27.5-.1 5.7.9 11.8 4.7 16.2 3.4 3.9 8.6 5.9 13.8 6.2 5.2.3 10.3-.9 15.3-2.4C535.3 920 525.1 924.2 518 920.3zM604.7 929.7c3.3-4.8 3-11.8-.8-16.3-3.7-4.5-10.5-6-15.9-3.7 3.9-.7 7.7 3 8.4 6.9.8 3.9-.8 8-3.2 11.2-1 1.3-2.1 2.6-3.6 3.4-2.2 1.2-4.8 1.3-7.4 1.2-5.8-.3-12.3-1.9-14.9-7-.5 4 2.2 7.8 5.7 9.7 3.5 1.9 7.6 2.3 11.6 2.4 3.8.1 7.6-.1 11.2-1.2C599.5 935.2 602.6 932.8 604.7 929.7zM664.2 941.6c1.5 1.9 1.8 4.9.1 6.7-1.1 1.1-2.7 1.6-4.2 1.9-5.8 1.2-11.9 1.2-17.8 1.2-27.9.1-55.7.3-83.6.4-2.8 0-5.7 0-8.3-1.1-2.6-1.2-4.7-3.8-4.3-6.6 4.4 3.1 9.7 3.7 15.1 3.9 6.5.2 13.1.2 19.5-1.3 6.4-1.5 12.5-4.7 16.5-9.9.5 4.3-1.6 8.7-5.2 11 18.9-2.3 38-.1 57-.5C654.5 947.3 662.1 946.8 664.2 941.6z" clip-rule="evenodd" class="colore5eef3 svgShape"></path><path fill="#E5EEF3" fill-rule="evenodd" d="M546.2,944.1c-4.1,3.2-8.9,5.7-14,6.3c-5.2,0.6-10.7-1-14.2-4.9c-16.2,4.4-33.4,5.4-50,3
			c-2.7-0.4-5.6-0.9-7.9-2.5c-2.3-1.5-4-4.3-3.5-7c2.2,4.3,8,5.2,12.9,5.6c5.6,0.5,11.2,0.1,16.6-1.2c-2.5-0.5-4.9-1.9-6.7-3.8
			c14.8,3.6,30.9,2.3,44.9-3.7c-0.6,2.7,1.1,5.6,3.5,6.9c2.4,1.4,5.4,1.4,8.1,0.9c9.1-1.7,16.3-10.3,16.5-19.6
			C553.8,931,551.6,939.8,546.2,944.1z" clip-rule="evenodd" class="colore5eef3 svgShape"></path></g><g><path fill="#FFFFFF" fill-rule="evenodd" d="M598.5,441.3c-14.3,4.3-27.2,14.9-30.8,28.4c-8.1-3.2-17.3-5-25.6-2.5c-8.4,2.5-15.6,10.3-15.2,19
			c-7.5-1.6-15.1-3.2-22.7-2.5c-7.3,0.7-15.2,4.1-19.6,10.2c-1.4,1.9-2.2,4.3-1.8,6.6c-5.8-4-13.6-4.9-20.5-4.1c-4,0.5-8,1.6-11,4.2
			c-3,2.6-4.9,6.8-3.8,10.7c1.9,6.7,10.5,8.4,17.4,8.9c12.9,0.9,25.8,1.7,38.6,2.6c35.7,2.4,71.7,4.7,107.3,0.7
			c2.9-0.3,6.3-1,7.5-3.7c1.1-2.5-0.4-5.5-2.7-7c-2.3-1.5-5.1-1.8-7.8-2c16.3,0,32.6,0,48.9,0.1c13.1,0,26.1,0,39.2-0.1
			c13.7-0.2,27.7-0.6,40.6-5.3c2.5-0.9,5.3-2.4,5.7-5c0.5-2.5-1.6-5-4-5.8c-2.4-0.9-5.1-0.6-7.6-0.2c6.5-0.3,8.8-10.1,4.4-15
			c-4.4-4.8-11.9-5.2-18.2-3.6c-6.3,1.6-12.2,4.7-18.6,5.6c-4.7-8.9-14.3-15.5-24.4-16.1c-6.1-0.3-27.4,3.5-29.2,11.1
			c3.4-14.5-6.7-30.3-20.8-35.3C616,438.5,607,438.8,598.5,441.3z" clip-rule="evenodd" class="colorfff svgShape"></path><path fill="#F0F3FA" fill-rule="evenodd" d="M484.6,494c-1.4,1.9-2.2,4.3-1.8,6.6c-5.8-4-13.6-4.9-20.5-4.1c-4,0.5-8,1.6-11,4.2c-3,2.6-4.9,6.8-3.8,10.7
			c1.9,6.7,10.5,8.4,17.4,8.9c12.9,0.9,25.8,1.7,38.6,2.6c35.7,2.4,71.7,4.7,107.3,0.7c2.9-0.3,6.3-1,7.5-3.7c1.1-2.5-0.4-5.5-2.7-7
			c-2.3-1.5-5.1-1.8-7.8-2c16.3,0,32.6,0,48.9,0.1c13.1,0,26.1,0,39.2-0.1c13.7-0.2,27.7-0.6,40.6-5.3c2.5-0.9,5.3-2.4,5.7-5
			c0.5-2.5-1.6-5-4-5.8c-2.4-0.9-5.1-0.6-7.6-0.2c6.5-0.3,8.8-10.1,4.4-15c-4.4-4.8-11.9-5.2-18.2-3.6c-6.3,1.6-12.2,4.7-18.6,5.6
			c-2-3.7-4.8-7-8.1-9.7c-4,8-10.5,14.8-18.4,19.1c-10.9,5.9-25.9,6.6-37.6,2.4c5-4.9,8.7-11,10.8-17.7c-0.1,0.3-0.3,0.6-0.3,0.9
			c1.3-5.4,0.7-10.9-1.3-16c-2,7.2-4.8,14.2-9.5,19.9c-6.1,7.6-16.2,12.6-25.7,10.3c-4.3-1.1-8.1-3.5-11.3-6.4
			c-10.1-9.2-14.5-24.6-10.6-37.5c-8.9,5.4-16,13.5-18.6,22.9c0,0,0,0,0,0c0,9.1,3.8,18.3,10.6,24.5c-14.3,4.5-31,4.2-45.2-0.6
			c4.2,5.6,10.3,9.8,17.1,11.8c-14.3,5-30.4,4.7-44.4-0.9c-3.9-1.6-8-3.9-9.4-7.8c-1.4-4,0.5-8.6,3.6-11.6c0.3-0.3,0.7-0.6,1-0.9
			C494.6,485.5,488.2,488.7,484.6,494z" clip-rule="evenodd" class="colorf0f3fa svgShape"></path><path fill="#E5EEF3" fill-rule="evenodd" d="M730.6 494.5c6.5-.3 8.8-10.1 4.4-15-4.4-4.8-11.9-5.2-18.2-3.6 2.1 0 4.7.3 6.5 1.3 1.8 1 3.3 2.8 3.6 4.8.2 1.1 0 2.2-.4 3.3-1.6 4.7-6 8-10.7 9.8-7 2.6-14.7 2.3-22.2 2.1C706 498.8 718.1 495.1 730.6 494.5zM615.6 513c2.3 1.5 3.8 4.5 2.7 7-1.2 2.7-4.6 3.4-7.5 3.7-35.6 4-71.5 1.6-107.3-.7-12.9-.9-25.8-1.7-38.6-2.6-7-.5-15.5-2.2-17.4-8.9-1.1-3.8.8-8.1 3.8-10.7-1.4 2.8-.2 6.2 1.9 8.5 2.1 2.3 5.1 3.5 8.1 4.4 13.5 4.3 28 3.7 42.2 3.1-4.5-.6-8.7-3.5-10.8-7.6 18 8 38.2 8.7 57.9 9.2 12 .3 24.1.6 35.7-2.1-5.6.1-11.2-1.6-15.8-4.8C585.7 514.7 600.7 516.9 615.6 513z" clip-rule="evenodd" class="colore5eef3 svgShape"></path><path fill="#E5EEF3" fill-rule="evenodd" d="M607.8,510.9c16.3,0,32.6,0,48.9,0.1c13.1,0,26.1,0,39.2-0.1c13.7-0.2,27.7-0.6,40.6-5.3
			c2.5-0.9,5.3-2.4,5.7-5c0.5-2.5-1.6-5-4-5.8c0.1,2-1.7,3.7-3.4,4.7c-1.7,1.1-3.7,1.5-5.6,1.9c-22.1,4.4-44.8,4.3-67.3,4.2
			c-8.8,0-18.1-0.3-25.4-5.2C628,506.5,618.3,510.7,607.8,510.9z" clip-rule="evenodd" class="colore5eef3 svgShape"></path></g><g><path fill="#FFFFFF" fill-rule="evenodd" d="M266.5,1058.8c15.5-32.8,62.2-45.9,92.5-25.8c17.5-22.9,48.1-34.9,76.5-29.9c28.3,5,53.1,26.7,61.8,54.1
			c15.3-2.5,32.8,4.9,38.4,19.4c5.6,14.5-5.2,33.7-20.7,33.6c-5.1,0-10.2-1.9-15.2-0.6c-3.9,1.1-7,4-10.1,6.7
			c-38.9,33.3-105.2,26.8-136.8-13.5c-22.4,19.5-59.4,19-81.2-1.1c2.9,2.7-30.5,9.7-34.3,9.1c-12.2-1.9-27.5-9.3-29.6-22.9
			C203.3,1059.3,246.7,1045.2,266.5,1058.8z" clip-rule="evenodd" class="colorfff svgShape"></path><path fill="#F0F3FA" fill-rule="evenodd" d="M207.6,1087.7c2,13.6,17.4,21,29.6,22.9c3.8,0.6,37.2-6.4,34.3-9.1c21.8,20.1,58.9,20.6,81.2,1.1
			c31.6,40.3,97.9,46.8,136.8,13.5c3.1-2.7,6.2-5.6,10.1-6.7c4.9-1.3,10.1,0.6,15.2,0.6c15.5,0.1,26.3-19.1,20.7-33.6
			c-5.6-14.5-23.1-21.9-38.4-19.4c-2.7-8.6-7-16.6-12.5-23.7c1.5,16.2-3.7,33-14.4,45.3c-5.7,6.5-12.9,11.8-21,14.8
			c-11.7,4.3-24.7,3.6-37.1,2c-8.3-1-16.8-2.4-24.2-6.4c-7.4-3.9-13.7-10.8-15-19.1c-1.1-7,1.6-14.1,5-20.4
			c5.2-9.6,12.4-18.1,21-24.8c-22.9,3.9-43,20.7-50.9,42.5c-1.1,3.1-2.1,6.4-4.5,8.6c-2,1.8-4.6,2.7-7.2,3.5
			c-12.8,3.6-26.1,5.2-39.3,4.6c-11.1-0.5-23.5-3.3-29.5-12.7c-3.9,5.7-9.7,10.7-16.5,11.8c-6.9,1.1-14.7-3-16.2-9.8
			c-1.2-5.4,1.8-10.9,6.1-14.4c1.5-1.2,7-3.2,10.1-5.2C230.1,1052,204.3,1065.4,207.6,1087.7z" clip-rule="evenodd" class="colorf0f3fa svgShape"></path><path fill="#E5EEF3" fill-rule="evenodd" d="M352.8 1102.7c31.6 40.3 97.9 46.8 136.8 13.5 3.1-2.7 6.2-5.6 10.1-6.7 4.9-1.3 10.1.6 15.2.6 15.5.1 26.3-19.1 20.7-33.6-2.4 10-11.4 18.6-20.9 22.7-9.5 4-20.8 3.4-29.7-1.8-3.2 10.4-12.1 18.4-22.1 22.7-10 4.2-21.2 5.2-32.1 5.4-7.6.1-15.2-.2-22.6-1.8-12.7-2.8-24.1-9.5-35.1-16.4-9-5.6-18.5-12.6-20.5-23C352.4 1089.7 353.1 1097.2 352.8 1102.7zM352.8 1102.7c-22.4 19.5-59.4 19-81.2-1.1 2.9 2.7-30.5 9.7-34.3 9.1-12.2-1.9-27.5-9.3-29.6-22.9-3.3-22.3 22.5-35.8 43.4-34-10.3 2.6-20.9 6.5-26.3 15.6-5.4 9.1-4.4 22.6 4.3 28.6 5.7 4 13.3 4.1 20.2 3.1 8.3-1.2 17.2-4.6 21.1-12.1 9.9 10.7 24.4 16.2 38.9 17.7C323.7 1108.1 338.5 1105.5 352.8 1102.7z" clip-rule="evenodd" class="colore5eef3 svgShape"></path></g><g><path fill="#FFFFFF" fill-rule="evenodd" d="M866,453.3c5.3-2.3,11.9-1.5,16.5,2.1c-0.9-11.9,6.6-23.9,17.7-28.3c11.1-4.4,24.8-0.7,32.2,8.5
			c5.4-18.2,23-32.7,42-32.6c19,0.1,37.1,16.1,37.8,35.1c5.2-6.8,15-7.7,23.5-7.4c8.5,0.3,17.6,1.4,24.1,6.9
			c9.2,7.8,10.1,21.5,9.6,33.6c10.5-4.9,24-4.6,32.7,3.1c8.7,7.7,9.8,23.3,0.6,30.5c-7.6,6-18.6,4.5-28,2.2
			c-8,13.3-21,23.9-36.1,27.5c-15.1,3.6-32.2-0.3-43.2-11.3c-8.3,11.7-23.3,18.3-37.6,16.5c-14.3-1.8-27.1-12.1-32.1-25.5
			c-9.1,6.3-21.9,6.6-31.3,0.8c-9.4-5.8-14.8-17.5-13.3-28.4c-6.2,4.4-15.5,4-21.2-1.1C849.8,476.9,854.2,458.4,866,453.3z" clip-rule="evenodd" class="colorfff svgShape"></path><path fill="#F0F3FA" fill-rule="evenodd" d="M900.2,427.1c-11.1,4.4-18.6,16.4-17.7,28.3c-4.6-3.5-11.1-4.4-16.5-2.1c-11.8,5.1-16.2,23.5-6.2,32.3
			c5.8,5,15,5.5,21.2,1.1c-1.6,10.9,3.9,22.6,13.3,28.4c9.4,5.8,22.2,5.5,31.3-0.8c5,13.5,17.9,23.7,32.1,25.5
			c14.3,1.9,29.3-4.7,37.6-16.5c11,11,28.1,14.9,43.2,11.3c15.1-3.6,28.1-14.2,36.1-27.5c9.4,2.3,20.4,3.8,28-2.2
			c9.1-7.2,8-22.8-0.6-30.5c-8.7-7.7-22.2-8-32.7-3.1c0.4-9.8-0.1-20.7-5.2-28.6c0.5,10.9-1.6,22-6,32c-2,4.5-4.6,9-8.8,11.8
			c-3.5,2.3-7.8,3.1-11.9,3.7c-8.1,1.2-16.4,1.6-24.6,1.4c-4.7-0.1-10.2-0.9-12.5-5c8.9-12.6,10.1-30.1,3-43.8
			c-5.9,15.4-19.7,28.3-36.1,30c-16.4,1.7-33.9-10.2-35.7-26.5c-2.4,9.3-0.4,19.6,5.4,27.3c-8.1,2-16.8,1.4-24.6-1.7
			c-7.2-2.8-13.9-8.3-16.1-15.7c-2.2-7.7,0.9-16.2,6.3-22.1c3.6-3.9,7.9-6.2,12.3-8.4C909.9,424.9,904.8,425.3,900.2,427.1z" clip-rule="evenodd" class="colorf0f3fa svgShape"></path><path fill="#E5EEF3" fill-rule="evenodd" d="M1102.1,474.5c8.7,7.7,9.8,23.3,0.6,30.5c-7.6,6-18.6,4.5-28,2.2c-8,13.3-21,23.9-36.1,27.5
			c-15.1,3.6-32.2-0.3-43.2-11.3c-8.3,11.7-23.3,18.3-37.6,16.5c-14.3-1.8-27.1-12.1-32.1-25.5c-9.1,6.3-21.9,6.6-31.3,0.8
			c-9.4-5.8-14.8-17.5-13.3-28.4c-6.2,4.4-15.5,4-21.2-1.1c8,0.2,16.8-2.5,23.9-6.2c-0.6-4.2,0.5-8.6,2.9-12.1
			c-1.3,11.7,2.4,24.2,10.6,32.6c8.3,8.4,21.3,12.2,32.5,8.5c-1.1-5.4-1.1-11-0.2-16.4c4.8,16.7,18.7,31,35.7,34.6
			c17,3.6,36.3-4.5,44.4-19.9c0.1,6-1.5,12.1-4.6,17.2c9,4.5,20,4.5,29.4,1c9.5-3.5,17.5-10.2,23.7-18.2c5.5-7.1,9.8-15.6,9.6-24.6
			c4.6,3.7,7.6,9.5,7.9,15.4c0.1,1.3,0.1,2.7,0.9,3.6c0.5,0.6,1.2,0.9,1.9,1.2c7,2.5,15.1-1.1,19.4-7.1
			C1102.2,489.1,1103.2,481.8,1102.1,474.5z" clip-rule="evenodd" class="colore5eef3 svgShape"></path></g><g><path fill="#FFFFFF" fill-rule="evenodd" d="M1591.1,1055c4.6-2,10.2-1.3,14.2,1.8c-0.8-10.2,5.7-20.6,15.3-24.4c9.5-3.8,21.4-0.6,27.8,7.4
			c4.6-15.7,19.8-28.2,36.2-28.1c16.4,0.1,32,13.9,32.6,30.2c4.5-5.9,12.9-6.6,20.3-6.3c7.3,0.3,15.2,1.2,20.7,6
			c7.9,6.7,8.7,18.6,8.3,29c9-4.2,20.7-3.9,28.2,2.7c7.5,6.6,8.4,20.1,0.6,26.3c-6.6,5.2-16,3.9-24.1,1.9
			c-6.9,11.5-18.1,20.6-31.1,23.7c-13,3.1-27.7-0.3-37.2-9.7c-7.2,10.1-20.1,15.8-32.4,14.2c-12.3-1.6-23.3-10.4-27.7-22
			c-7.8,5.4-18.9,5.7-27,0.6c-8.1-5-12.8-15-11.4-24.5c-5.4,3.8-13.3,3.4-18.3-0.9C1577.2,1075.3,1580.9,1059.4,1591.1,1055z" clip-rule="evenodd" class="colorfff svgShape"></path><path fill="#F0F3FA" fill-rule="evenodd" d="M1620.6,1032.4c-9.5,3.8-16,14.1-15.3,24.4c-4-3-9.6-3.7-14.2-1.8c-10.2,4.4-13.9,20.3-5.3,27.8
			c5,4.3,12.9,4.7,18.3,0.9c-1.3,9.4,3.3,19.5,11.4,24.5c8.1,5,19.2,4.8,27-0.6c4.3,11.6,15.4,20.4,27.7,22
			c12.3,1.6,25.2-4.1,32.4-14.2c9.5,9.4,24.2,12.8,37.2,9.7c13-3.1,24.2-12.2,31.1-23.7c8.1,2,17.6,3.3,24.1-1.9
			c7.8-6.2,6.9-19.6-0.6-26.3c-7.5-6.6-19.1-6.9-28.2-2.7c0.3-8.4-0.1-17.8-4.5-24.7c0.4,9.4-1.4,18.9-5.2,27.6
			c-1.7,3.9-4,7.8-7.6,10.1c-3,2-6.7,2.7-10.3,3.2c-7,1-14.1,1.4-21.2,1.2c-4.1-0.1-8.7-0.8-10.8-4.3c7.6-10.8,8.7-25.9,2.6-37.7
			c-5.1,13.2-17,24.4-31.1,25.8c-14.1,1.4-29.2-8.8-30.8-22.9c-2.1,8-0.3,16.9,4.6,23.5c-7,1.7-14.5,1.2-21.2-1.4
			c-6.2-2.5-12-7.1-13.9-13.5c-1.9-6.6,0.7-14,5.5-19.1c3.1-3.3,6.8-5.3,10.6-7.3C1629,1030.5,1624.6,1030.9,1620.6,1032.4z" clip-rule="evenodd" class="colorf0f3fa svgShape"></path><path fill="#E5EEF3" fill-rule="evenodd" d="M1794.5,1073.3c7.5,6.6,8.4,20.1,0.6,26.3c-6.6,5.2-16,3.9-24.1,1.9c-6.9,11.5-18.1,20.6-31.1,23.7
			c-13,3.1-27.7-0.3-37.2-9.7c-7.2,10.1-20.1,15.8-32.4,14.2c-12.3-1.6-23.3-10.4-27.7-22c-7.8,5.4-18.9,5.7-27,0.6
			c-8.1-5-12.8-15-11.4-24.5c-5.4,3.8-13.3,3.4-18.3-0.9c6.9,0.2,14.5-2.1,20.6-5.4c-0.5-3.6,0.4-7.4,2.5-10.5
			c-1.1,10.1,2,20.8,9.2,28.1c7.1,7.3,18.4,10.5,28,7.3c-0.9-4.7-1-9.5-0.1-14.1c4.1,14.4,16.1,26.7,30.8,29.8
			c14.7,3.1,31.3-3.9,38.2-17.2c0.1,5.2-1.3,10.4-4,14.8c7.8,3.9,17.2,3.9,25.3,0.9c8.2-3,15.1-8.8,20.4-15.7
			c4.7-6.1,8.4-13.4,8.2-21.2c4,3.2,6.5,8.2,6.8,13.3c0.1,1.1,0.1,2.3,0.8,3.1c0.4,0.5,1.1,0.8,1.7,1c6,2.1,13-0.9,16.7-6.1
			C1794.6,1085.9,1795.5,1079.6,1794.5,1073.3z" clip-rule="evenodd" class="colore5eef3 svgShape"></path></g><g><path fill="#FFFFFF" fill-rule="evenodd" d="M850.1,897.6c4.8-2,10.6-1.3,14.7,1.9c-0.8-10.6,6-21.4,15.9-25.3c9.9-3.9,22.2-0.7,28.9,7.7
			c4.8-16.3,20.6-29.3,37.6-29.2c17,0.1,33.3,14.4,33.9,31.5c4.6-6.1,13.4-6.9,21.1-6.6c7.6,0.3,15.8,1.3,21.6,6.2
			c8.3,7,9.1,19.3,8.6,30.1c9.4-4.4,21.5-4.1,29.3,2.8c7.8,6.9,8.7,20.9,0.6,27.3c-6.8,5.4-16.7,4-25.1,1.9
			c-7.2,12-18.8,21.4-32.4,24.7c-13.6,3.2-28.8-0.3-38.7-10.1c-7.4,10.5-20.9,16.4-33.7,14.7c-12.8-1.7-24.3-10.8-28.8-22.9
			c-8.2,5.6-19.7,5.9-28.1,0.7c-8.4-5.2-13.3-15.6-11.9-25.5c-5.6,4-13.9,3.5-19-1C835.6,918.7,839.5,902.1,850.1,897.6z" clip-rule="evenodd" class="colorfff svgShape"></path><path fill="#F0F3FA" fill-rule="evenodd" d="M880.7,874.1c-9.9,3.9-16.7,14.7-15.9,25.3c-4.1-3.2-10-3.9-14.7-1.9c-10.6,4.5-14.5,21.1-5.5,29
			c5.2,4.5,13.4,4.9,19,1c-1.4,9.8,3.5,20.2,11.9,25.5c8.4,5.2,19.9,4.9,28.1-0.7c4.5,12.1,16,21.2,28.8,22.9
			c12.8,1.7,26.2-4.2,33.7-14.7c9.9,9.8,25.2,13.3,38.7,10.1c13.6-3.2,25.2-12.7,32.4-24.7c8.5,2.1,18.3,3.4,25.1-1.9
			c8.2-6.4,7.2-20.4-0.6-27.3c-7.8-6.9-19.9-7.2-29.3-2.8c0.4-8.8-0.1-18.5-4.7-25.6c0.4,9.8-1.4,19.7-5.4,28.7
			c-1.8,4.1-4.2,8.1-7.9,10.5c-3.1,2.1-6.9,2.8-10.7,3.3c-7.3,1-14.7,1.5-22,1.3c-4.2-0.1-9.1-0.8-11.2-4.5c7.9-11.3,9-27,2.7-39.2
			c-5.3,13.8-17.7,25.3-32.3,26.9c-14.7,1.5-30.4-9.1-32-23.8c-2.2,8.3-0.3,17.6,4.8,24.5c-7.3,1.8-15.1,1.2-22-1.5
			c-6.5-2.6-12.5-7.4-14.4-14.1c-2-6.9,0.8-14.6,5.7-19.8c3.2-3.5,7-5.5,11-7.6C889.4,872.1,884.9,872.5,880.7,874.1z" clip-rule="evenodd" class="colorf0f3fa svgShape"></path><path fill="#E5EEF3" fill-rule="evenodd" d="M1061.6,916.6c7.8,6.9,8.7,20.9,0.6,27.3c-6.8,5.4-16.7,4-25.1,1.9c-7.2,12-18.8,21.4-32.4,24.7
			c-13.6,3.2-28.8-0.3-38.7-10.1c-7.4,10.5-20.9,16.4-33.7,14.7c-12.8-1.7-24.3-10.8-28.8-22.9c-8.2,5.6-19.7,5.9-28.1,0.7
			c-8.4-5.2-13.3-15.6-11.9-25.5c-5.6,4-13.9,3.5-19-1c7.1,0.2,15.1-2.2,21.4-5.6c-0.5-3.8,0.4-7.7,2.6-10.9
			c-1.1,10.5,2.1,21.7,9.5,29.2c7.4,7.5,19.1,11,29.1,7.6c-1-4.8-1-9.9-0.2-14.7c4.3,15,16.7,27.8,32,31c15.3,3.2,32.5-4,39.7-17.9
			c0.1,5.4-1.3,10.8-4.2,15.4c8.1,4.1,17.9,4,26.4,0.9c8.5-3.1,15.7-9.2,21.2-16.3c4.9-6.3,8.7-14,8.6-22c4.2,3.3,6.8,8.5,7.1,13.8
			c0.1,1.1,0.1,2.4,0.8,3.2c0.4,0.5,1.1,0.8,1.7,1.1c6.2,2.2,13.5-0.9,17.4-6.3C1061.7,929.7,1062.6,923.1,1061.6,916.6z" clip-rule="evenodd" class="colore5eef3 svgShape"></path></g><g><path fill="#FFFFFF" fill-rule="evenodd" d="M1428.4,754.5c-14.3,1.7-27,12.7-30.7,26.6c-12.5-7.4-29.7-5.4-40.3,4.5c-6.9,6.5-10.6,18.3-4.3,25.4
			c-8.2,6-9.8,19.3-3.2,27.1c6.6,7.8,20,8.3,27.2,1.1c6.7,11.5,19.2,19.3,32.5,20.3c7.6,0.5,16.6-1.3,23.5-4.7
			c2-1,14.6-10.4,11.4-13.7c6.7,6.9,15.2,12.3,24.7,13.6c9.5,1.4,19.9-1.9,25.7-9.5c5.8-7.6,5.8-19.6-1.1-26.2
			c7.2-3.1,12.2-10.7,12.1-18.6c-0.1-7.6-6.1-16.5-13.2-19.6c-3.3-1.4-22.8-0.6-22.1,5.9c-1-9-5.6-16.9-12.2-22.8
			C1450.4,757,1439.5,753.2,1428.4,754.5z" clip-rule="evenodd" class="colorfff svgShape"></path><path fill="#F0F3FA" fill-rule="evenodd" d="M1470.6,786.8c-1-9-5.6-16.9-12.2-22.8c-8-7-18.8-10.9-30-9.6c7.6,2.9,13.7,8.9,19.1,14.9
			c5.7,6.4,11,13.2,14.4,21.1c3.4,7.8,4.9,16.7,2.7,25C1468.7,807.2,1471.7,796,1470.6,786.8z" clip-rule="evenodd" class="colorf0f3fa svgShape"></path><path fill="#F0F3FA" fill-rule="evenodd" d="M1353.1,811.1c-8.2,6-9.8,19.3-3.2,27.1c6.6,7.8,20,8.3,27.2,1.1c6.7,11.5,19.2,19.3,32.5,20.3
			c7.6,0.5,16.6-1.3,23.5-4.7c2-1,14.6-10.4,11.4-13.7c6.7,6.9,15.2,12.3,24.7,13.6c9.5,1.4,19.9-1.9,25.7-9.5
			c5.8-7.6,5.8-19.6-1.1-26.2c7.2-3.1,12.2-10.7,12.1-18.6c-0.1-7.6-6.1-16.5-13.2-19.6c-0.2-0.1-0.5-0.2-0.8-0.2
			c2.6,3.7,3.8,8.3,2.4,12.6c-1.9,6.1-9.6,10-15.2,6.9c5.2,14.2-4.2,31.9-18.8,35.7c3.5-9.8,0.7-21.6-6.9-28.8
			c-3.3,13.3-15,24-28.5,26.2c-13.5,2.1-28-4.4-35.3-16c-7.9,1.6-17.2,2.8-23.2-2.6c-5.3-4.7-6-12.9-4.1-19.8
			c2.2-7.8,6.9-13.3,12.8-17.7c-6.6,1-12.9,3.9-17.8,8.5C1350.5,792.2,1346.8,803.9,1353.1,811.1z" clip-rule="evenodd" class="colorf0f3fa svgShape"></path><path fill="#E5EEF3" fill-rule="evenodd" d="M1469.2 854.8c9.5 1.4 19.9-1.9 25.7-9.5 5.8-7.6 5.8-19.6-1.1-26.2 7.2-3.1 12.2-10.7 12.1-18.6-1.1 8.6-9.1 14.6-17.8 14.7 3.8 7.3 4.1 16.3.8 23.9C1485.7 846.7 1477.1 852.6 1469.2 854.8zM1444.6 841.2c3.1 3.2-9.4 12.7-11.4 13.7-6.9 3.3-15.8 5.2-23.5 4.7-13.2-.9-25.8-8.8-32.5-20.3-7.2 7.2-20.6 6.6-27.2-1.1-6.6-7.8-5.1-21.1 3.2-27.1-2 4-2.2 8.7-2 13.1.2 4.4 2 8.9 5.5 11.6 3.7 3 8.9 3.8 13.5 2.6 4.6-1.2 8.6-4.2 11.7-7.8 1.8 8.5 8.3 15.6 16.1 19.4 7.8 3.9 16.8 4.8 25.4 4.2 4.2-.3 8.5-1 12.4-2.8C1439.5 849.6 1443 845.1 1444.6 841.2z" clip-rule="evenodd" class="colore5eef3 svgShape"></path></g><g><path fill="#FFFFFF" fill-rule="evenodd" d="M1613.9,669c-0.9-6.3-5-12-10.7-14.9c-5.7-2.9-12.7-2.9-18.3,0.1c-3.5-9.2-13.2-15.6-23-15.3
			c-9.8,0.3-19.1,7.4-22,16.8c-6.2-0.4-12,5.5-11.6,11.7c-4.7-2.1-10.4,3.4-9.3,8.4c1.1,5,7.2,7.9,12.2,6.7
			c12.6,9.3,30.2,11,44.4,4.4c11.2,7.4,28.5,3.1,34.9-8.7c-0.8,1.6,12.6,4.1,15.2-1.6C1628.6,670.1,1618.8,666.2,1613.9,669z" clip-rule="evenodd" class="colorfff svgShape"></path><path fill="#F0F3FA" fill-rule="evenodd" d="M1519,675.8c1.1,5,7.2,7.9,12.2,6.7c12.6,9.3,30.2,11,44.4,4.4c11.2,7.4,28.5,3.1,34.9-8.7
			c-0.8,1.6,12.6,4.1,15.2-1.6c2.9-6.5-6.8-10.4-11.7-7.5c-0.9-6.3-5-12-10.7-14.9c-1.6-0.8-3.3-1.4-5-1.7c1.9,2.4,3.5,5,4.1,7.9
			c0.9,4-0.4,8.8-4,10.9c-2.5,1.5-5.5,1.5-8.4,1.3c-3.4-0.2-7.4-0.9-8.8-4c-0.5-1.1-0.5-2.2-0.7-3.4c-1-5.7-6.7-10.2-12.5-9.9
			c3,0.4,5,3.8,4.3,6.8c-0.6,3-3.2,5.2-6,6.2c-2.8,1-5.9,1-9,0.8c-5-0.3-10.6-1.2-13.8-5.1c-2.5,2.6-6.9,3.2-9.9,1.3
			c-1.5-1-2.5-2.4-3.1-4.1c0-0.1-0.1-0.3-0.1-0.6c-1.4,2-2.2,4.3-2.1,6.8C1523.6,665.2,1517.9,670.7,1519,675.8z" clip-rule="evenodd" class="colorf0f3fa svgShape"></path><path fill="#E5EEF3" fill-rule="evenodd" d="M1610.4,678.2c-0.8,1.6,12.6,4.1,15.2-1.6c2.9-6.5-6.8-10.4-11.7-7.5c2.3-0.3,4.8-0.3,7.1,0.1
			c1.3,0.2,2.7,0.7,3.2,1.9c0.2,0.5,0.2,1,0.2,1.5c-0.1,1.8-0.9,3.5-2.4,4.5c-1.3,0.8-2.9,1-4.5,1
			C1615.4,678.1,1612.5,678.2,1610.4,678.2z" clip-rule="evenodd" class="colore5eef3 svgShape"></path><path fill="#E5EEF3" fill-rule="evenodd" d="M1610.4,678.2c-6.4,11.9-23.6,16.2-34.9,8.7c-14.1,6.6-31.8,4.8-44.4-4.4c-5,1.2-11.1-1.7-12.2-6.7
			c-1.1-5,4.6-10.5,9.3-8.4c-3.4,0.3-5.7,4.4-4.7,7.6c1,3.3,5.3,5,8.3,3.3c-0.7-1.8-1.1-3.8-1.1-5.8c1.3,2.9,4.9,3.8,8.1,3.9
			c3,0.1,6.1-0.3,9-1.1c-0.7,3.7-4.1,6.7-7.9,7c5.5,3.1,12,3.7,18.2,3.7c4.2,0,8.6-0.4,12.3-2.5c3.7-2.1,6.4-6.4,5.5-10.5
			c3.1,2.8,4,7.7,2,11.3c5.1,2.7,11.2,3.1,16.7,1.8C1600.5,684.8,1606.1,681.9,1610.4,678.2z" clip-rule="evenodd" class="colore5eef3 svgShape"></path></g></svg>