<svg xmlns="http://www.w3.org/2000/svg" version="1.1" xmlns:xlink="http://www.w3.org/1999/xlink" width="42" height="42" x="0" y="0" viewBox="0 0 512 512" style="enable-background:new 0 0 512 512" xml:space="preserve"><g><path d="M256 7.628c-75.243 0-136.239 60.996-136.239 136.239v61.441c0 122.755 80.14 170.839 80.14 170.839H256V7.628z" style="" fill="#A46A5A" data-original="#a46a5a"></path><path d="m408.242 397.007-82.771-29.213a32.056 32.056 0 0 1-21.387-30.229v-49.574h-96.168v49.574a32.058 32.058 0 0 1-21.387 30.229l-82.771 29.213c-19.224 6.785-32.081 24.956-32.081 45.343h368.646c0-20.387-12.856-38.558-32.081-45.343z" style="" fill="#FBBD80" data-original="#fbbd80"></path><path d="M304.084 337.565v-49.574h-96.169v38.205c3.101 1.315 6.012 2.47 8.765 3.392 15.672 5.238 31.737 7.273 47.898 6.137 13.541-.952 15.827 9.328 16.919 14.056 4.286 18.539 17.52 34.175 35.968 40.687l8.004-22.674a32.057 32.057 0 0 1-21.385-30.229z" style="" fill="#F4AA73" data-original="#f4aa73"></path><path d="m408.242 397.007-64.745-22.852c-20.562 25.619-52.09 42.061-87.497 42.061s-66.934-16.441-87.497-42.061l-64.746 22.852c-19.224 6.785-32.08 24.956-32.08 45.343v62.148h288.506l15.034-12.156 18.027 12.156h23.037l24.042-19.106V442.35c0-20.387-12.856-38.557-32.081-45.343z" style="" fill="#FBF4DB" data-original="#fbf4db"></path><path d="m408.242 397.007-64.745-22.852c-20.562 25.619-52.089 42.061-87.497 42.061-35.407 0-66.934-16.441-87.497-42.061l-31.636 11.166c25.981 37.994 69.631 62.951 119.133 62.951 40.297 0 76.714-16.543 102.88-43.191l41.36 14.595a24.042 24.042 0 0 1 16.042 22.672v62.15h24.042V442.35c-.001-20.387-12.857-38.557-32.082-45.343z" style="" fill="#F8EBCC" data-original="#f8ebcc"></path><path d="M256 7.5v136.239h48.084v200.479c0 70.765 56.098 96.169 56.098 160.281l32.056-24.536V143.739C392.239 68.496 331.243 7.5 256 7.5z" style="" fill="#C6805D" data-original="#c6805d"></path><path d="M336.14 344.219c0 27.317 4.859 46.061 10.483 67.763 6.356 24.519 13.559 52.314 13.559 92.515v.001h1.002l31.054-.046V143.739c0-5.432-.406-10.762-1.024-16.028H336.14v216.508z" style="" fill="#A46A5A" data-original="#a46a5a"></path><path d="M371.061 175.795h-2.864c-13.278 0-24.042-10.764-24.042-24.042V95.655h-176.31v56.098c0 13.278-10.764 24.042-24.042 24.042h-2.864c-10.48 0-20.03 7.54-21.074 17.968-1.201 11.993 8.184 22.102 19.931 22.102h12.426c4.105 53.781 48.945 96.169 103.778 96.169s99.673-42.387 103.778-96.169h12.426c11.747 0 21.132-10.11 19.931-22.102-1.044-10.428-10.594-17.968-21.074-17.968z" style="" fill="#FFD18D" data-original="#ffd18d"></path><path d="M371.061 175.795h-2.864c-13.278 0-24.042-10.764-24.042-24.042V95.655H180.618l6.895 6.03c32.894 28.781 74.036 48.186 118.966 56.122 7.897 1.393 13.633 8.049 13.633 15.821v34.224c0 47.716-34.24 87.634-81.408 94.912l-18.475 2.851c11.163 4.093 23.182 6.419 35.771 6.419 54.832 0 99.673-42.387 103.778-96.169h12.426c11.747 0 21.133-10.11 19.931-22.102-1.045-10.428-10.595-17.968-21.074-17.968z" style="" fill="#FBBD80" data-original="#fbbd80"></path><path d="M119.761 143.866v.037c44.78-.997 83.331-18.712 109.452-44.711l-62.55-58.022c-28.686 24.977-46.902 61.673-46.902 102.696z" style="" fill="#C6805D" data-original="#c6805d"></path><path d="M256 7.5v.128c-34.22 0-65.409 12.708-89.337 33.543 36.811 57.893 105.63 96.912 184.57 96.912a235.08 235.08 0 0 0 40.542-3.543C387.023 63.606 328.137 7.5 256 7.5z" style="" fill="#A46A5A" data-original="#a46a5a"></path><path d="M353.613 106.024c10.817 0 21.598-1.079 32.073-3.151C368.331 47.639 316.968 7.5 256 7.5v.128c-16.819 0-32.89 3.102-47.742 8.697 26.826 54.582 83.418 89.699 145.355 89.699z" style="" fill="#845252" data-original="#845252"></path><path d="M231.952 239.967c4.836 4.772 13.74 8.016 24.048 8.016 10.309 0 19.212-3.244 24.048-8.016M207.903 304.096v33.427a32.063 32.063 0 0 1-21.393 30.236l-82.792 29.221c-19.23 6.787-32.089 24.963-32.089 45.355v62.164M392.269 391.328l16.012 5.651c19.23 6.787 32.089 24.963 32.089 45.355v62.164" style="stroke-linecap: round; stroke-linejoin: round; stroke-miterlimit: 10;" fill="none" stroke="#000000" stroke-width="15px" stroke-linecap="round" stroke-linejoin="round" stroke-miterlimit="10" data-original="#000000"></path><path d="M360.205 207.98c-.042 57.517-46.678 104.132-104.205 104.132-57.553 0-104.209-46.656-104.209-104.209v8.016h-12.024c-11.75 0-21.138-10.112-19.936-22.108 1.045-10.431 10.599-17.973 21.082-17.973h2.862c13.282 0 24.048-10.767 24.048-24.048v-13.528M360.209 504.499c0-64.129-56.113-89.539-56.113-160.322v-40.208" style="stroke-linecap: round; stroke-linejoin: round; stroke-miterlimit: 10;" fill="none" stroke="#000000" stroke-width="15px" stroke-linecap="round" stroke-linejoin="round" stroke-miterlimit="10" data-original="#000000"></path><path d="M392.274 504.499V143.774C392.274 68.512 331.262 7.5 256 7.5h0c-75.262 0-136.274 61.012-136.274 136.274v61.457c0 107.549 66.784 162.528 66.784 162.528" style="stroke-linecap: round; stroke-linejoin: round; stroke-miterlimit: 10;" fill="none" stroke="#000000" stroke-width="15px" stroke-linecap="round" stroke-linejoin="round" stroke-miterlimit="10" data-original="#000000"></path><path d="M389.508 134.21a231.009 231.009 0 0 1-41.751 3.778c-78.293 0-146.399-38.981-181.346-96.411M360.21 215.919h12.024c11.75 0 21.138-10.112 19.936-22.108-1.045-10.431-10.599-17.973-21.082-17.973h-2.862c-13.282 0-24.048-10.767-24.048-24.048v-11.351" style="stroke-linecap: round; stroke-linejoin: round; stroke-miterlimit: 10;" fill="none" stroke="#000000" stroke-width="15px" stroke-linecap="round" stroke-linejoin="round" stroke-miterlimit="10" data-original="#000000"></path><path d="M120.423 143.774c42.732-.857 79.585-17.005 104.565-40.602M207.903 183.854v8.016M304.097 183.854v8.016M199.887 159.806l18.011-2.301M294.102 157.505l18.011 2.301M248.435 68.778c28.065 23.477 64.383 37.144 102.779 37.144 10.738 0 21.448-1.049 31.834-3.12M208.031 16.477a150.933 150.933 0 0 0 18.706 30.109M336.161 274.935v69.243c0 27.324 4.86 46.073 10.486 67.781 6.358 24.526 13.562 52.328 13.562 92.541M300.652 441.151c-13.691 4.31-29.537 7.107-44.652 7.107-49.125 0-92.516-24.549-118.574-62.049M315.189 399.334c-17.183 10.687-37.465 16.86-59.189 16.86-35.255 0-66.714-16.257-87.288-41.683" style="stroke-linecap: round; stroke-linejoin: round; stroke-miterlimit: 10;" fill="none" stroke="#000000" stroke-width="15px" stroke-linecap="round" stroke-linejoin="round" stroke-miterlimit="10" data-original="#000000"></path></g></svg>