<svg xmlns="http://www.w3.org/2000/svg" version="1.1" xmlns:xlink="http://www.w3.org/1999/xlink" width="42" height="42" x="0" y="0" viewBox="0 0 512 512" style="enable-background:new 0 0 512 512" xml:space="preserve"><g><path d="M431.5 420.75c-17.645 0-32-14.355-32-32 0-12.956 7.739-24.139 18.838-29.167-.746-.423-1.53-.863-2.352-1.317a5 5 0 1 1 4.84-8.75c6.147 3.4 10.292 6.006 12.238 7.272 16.921.818 30.436 14.842 30.436 31.962 0 17.645-14.355 32-32 32zm-.065-54c-12.101.036-21.935 9.892-21.935 22 0 12.131 9.869 22 22 22s22-9.869 22-22c0-12.111-9.837-21.969-21.941-22h-.124zm-350.935 54c-17.645 0-32-14.355-32-32 0-17.12 13.516-31.144 30.437-31.962 2.003-1.303 6.339-4.025 12.789-7.575a5.003 5.003 0 0 1 6.791 1.971 4.999 4.999 0 0 1-1.97 6.791 259.733 259.733 0 0 0-2.882 1.61c11.097 5.028 18.835 16.21 18.835 29.165 0 17.645-14.355 32-32 32zm0-54c-12.131 0-22 9.869-22 22s9.869 22 22 22 22-9.869 22-22-9.869-22-22-22zm314.892-19.311a4.99 4.99 0 0 1-2.042-.438 341.223 341.223 0 0 0-17.785-7.368 5 5 0 1 1 3.566-9.342 351.33 351.33 0 0 1 18.309 7.585 5 5 0 0 1-2.048 9.563zm-274.475-1.891a5.001 5.001 0 0 1-1.984-9.592 351.259 351.259 0 0 1 18.404-7.331 4.998 4.998 0 0 1 6.414 2.978 5 5 0 0 1-2.978 6.413c-6 2.195-12.015 4.592-17.877 7.122a4.997 4.997 0 0 1-1.979.41zm49.396-17.051a5 5 0 0 1-1.272-9.836 351.3 351.3 0 0 1 22.771-5.199 5 5 0 1 1 1.9 9.818 341.743 341.743 0 0 0-22.12 5.051 5.002 5.002 0 0 1-1.279.166zm171.057-.082c-.42 0-.847-.053-1.272-.165a344.864 344.864 0 0 0-17.265-4.062 5.001 5.001 0 0 1 2.037-9.791 355.843 355.843 0 0 1 17.767 4.181 5.001 5.001 0 0 1-1.267 9.837zm-49.126-9.153c-.185 0-.37-.01-.558-.03a326.499 326.499 0 0 0-17.963-1.493 5 5 0 0 1-4.716-5.269c.152-2.758 2.509-4.857 5.269-4.716 6.166.341 12.396.858 18.514 1.538a5 5 0 0 1-.546 9.97zm-72.265-.023a5 5 0 0 1-.54-9.97 339.99 339.99 0 0 1 22.473-1.717c2.77-.155 5.091 2.022 5.209 4.781a5 5 0 0 1-4.782 5.209c-7.227.31-14.564.87-21.808 1.666-.186.021-.37.031-.552.031zM229 272.25h-27a5 5 0 0 1-4.744-6.581l20.307-60.919H134.5a5 5 0 0 1-4.708-3.318l-22.5-63a4.999 4.999 0 0 1 4.709-6.682h27c1.326 0 2.598.527 3.536 1.464l16.536 16.536h57.614L192.96 98.345a5.001 5.001 0 0 1 4.54-7.095H229a5 5 0 0 1 3.56 1.489l56.242 57.011H373c.87 0 1.726.227 2.48.659 33.633 19.219 34.02 48.121 34.02 49.341a5 5 0 0 1-5 5H298.571l-66.036 66.035A4.993 4.993 0 0 1 229 272.25zm-20.063-10h17.992l66.036-66.036a4.998 4.998 0 0 1 3.535-1.464h102.354c-1.619-7.81-7.3-23.183-27.204-35h-84.939a5 5 0 0 1-3.56-1.489l-56.242-57.011h-21.595l23.726 51.405a5.001 5.001 0 0 1-4.54 7.095H157a5.004 5.004 0 0 1-3.536-1.464l-16.536-16.536h-17.833l18.928 53H224.5a5.002 5.002 0 0 1 4.744 6.581z" fill="#000000" opacity="1" data-original="#000000"></path></g></svg>