<svg xmlns="http://www.w3.org/2000/svg" version="1.1" xmlns:xlink="http://www.w3.org/1999/xlink" width="42" height="42" x="0" y="0" viewBox="0 0 96 96" style="enable-background:new 0 0 512 512" xml:space="preserve"><g><path fill="#83D3E9" d="M83.87 90.17v1.99H13.89v-1.99c0-10.17 5.78-18.98 14.24-23.33.16-.08.33-.17.5-.25.3-.15.61-.3.92-.43.13-.06.26-.12.4-.17 3.12-1.32 6.55-2.05 10.16-2.05h17.54c.28 0 .57.01.85.02a25.605 25.605 0 0 1 9.02 1.91c.2.08.4.16.59.25.11.04.22.09.33.14.5.23 1 .47 1.48.73 8.3 4.41 13.95 13.13 13.95 23.18z" opacity="1" data-original="#83d3e9"></path><path fill="#73B9CC" d="M69.92 66.99c-2.11 6.69-10.66 11.54-20.87 11.54-10.28 0-18.89-4.92-20.92-11.69.16-.08.33-.17.5-.25.3-.15.61-.3.92-.43.13-.06.26-.12.4-.17 3.12-1.32 6.55-2.05 10.16-2.05h17.54c.28 0 .57.01.85.02a25.605 25.605 0 0 1 9.02 1.91c.2.08.4.16.59.25.11.04.22.09.33.14.5.23 1 .47 1.48.73z" opacity="1" data-original="#73b9cc"></path><path fill="#FFFFFF" d="M58.757 71.828h.75v14.786h-.75zM38.553 71.828h.75v14.786h-.75z" opacity="1" data-original="#ffffff"></path><path fill="#62BDD4" d="M68.44 63.766c0 .39-.03.77-.08 1.15-.88 6.51-9.19 11.61-19.31 11.61s-18.43-5.1-19.31-11.61c-.05-.38-.08-.76-.08-1.15 0-7.05 8.68-12.77 19.39-12.77s19.39 5.72 19.39 12.77z" opacity="1" data-original="#62bdd4"></path><path fill="#69CBE2" d="M68.36 64.916c-.88 6.51-9.19 11.61-19.31 11.61s-18.43-5.1-19.31-11.61c.03-.26.08-.51.14-.76 1.39-6.14 9.45-10.86 19.17-10.86 10.12 0 18.43 5.11 19.31 11.62z" opacity="1" data-original="#69cbe2"></path><path fill="#5AAFC4" d="m58.5 62.342-19.67.524-.493-3.937c-.135-2.494 2.551-4.57 5.913-4.57h9.08c3.466 0 6.19 2.202 5.896 4.766z" opacity="1" data-original="#5aafc4"></path><path fill="#EC8F6E" d="M58.89 63.23c0 .61-.09 1.2-.26 1.77-.18.6-.44 1.18-.78 1.72a7.1 7.1 0 0 1-.88 1.12c-1.73 1.87-4.5 3.12-7.65 3.25-.18.01-.36.01-.55.01-1.96 0-3.78-.43-5.33-1.19a9.71 9.71 0 0 1-2.03-1.28 8.535 8.535 0 0 1-1.71-1.91c-.51-.8-.84-2.47-.95-3.17-.04-.2-.06-.32-.06-.32.05-.12.09-.24.14-.36.81-2.12 1.3-4.19 1.41-6.19.04-.71.03-1.42-.04-2.11-.07-.85-.23-1.67-.46-2.49h18.11c-.44 1.48-.59 3.02-.5 4.6.03.59.1 1.18.2 1.78.05.37.13.74.21 1.12.24 1.12.6 2.26 1.05 3.42.02.08.05.15.08.23z" opacity="1" data-original="#ec8f6e"></path><path fill="#DF6F59" d="M58.89 63.23c0 .61-.09 1.2-.26 1.77-.18.6-.44 1.18-.78 1.72a7.1 7.1 0 0 1-.88 1.12l-13.53 2.07a9.71 9.71 0 0 1-2.03-1.28 8.535 8.535 0 0 1-1.71-1.91c-.51-.8-.84-2.47-.95-3.17.04-.41.08-.68.08-.68 6.05 3.83 13.74 3.806 19.98.13.02.08.05.15.08.23zM57.317 57.027c.006.59.052 1.183.127 1.787a13.67 13.67 0 0 1-6.366 1.262c-.46-.019-.909-.057-1.347-.115a13.935 13.935 0 0 1-9.465-5.739 13.15 13.15 0 0 0-.358-2.507l18.095.736c-.5 1.461-.712 2.994-.686 4.576z" opacity="1" data-original="#df6f59"></path><path fill="#E28569" d="M63.706 43.902c-.394.175-.74.286-.999.317h-.002a1.014 1.014 0 0 1-.233.008 3.635 3.635 0 0 1-1.775-1.093l-2.458-2.746-.39-.438-.465-.52a3.668 3.668 0 0 1 1.215-5.792 3.665 3.665 0 0 1 4.259.893l.145.161.161-.145a3.612 3.612 0 0 1 1.118-.687 3.712 3.712 0 0 1 4.069.975c3.284 3.585-1.905 7.87-4.645 9.067z" opacity="1" data-original="#e28569"></path><path fill="#D37C62" d="M64.282 33.86c-.003 1.225-.058 6.774-.576 10.042-.394.175-.74.286-.999.317h-.002a1.014 1.014 0 0 1-.233.008 3.635 3.635 0 0 1-1.775-1.094l-2.458-2.745-.39-.438c.05-2.444.124-5.124.216-5.19.048-.034.256-.486.534-1.122a3.665 3.665 0 0 1 4.259.893l.145.16.161-.144a3.607 3.607 0 0 1 1.118-.687z" opacity="1" data-original="#d37c62"></path><path fill="#F08D70" d="M63.706 43.902a5.59 5.59 0 0 1-.55.212l-.124.037a2.255 2.255 0 0 1-.325.068c.375-.23.727-.46 1.054-.681 4.016-2.759 4.669-5.137 4.442-6.717-.267-1.865-2.299-2.887-3.932-1.952l-.02.013c-1.69.983-2.873 3.115-2.873 3.115l-.613-3.839.888-.518c.446.204.856.502 1.205.89l.145.162.161-.145a3.481 3.481 0 0 1 .526-.391c.19-.12.388-.217.592-.296a3.712 3.712 0 0 1 4.069.975c3.284 3.585-1.905 7.87-4.645 9.067z" opacity="1" data-original="#f08d70"></path><path fill="#E6876A" d="M62.707 44.22c.375-.23.727-.46 1.054-.682l-.055.364a5.59 5.59 0 0 1-.55.212l-.124.037a2.243 2.243 0 0 1-.325.068zM64.282 33.86c0 .213-.003.562-.01 1.009l-.022.013c-1.688.983-2.872 3.115-2.872 3.115l-.613-3.839.888-.518c.447.204.856.502 1.205.89l.145.162.161-.145a3.481 3.481 0 0 1 .526-.391c.19-.12.388-.217.592-.296z" opacity="1" data-original="#e6876a"></path><path fill="#DD7156" d="M66.61 36.218a1.942 1.942 0 0 0-1.063-.532.22.22 0 0 0-.102-.027c-.011 0-.021.005-.032.006a1.907 1.907 0 0 0-.816.098c-.555.197-.965.62-1.326 1.046a13.093 13.093 0 0 0-1.415 2.04.226.226 0 1 0 .395.221c.39-.696.85-1.358 1.366-1.968.32-.379.678-.751 1.131-.912.15-.053.31-.076.47-.077l.001 1.61c.017.215-.019.438-.104.644a.771.771 0 0 1-.392.423.496.496 0 0 1-.494-.05c-.12-.098-.167-.283-.101-.406a.226.226 0 1 0-.399-.214c-.168.312-.073.739.215.972.158.127.36.193.568.193.13 0 .263-.026.388-.079.275-.117.506-.36.633-.665.113-.272.16-.567.139-.836V36.18c.232.07.449.189.618.358.39.39.532 1.023.348 1.541a.227.227 0 0 0 .427.152 1.968 1.968 0 0 0-.455-2.013z" opacity="1" data-original="#dd7156"></path><path fill="#E28569" d="M33.883 43.902c.394.175.74.286.999.317h.002c.087.014.167.014.233.008a3.635 3.635 0 0 0 1.775-1.093l2.457-2.746.391-.438.465-.52a3.668 3.668 0 0 0-1.215-5.792 3.665 3.665 0 0 0-4.26.893l-.144.161-.162-.145a3.612 3.612 0 0 0-1.117-.687 3.712 3.712 0 0 0-4.07.975c-3.283 3.585 1.906 7.87 4.646 9.067z" opacity="1" data-original="#e28569"></path><path fill="#D37C62" d="M33.307 33.86c.002 1.225.058 6.774.576 10.042.394.175.74.286.999.317h.002c.087.013.167.013.233.008a3.635 3.635 0 0 0 1.775-1.094l2.457-2.745.391-.438c-.05-2.444-.124-5.124-.216-5.19-.048-.034-.257-.486-.534-1.122a3.665 3.665 0 0 0-4.26.893l-.144.16-.162-.144a3.61 3.61 0 0 0-1.117-.687z" opacity="1" data-original="#d37c62"></path><path fill="#F08D70" d="M33.883 43.902c.198.087.383.159.55.212l.124.037c.119.034.227.055.325.068-.376-.23-.727-.46-1.055-.681-4.016-2.759-4.668-5.137-4.441-6.717.267-1.865 2.299-2.887 3.932-1.952l.02.013c1.689.983 2.873 3.115 2.873 3.115l.613-3.839-.888-.518a3.654 3.654 0 0 0-1.205.89l-.145.162-.161-.145a3.481 3.481 0 0 0-.526-.391 3.531 3.531 0 0 0-.592-.296 3.712 3.712 0 0 0-4.069.975c-3.284 3.585 1.905 7.87 4.645 9.067z" opacity="1" data-original="#f08d70"></path><path fill="#E6876A" d="M34.882 44.22c-.376-.23-.727-.46-1.055-.682l.056.364c.198.087.383.159.55.212l.124.037c.118.034.227.055.325.068zM33.307 33.86c0 .213.002.562.01 1.009l.021.013c1.689.983 2.872 3.115 2.872 3.115l.613-3.839-.887-.518a3.654 3.654 0 0 0-1.205.89l-.145.162-.162-.145a3.481 3.481 0 0 0-.525-.391 3.544 3.544 0 0 0-.592-.296z" opacity="1" data-original="#e6876a"></path><path fill="#DD7156" d="M30.979 36.218a1.942 1.942 0 0 1 1.062-.532.22.22 0 0 1 .103-.027c.011 0 .02.005.032.006.274-.026.554.005.816.098.555.197.965.62 1.326 1.046.534.632 1.01 1.318 1.415 2.04a.226.226 0 1 1-.395.221 12.64 12.64 0 0 0-1.366-1.968c-.32-.379-.678-.751-1.132-.912a1.416 1.416 0 0 0-.47-.077v1.61c-.017.215.019.438.104.644a.771.771 0 0 0 .392.423c.17.071.368.051.494-.05.12-.098.167-.283.1-.406a.226.226 0 1 1 .4-.214c.168.312.073.739-.215.972a.904.904 0 0 1-.569.193.992.992 0 0 1-.387-.079 1.226 1.226 0 0 1-.633-.665 1.833 1.833 0 0 1-.139-.836V36.18c-.232.07-.449.189-.618.358a1.526 1.526 0 0 0-.348 1.541.227.227 0 0 1-.427.152 1.968 1.968 0 0 1 .455-2.013z" opacity="1" data-original="#dd7156"></path><path fill="#DC6F57" d="M33.307 33.86c.002 1.225.058 6.774.576 10.042.394.175.74.286.999.317h.002c.087.013.167.013.233.008a3.635 3.635 0 0 0 1.775-1.094l2.457-2.745.391-.438c-.05-2.444-.124-5.124-.216-5.19-.048-.034-.257-.486-.534-1.122a3.665 3.665 0 0 0-4.26.893l-.144.16-.162-.144a3.61 3.61 0 0 0-1.117-.687z" opacity="1" data-original="#dc6f5764" fill-opacity="0.392"></path><path fill="#F7BF9C" d="M62.765 21.788v21.131c0 4.495-2.122 8.492-5.419 11.047a13.923 13.923 0 0 1-8.553 2.922c-.454 0-.903-.02-1.347-.063-7.084-.68-12.621-6.645-12.621-13.906V21.788c2.092-.222 4.245-.38 6.452-.484 3.366-.156 6.859-.177 10.457-.087 3.58.087 7.263.285 11.031.57z" opacity="1" data-original="#f7bf9c"></path><path fill="#FDD2B9" d="M62.765 35.535v7.384c0 4.495-2.122 8.492-5.419 11.047 3.35-5.553 5.034-13.129 5.419-18.431z" opacity="1" data-original="#fdd2b9"></path><path fill="#DD675B" d="M59.764 25.24c-1.824 1.446-11.62 4.813-20.825-.663v-1.488s10.24-2.831 10.38-2.831h8.067s4.202 3.536 2.378 4.982z" opacity="1" data-original="#dd675b"></path><path fill="#414042" d="M44.945 34.157h-4.86a1.146 1.146 0 1 1 0-2.293h4.86a1.146 1.146 0 1 1 0 2.293zM57.243 34.157h-4.86a1.146 1.146 0 1 1 0-2.293h4.86a1.146 1.146 0 1 1 0 2.293zM54.813 37.998a.925.925 0 0 1-.924-.925v-1.387a.925.925 0 1 1 1.85 0v1.387c0 .51-.415.925-.926.925zM42.515 37.998a.925.925 0 0 1-.925-.925v-1.387a.925.925 0 1 1 1.85 0v1.387c0 .51-.414.925-.925.925z" opacity="1" data-original="#414042"></path><path fill="#EC8A6D" d="M48.245 44.514a1.472 1.472 0 0 1-1.463-1.618l.55-5.458a1.465 1.465 0 0 1 1.462-1.323c.758 0 1.387.57 1.463 1.323l.55 5.458a1.473 1.473 0 0 1-1.463 1.618z" opacity="1" data-original="#ec8a6d"></path><path fill="#CF7960" d="M49.344 44.25h-1.1a1.206 1.206 0 0 1-1.2-1.327l.55-5.459a1.206 1.206 0 0 1 2.4 0l.55 5.459a1.206 1.206 0 0 1-1.2 1.326z" opacity="1" data-original="#cf7960"></path><path fill="#1A1E21" d="M67.56 20.06c-.2 2.59-1.64 4.91-2.3 7.37-.08.29-.15.59-.2.88-.21 1.18-.54 2.36-.81 3.53-.09.42-.19.83-.29 1.25-.09.41-.18.82-.28 1.23-.14.62-.28 1.25-.43 1.87-.02.11-.05.22-.08.33-.16.58-.4 1.24-.4 1.8 0-.04-.28-1.25-.75-3v-.01c-.09-.33-.19-.69-.29-1.06-.8-2.85-2-6.63-3.34-9.35-.75.01-1.72-.02-2.67-.15h-.01c-1.09-.16-2.16-.47-2.87-1.05-.33-.26-.58-.58-.72-.97-.1.18-.2.36-.32.53-.46.73-1.02 1.39-1.66 1.97-.15.13-.3.26-.45.38-.48-.06-.95-.14-1.42-.23-.51-.09-1.02-.21-1.52-.33.27-.44.5-.91.66-1.4.13-.41.36-.83.03-1.22-.45-.51-.97-.51-1.48-.26-.77.39-1.51 1.35-1.94 2.02-.1.16-.18.31-.24.42l-.16.29c-.13.24-.26.47-.39.7-.22.38-.44.74-.69 1.09-.67.98-1.49 1.82-2.64 2.43a8.1 8.1 0 0 1-1.14.48c-.13.05-1.12.22-1.15.3l-1.71 4.39-.38.98-.7 1.8-.71-2.74-.32-1.21-1.38-5.32c-.06-.25-.12-.5-.17-.75-.76-1.8-1.18-3.77-1.18-5.84 0-.69.04-1.35.13-2.01.19-1.43.59-2.8 1.15-4.08.86-1.96 2.14-3.7 3.71-5.12 1.47-1.33 3.21-2.37 5.12-3.03 1.55-.54 3.22-.84 4.96-.84 1.38 0 2.71.19 3.97.53.08.01.15.01.23.03 2.13.18 4.13.76 5.94 1.65-.66-1.81-1.88-2.94-2.03-3.08 2.74.51 4.84 2.67 6.03 5.1.16.33.26.71.42 1.06.08.19.17.37.29.52h.01c.14.17.3.33.49.47 1 .77 2.55 1.18 3.5 1.99 1.28 1.09 2.29 2.53 2.53 4.22.07.45.09.94.05 1.44z" opacity="1" data-original="#1a1e21"></path><path fill="#0D1114" d="M47.874 19.917c-.196.24-1.001 1.184-1.913 2.254-.811.946-1.71 1.992-2.34 2.732-.202.232-.32.483-.392.697-.216.375-.441.74-.684 1.086-1.725-.96-7.221-4.106-11.35-7.488a14.822 14.822 0 0 1 1.146-4.08 15.085 15.085 0 0 1 3.71-5.117 15.047 15.047 0 0 1 5.117-3.033c3.052 2.774 6.611 6.06 6.706 6.383.172.566.51 5.945 0 6.566z" opacity="1" data-original="#0d1114"></path><path fill="#1A1E21" d="M58.39 24.9c-.069.196-.228.354-.45.481-1.191.687-4.208.47-5.072.46a26.302 26.302 0 0 1-4.598-.46h-.005a24.977 24.977 0 0 1-6.515-2.172c-5.271-2.616-16.294-11.802-7.634-17.102A13.23 13.23 0 0 1 38.32 4.45c3.342-.703 6.901-.161 10.07 1.24.63.277 1.244.588 1.838.932 6.056 3.498 10.68 11.245 8.162 18.278z" opacity="1" data-original="#1a1e21"></path><path fill="#111618" d="M57.94 25.381c-1.191.687-4.208.47-5.072.46a26.125 26.125 0 0 1-3.181-.233c-.473-.06-.946-.137-1.417-.227h-.005a24.738 24.738 0 0 1-4.243-1.186 23.682 23.682 0 0 1-2.272-.986c-2.78-1.379-7.16-4.587-9.409-8.09-2.013-3.136-2.317-6.508 1.776-9.012.311-.19.628-.368.948-.526-.597.645-.24 2.301.986 4.42 2.327 4.03 7.789 9.723 15.752 13.261.34.153.687.299 1.036.441a37.15 37.15 0 0 0 5.102 1.678z" opacity="1" data-original="#111618"></path><path fill="#0D1114" d="M50.331 6.685c2.132.185 4.132.767 5.94 1.657-.703-1.934-2.053-3.089-2.053-3.089 2.753.505 4.864 2.671 6.053 5.11.24.494.362 1.147.713 1.575a3.019 3.019 0 0 0 .491.468c-2.16-.357-10.142-5.12-11.144-5.72z" opacity="1" data-original="#0d1114"></path><path fill="#24282B" d="M67.56 20.06c-.198 2.586-1.64 4.914-2.3 7.374-.077.29-.146.581-.199.877-.211 1.184-.542 2.36-.808 3.53l-1 4.352a6.72 6.72 0 0 1-.084.327c.415-3.205.833-6.412 1.247-9.615.233-1.796.468-3.603.35-5.41a14.103 14.103 0 0 0-4.268-9.153c.058-.28.111-.602.19-.92a2.148 2.148 0 0 0 .299.521c.14.17.306.322.489.462h.002c1.007.775 2.547 1.19 3.499 1.998 1.278 1.083 2.29 2.528 2.536 4.214.069.457.084.938.047 1.443zM48.39 5.69c-.429.38-.96.673-1.491.868a8 8 0 0 1-6.243-.33A7.888 7.888 0 0 1 38.32 4.45c3.342-.703 6.901-.161 10.07 1.24z" opacity="1" data-original="#24282b"></path><path fill="#69CBE2" d="M68.11 64.502c-1.67 5.93-9.57 10.41-19.06 10.41-9.56 0-17.5-4.55-19.1-10.54 2.61-1.1 5.43-1.79 8.39-1.99 6.72 6.81 13.44 6.8 20.16-.04a25.605 25.605 0 0 1 9.02 1.91c.2.08.4.16.59.25z" opacity="1" data-original="#69cbe2"></path><circle cx="59.132" cy="86.437" r="1.326" fill="#FFFFFF" opacity="1" data-original="#ffffff"></circle><circle cx="38.928" cy="86.437" r="1.326" fill="#FFFFFF" opacity="1" data-original="#ffffff"></circle><path fill="#E6E7E8" d="M63.96 33.09c-.65.13-1.44.51-1.97.95l-.26.21-.27.22c-.14-.76-.42-1.47-.81-2.11a6.096 6.096 0 0 0-2.36-2.16c-.3-.16-.62-.29-.96-.39-.55-.17-1.14-.26-1.75-.26-.39 0-.77.04-1.14.11-.43.08-.84.21-1.23.39a5.987 5.987 0 0 0-3.48 4.21h-1.88c-.19-.89-.58-1.71-1.13-2.4-.24-.31-.5-.59-.8-.83-.49-.45-1.05-.8-1.67-1.04-.32-.13-.65-.23-.99-.3a5.7 5.7 0 0 0-1.25-.14c-.6 0-1.18.09-1.73.25-.46.14-.9.34-1.3.58h-.01a6.04 6.04 0 0 0-2.85 4.09l-.22-.18-.3-.25c-.48-.4-1.2-.76-1.81-.92l.32 1.21c.32.15.68.33.85.47l.56.47.51.43c.09 3.22 2.73 5.82 5.98 5.82.49 0 .95-.06 1.41-.17h.01c.44-.11.87-.27 1.26-.47 1.96-.98 3.3-3.01 3.3-5.35 0-.09-.01-.18-.01-.27h1.63c-.01.09-.02.18-.02.27a6 6 0 0 0 5.99 5.99c.71 0 1.39-.12 2.02-.36.48-.17.94-.4 1.35-.69a6.001 6.001 0 0 0 2.61-4.77l.46-.38v-.01l.61-.51c.26-.22.74-.37 1.05-.48l.29-1.23h-.01zm-18.7 6.22c-.42.36-.89.65-1.41.86-.57.22-1.19.35-1.84.35-2.75 0-4.99-2.24-4.99-4.99 0-1.28.49-2.45 1.3-3.34.42-.47.93-.85 1.51-1.13a4.857 4.857 0 0 1 3.09-.42c.34.06.67.16.99.29a5 5 0 0 1 1.65 1.11c.29.29.54.62.74.98.44.74.69 1.6.69 2.51 0 1.51-.67 2.86-1.73 3.78zm14.49-1.06c-.42.65-1 1.2-1.67 1.59-.73.43-1.59.68-2.5.68-2.75 0-4.99-2.24-4.99-4.99 0-1.67.83-3.16 2.11-4.06.4-.29.85-.52 1.33-.67a5.005 5.005 0 0 1 2.96-.05c.34.1.65.23.95.4h.01c.61.33 1.14.79 1.56 1.33.27.35.5.74.68 1.16a4.995 4.995 0 0 1-.44 4.61z" opacity="1" data-original="#e6e7e8"></path><g fill="#FFFFFF"><path d="m59.75 38.25-.8 2.22c-.41.29-.87.52-1.35.69l.48-1.32c.67-.39 1.25-.94 1.67-1.59zM58.29 30.2l-.34.95h-.01c-.3-.17-.61-.3-.95-.4l.34-.94c.34.1.66.23.96.39zM60.65 32.36l-.46 1.28a5.35 5.35 0 0 0-.68-1.16l.39-1.08c.28.29.53.61.75.96zM54.44 29.66l-.41 1.14c-.48.15-.93.38-1.33.67l.51-1.42c.39-.18.8-.31 1.23-.39zM45.26 39.31l-.57 1.57c-.39.2-.82.36-1.26.47l.42-1.18c.52-.21.99-.5 1.41-.86zM44.25 29.99l-.34.94c-.32-.13-.65-.23-.99-.29l.34-.95c.34.07.67.17.99.3zM46.72 31.86l-.42 1.16c-.2-.36-.45-.69-.74-.98l.36-1.01c.3.24.56.52.8.83zM40.28 29.8l-.45 1.26c-.58.28-1.09.66-1.51 1.13l.65-1.81h.01c.4-.24.84-.44 1.3-.58z" fill="#FFFFFF" opacity="1" data-original="#ffffff"></path></g></g></svg>