<svg width="140" height="140" viewBox="0 0 140 140" fill="none" xmlns="http://www.w3.org/2000/svg"><path fill-rule="evenodd" clip-rule="evenodd" d="M70 126C117.885 126 122.5 113.641 122.5 70C122.5 26.3586 117.885 14 70 14C22.1154 14 17.5 26.3586 17.5 70C17.5 113.641 22.1154 126 70 126Z" fill="#F2F2F2"></path><path fill-rule="evenodd" clip-rule="evenodd" d="M29.7897 118.125H110.21C116.926 113.154 120.049 105.495 121.446 94.235C118.357 95.0939 115.475 96.7653 113.311 99.5785C115.92 90.0526 101.681 99.7228 99.7427 103.764C99.8172 99.4341 94.5988 100.733 93.4806 103.908C92.8842 101.022 87.1439 103.331 86.9948 106.651C86.8457 103.403 83.9383 103.115 82.8201 106.146C82.6606 105.682 82.5068 105.211 82.352 104.737C81.7109 102.773 81.0537 100.759 79.9127 99.0733C79.6145 98.6403 77.229 95.8258 76.2598 94.8877C68.7304 88.1763 58.7409 98.7125 61.201 106.579C58.2936 103.62 52.0315 105.424 56.3553 109.465C54.4857 108.455 52.7175 108.918 51.0656 109.35C49.8851 109.659 48.764 109.952 47.7076 109.682C46.2457 109.29 45.3808 108.258 44.528 107.24C43.337 105.819 42.1697 104.426 39.4327 104.847C39.3972 105.328 39.2264 105.727 39.0572 106.123C38.8712 106.558 38.6873 106.988 38.6873 107.517C36.749 105.28 33.6179 101.816 29.7414 103.187C26.4312 104.358 26.8717 107.002 27.3031 109.592C27.3769 110.035 27.4505 110.476 27.5049 110.908C26.7219 107.497 23.7569 106.564 21.7266 107.5C23.5538 111.932 26.1418 115.425 29.7897 118.125Z" fill="white"></path><path d="M42.875 117.25C44.808 117.25 46.375 115.487 46.375 113.312C46.375 111.138 44.808 109.375 42.875 109.375C40.942 109.375 39.375 111.138 39.375 113.312C39.375 115.487 40.942 117.25 42.875 117.25Z" fill="#A6A6A6"></path><path d="M65.625 101.803V34.2448C65.625 31.5039 63 30.4669 61.9062 32.7633L40.7604 69.8018C39.8854 71.7278 39.375 74.0242 39.375 76.3206V106.174C39.375 108.47 40.9063 110.322 42.7292 110.248L60.0833 109.729C63.1458 109.581 65.625 106.1 65.625 101.803Z" stroke="#999999" stroke-width="3.1822" stroke-miterlimit="10"></path><path d="M38.5 98.0081L39.016 106.118C39.016 108.446 40.5639 110.323 42.4066 110.248L59.9494 109.722C63.1189 109.647 65.625 106.118 65.625 101.763V49.875L38.5 98.0081Z" fill="#999999"></path><path d="M116.876 117.106H30.8102C30.3611 117.106 29.9121 117.481 29.9121 118.005C29.9121 118.454 30.2863 118.903 30.8102 118.903H116.876C117.325 118.903 117.774 118.528 117.774 118.005C117.774 117.555 117.4 117.106 116.876 117.106Z" fill="#565656"></path><path d="M28.041 117.106H26.4694C26.0203 117.106 25.5713 117.481 25.5713 118.005C25.5713 118.454 25.9455 118.903 26.4694 118.903H28.041C28.49 118.903 28.9391 118.528 28.9391 118.005C28.8642 117.555 28.49 117.106 28.041 117.106Z" fill="#565656"></path><path d="M105.388 25.4622C103.803 25.4622 102.444 26.0563 101.388 27.0959C101.388 26.9474 101.388 26.8732 101.388 26.7246C101.388 21.155 96.783 16.625 91.1217 16.625C86.8191 16.625 83.1204 19.2984 81.6107 23.0115C81.0823 22.6402 80.403 22.3432 79.7236 22.3432C77.9875 22.3432 76.5533 23.7542 76.5533 25.4622C76.5533 25.685 76.5533 25.9077 76.6287 26.1305C75.7984 25.685 74.8926 25.4622 73.9868 25.4622C70.8165 25.4622 68.25 27.9871 68.25 31.1061C68.25 34.2251 70.8165 36.75 73.9868 36.75H105.388C108.559 36.75 111.125 34.2251 111.125 31.1061C111.125 27.9871 108.559 25.4622 105.388 25.4622Z" fill="white"></path><path d="M42.7104 112.466H79.9806C79.2322 112.466 75.3405 110.146 76.6128 108.125L94.5744 68.5349C96.8196 64.7181 98.9899 61.2755 102.133 61.5748H69.1288C66.8836 61.5748 64.8629 63.7452 63.9649 65.5413L40.8394 106.928C39.5671 109.173 40.3155 112.167 42.3362 112.466C42.4858 112.466 42.6355 112.466 42.7104 112.466Z" fill="#E0E0E0"></path><path d="M92.7781 71.4534L61.2705 70.8547L62.8421 68.0107L94.5742 68.5346L92.7781 71.4534Z" fill="#EDEDED"></path><path d="M87.9136 79.761L56.5557 79.0874L58.1273 76.3184L89.6349 76.7674L87.9136 79.761Z" fill="#EDEDED"></path><path d="M83.049 87.9934L51.8408 87.3198L53.4125 84.5508L84.7704 85.0747L83.049 87.9934Z" fill="#EDEDED"></path><path d="M77.9597 96.5999L47.2754 95.9263L48.847 93.1572L79.681 93.6063L77.9597 96.5999Z" fill="#EDEDED"></path><path d="M75.9395 105.805L41.8125 105.131L43.6087 102.362L77.8853 102.811L75.9395 105.805Z" fill="#EDEDED"></path><path d="M100.625 107.85V35.9948C100.625 33.2539 97.957 32.2169 96.8453 34.5133L74.9081 75.1816C73.9447 77.1076 73.5 79.404 73.5 81.7003V107.924C73.5 110.22 75.0564 112.072 76.9092 111.998L94.7701 111.479C98.0311 111.331 100.625 112.146 100.625 107.85Z" stroke="#999999" stroke-width="3.2032" stroke-miterlimit="10"></path><path d="M24.2991 45.9335C23.9997 45.9335 23.7752 45.709 23.7004 45.4845C23.6255 45.1103 23.7752 44.8109 24.1494 44.6613C24.2991 44.5864 33.2799 41.8922 38.818 37.2521C38.4438 37.2521 37.9948 37.1773 37.6206 37.1024C33.7289 36.4289 31.4837 34.1088 30.6605 32.3127C28.8643 28.1965 30.2114 25.8016 31.1843 24.679C32.9057 22.7332 36.0489 21.9848 38.8928 22.808C41.7368 23.6313 43.6826 25.8016 44.1316 28.7204C44.5058 31.1152 43.7574 33.5101 41.9613 35.7553C45.4039 35.0817 50.1188 32.9114 55.5821 26.9242C55.8066 26.6997 56.2557 26.6248 56.4802 26.9242C56.7047 27.1487 56.7796 27.5978 56.4802 27.8223C53.4118 31.2649 47.3497 36.7282 40.689 37.2521C39.1922 38.7489 37.2464 40.1709 34.8515 41.518C29.8372 44.3619 24.6733 45.8587 24.5236 45.9335C24.4487 45.9335 24.3739 45.9335 24.2991 45.9335ZM36.8722 23.7809C35.0012 23.7061 33.205 24.3796 32.1573 25.5771C30.8101 27.0739 30.7353 29.2442 31.8579 31.8636C32.5315 33.5101 34.7018 35.3811 37.8451 35.905C38.5186 35.9798 39.267 36.0547 40.24 36.0547C42.1858 34.034 43.3832 31.6391 43.009 29.0197C42.6348 26.6248 41.0632 24.8287 38.6683 24.1551C38.0696 23.8558 37.4709 23.7809 36.8722 23.7809Z" fill="#919191"></path><path d="M30.9599 46.2332C30.8102 46.2332 30.7354 46.1583 30.6605 46.0086C30.5857 45.859 30.7354 45.6344 30.8851 45.6344C30.8851 45.6344 34.3277 44.5867 36.5729 42.4912C36.7226 42.3415 36.8722 42.3415 37.0219 42.4912C37.1716 42.6408 37.1716 42.7905 37.0219 42.9402C34.7019 45.1854 31.2593 46.2332 31.1096 46.2332C30.9599 46.2332 30.9599 46.2332 30.9599 46.2332Z" fill="#919191"></path><path d="M17.1894 43.0144C17.5636 43.0144 17.6385 42.4157 17.3391 41.9666C17.0398 41.5924 16.2165 41.3679 15.3184 41.5176C14.6449 41.6673 13.0732 42.715 12.6242 43.3137C12.3997 43.7628 12.25 44.137 12.25 44.2867C12.25 44.3615 12.3997 44.6609 14.6449 45.3344C15.3933 45.5589 17.6385 45.7835 18.0127 45.1099C18.3869 44.4363 18.1623 43.9125 18.0127 43.5383C17.3391 42.5653 15.3933 43.3137 15.3933 43.3137C15.3933 43.3137 16.1417 42.9395 17.1894 43.0144Z" fill="#919191"></path><path d="M30.511 49.077C30.7355 48.9273 30.5858 48.4783 30.2116 48.3286C29.9123 48.1789 29.2387 48.3286 28.7148 48.7776C28.2658 49.1518 27.6671 50.4241 27.5922 51.0228C27.5174 51.4719 27.6671 51.7712 27.6671 51.8461C27.6671 51.9209 27.8916 52.0706 29.6878 51.6215C30.2865 51.4719 31.8581 50.7235 31.8581 50.1996C31.8581 49.6009 31.4839 49.3015 31.2594 49.1518C30.4362 48.7776 29.3884 50.0499 29.3884 50.0499C29.3884 50.0499 29.8374 49.4512 30.511 49.077Z" fill="#919191"></path><path d="M21.68 38.5991C21.8297 38.6739 21.9794 38.5243 21.9794 38.2997C21.9794 38.1501 21.7548 37.8507 21.4555 37.7759C21.231 37.701 20.4826 37.701 20.2581 37.7759C20.0335 37.8507 19.9587 37.9255 19.8839 38.0004C19.8839 38.0004 19.809 38.1501 20.4077 38.8236C20.6323 39.0481 21.3058 39.572 21.5303 39.4223C21.7548 39.2727 21.8297 39.0481 21.8297 38.8985C21.8297 38.4494 21.0065 38.2997 21.0065 38.2997C21.0065 38.2997 21.3806 38.3746 21.68 38.5991Z" fill="#919191"></path><path d="M72.625 99.7581L73.1354 107.868C73.1354 110.196 74.6667 112.073 76.4896 111.998L94.0625 111.472C97.2708 111.397 99.75 107.868 99.75 103.513V51.625L72.625 99.7581Z" fill="#999999"></path><path d="M73.3942 117.105C75.5849 117.105 77.3608 115.028 77.3608 112.465C77.3608 109.903 75.5849 107.825 73.3942 107.825C71.2036 107.825 69.4277 109.903 69.4277 112.465C69.4277 115.028 71.2036 117.105 73.3942 117.105Z" fill="#A6A6A6"></path><path d="M74.4424 115.459C75.8063 115.459 76.9121 114.119 76.9121 112.465C76.9121 110.812 75.8063 109.472 74.4424 109.472C73.0784 109.472 71.9727 110.812 71.9727 112.465C71.9727 114.119 73.0784 115.459 74.4424 115.459Z" fill="#565656"></path><path d="M98.4655 117.105C100.656 117.105 102.432 115.028 102.432 112.465C102.432 109.903 100.656 107.825 98.4655 107.825C96.2749 107.825 94.499 109.903 94.499 112.465C94.499 115.028 96.2749 117.105 98.4655 117.105Z" fill="#A6A6A6"></path><path d="M99.5137 115.459C100.878 115.459 101.983 114.119 101.983 112.465C101.983 110.812 100.878 109.472 99.5137 109.472C98.1497 109.472 97.0439 110.812 97.0439 112.465C97.0439 114.119 98.1497 115.459 99.5137 115.459Z" fill="#565656"></path><path d="M119.496 109.323C118.747 107.677 116.802 107.003 115.155 107.751C113.509 108.5 112.835 110.446 113.583 112.092C114.332 113.739 116.278 114.412 117.924 113.664C119.571 112.915 120.244 110.97 119.496 109.323Z" fill="#9C9C9C"></path><path d="M124.735 105.656C125.857 105.132 126.306 103.785 125.783 102.662C125.259 101.539 123.912 101.09 122.789 101.614C121.666 102.138 121.217 103.485 121.741 104.608C122.265 105.73 123.612 106.18 124.735 105.656Z" fill="#9C9C9C"></path></svg>