<svg width="160" height="160" fill="none" xmlns="http://www.w3.org/2000/svg"><g clip-path="url(#clip0)"><path d="M80 155c41.4 0 75-33.6 75-75S121.4 5 80 5 5 38.6 5 80c0 41.5 33.6 75 75 75z" fill="url(#paint0_linear)"/><path d="M99.934 49.573h-28.18v38.56h28.18v-38.56z" fill="#A6D1FC"/><path d="M110 34H91.035v54.134H110V34zM117.731 62.92H110v25.214h7.731V62.92zM160 62.18h-20.022v25.954H160V62.179z" fill="#A6D1FC"/><path d="M152.584 72.561h-21.505v15.573h21.505V72.56z" fill="#A6D1FC"/><path d="M116.99 51.056h6.674l8.157 8.157v28.92H116.99V51.057zM81.764 56.988H65.45c-4.969 0-9.64 2.002-13.126 5.562l-1.705 1.78c-1.78 1.78-4.153 2.818-6.674 2.818H32.228c-2.299 0-4.45.89-6.007 2.521a10.212 10.212 0 01-7.341 3.115h-6.303A10.95 10.95 0 001.602 83.759v4.449h80.162v-31.22zM32.645 48.35c-1.558-.519-3.337-.148-4.598 1.038-1.26 1.261-1.631 3.04-1.038 4.598l5.636-5.636z" fill="#A6D1FC"/><path d="M27.083 53.912c.52-1.557.148-3.337-1.038-4.598-1.26-1.26-3.04-1.631-4.598-1.038l5.636 5.636zM27.009 53.986c-1.557-.52-3.337-.148-4.598 1.038-1.26 1.26-1.631 3.04-1.038 4.598l5.636-5.636z" fill="#A6D1FC"/><path d="M26.935 53.986c1.557-.52 3.337-.148 4.597 1.038 1.261 1.187 1.632 3.04 1.039 4.598l-5.636-5.636z" fill="#A6D1FC"/><path d="M35.018 53.912c-.742-1.483-2.225-2.521-4.005-2.521a4.578 4.578 0 00-4.078 2.52h8.083z" fill="#A6D1FC"/><path d="M27.009 53.986c-.742-1.483-2.225-2.521-4.005-2.521-1.78 0-3.262 1.038-4.004 2.521h8.009z" fill="#A6D1FC"/><path d="M25.674 70.004h2.596l-.52-17.056h-1.557l-.519 17.056z" fill="#A6D1FC"/><path d="M99 41h-4v4h4v-4zM106 41h-4v4h4v-4zM98.45 48.416h-3.707v3.707h3.708v-3.707zM105.866 48.416h-3.708v3.707h3.708v-3.707zM98.45 55.831h-3.707v3.708h3.708v-3.708zM105.866 55.831h-3.708v3.708h3.708v-3.708zM98.45 63.247h-3.707v3.708h3.708v-3.708zM105.866 63.247h-3.708v3.708h3.708v-3.708z" fill="#E7F3FF"/></g><path d="M86.9 133H39V56c0-4.418 3.572-8 7.99-8H87v85h-.1z" fill="#FFD500"/><path d="M87.048 133H110V56c0-4.418-3.579-8-7.997-8H87v85h.048zM83 128H39v5h44v-5z" fill="#001959"/><path d="M110 79H87v9h23v-9z" fill="#3A89F8"/><path d="M75.4 58.603c.8 0 1.5.695 1.5 1.49v58.755c0 .795-.7 1.491-1.5 1.491h-4.9c-.8 0-1.5-.696-1.5-1.491V59.994c0-.795.7-1.49 1.5-1.49l4.9.099zm0-.995h-4.9c-1.4 0-2.6 1.094-2.6 2.486v58.754c0 1.392 1.1 2.486 2.6 2.486h4.9c1.4 0 2.6-1.094 2.6-2.486V59.994c0-1.292-1.1-2.386-2.6-2.386zM55.4 58.603c.8 0 1.5.695 1.5 1.49v58.755c0 .795-.7 1.491-1.5 1.491h-4.9c-.8 0-1.5-.696-1.5-1.491V59.994c0-.795.7-1.49 1.5-1.49l4.9.099zm0-.995h-4.9c-1.4 0-2.6 1.094-2.6 2.486v58.754c0 1.392 1.1 2.486 2.6 2.486h4.9c1.4 0 2.6-1.094 2.6-2.486V59.994c0-1.292-1.1-2.386-2.6-2.386z" fill="#FFE871"/><path d="M87 79H39v9h48v-9z" fill="#fff"/><path d="M68 79H58v9h10v-9zM43.5 142c-2.544 0-4.5-1.957-4.5-4.5s1.956-4.5 4.5-4.5 4.5 1.957 4.5 4.5c0 2.446-1.956 4.5-4.5 4.5z" fill="#001959"/><path d="M43.5 133H39v4.5h4.5V133z" fill="#001959"/><path d="M61 124c0-9.941 8.059-18 18-18h38c9.941 0 18 8.059 18 18v9H61v-9z" fill="#3A89F8"/><path d="M87 106h-4v36h4v-36zM70 27a4 4 0 00-4 4v17h3V33h15v15h3V31a4 4 0 00-4-4H70zM114 106h-4v36h4v-36z" fill="#001959"/><path d="M126.098 142H70c-4.9 0-9-4-9-8.8v-.2h73.998v.2c.1 4.9-3.9 8.8-8.9 8.8zM94 117.5l4.5 4.5 4.5-4.5-4.5-4.5-4.5 4.5z" fill="#001959"/><path d="M60.724 86.553L60 88h6l-.724-1.447a1 1 0 00-.894-.553h-2.764a1 1 0 00-.894.553zM60.724 80.447L60 79h6l-.724 1.447a1 1 0 01-.894.553h-2.764a1 1 0 01-.894-.553z" fill="#fff"/><path d="M88.5 103.5c0-5.523 4.477-10 10-10s10 4.477 10 10v4h-20v-4z" stroke="#3A89F8" stroke-width="3"/><path d="M43.538 150.689c.119.472.8-.033.727-.256-.303-.604.207-.959-.473-1.293-.315-.007-.888-.06-1.005.256-.184.536-2.127-.443-1.758.403.136.172.113.281-.111.303-.916.618.51 1.015.609.011.358-.239.866.31 1.062.032a.803.803 0 01.949.544zM36.443 145.21c.632.287.128-1.428-.3-1.042-.428.465-.007.544-.933.248-.621-.056-.252.659-.639.524-1.2.131.57 1.044.145 1.472-.57.503.644.666.603.136.072-.59-.801-1.421.315-1.448.439.043.633-.133.809.11zM63.433 150.761c.377-.666-.703-.624-.809-.19-.236.482-.683-.516-.757.598-.889-1.958-1.257.374-.801.659.274-.001.182-.413.331-.526.385-.219 1.035 1.212 1.57.539.118-.503.042-.68.466-1.08zM33.67 142.807c-1.422-.858-1.537 3.154.133 1.748.277-.161 1.31-.136.432-.528-.404 0-.701.274-.742-.396.463-.213.843-.519.176-.824zM56.298 150.528c-.018-.662-1.46-1.3-.986-.16-.244.919-1.132-1.242-1.322-.114-.255.458 1.023.426.77.656-.96-.329-.629.934-.025.374.184-.198.551.456.686-.273.043-.414.716-.142.877-.483zM50.833 151.95c-.327-.241-.344-1.559-.989-.631-.163.368.51.49.57.779.154 1.419-1.162.572-.936 1.558.548.795.506-.3.86-.163.394.113.487-.349.475-.649.016-.274.313-.703.02-.894zM54.923 152.584c-.79.125.591-1.152-1.28-.698-.218.251-.346.854.147.776.093-.03.148-.114.212.048.247.964.7-.014.815.516.06 1.15 1.185-.847.106-.642zM68.16 151.384c-.593-1.204-.205-.708-1.277-.746-.962.129-.62 2.482.054.897.289-1.092 1.212 1.244 1.307.158.06.985.494.904 1.236.897 1.516-.076-1.39-2.259-1.32-1.206zM44.238 151.914c-.259-.326-1.606-1.326-1.544-.528.178.472.123 1.412.784 1.211.467-.006 1.453-.048.76-.683zM52.74 151.704c-.049-.799-.366-.466-.514-.976-.12-.366-.38-.2-.386.051.011.352-.384.431-.5.723.039.566 1.333.931 1.4.202zM32.669 146.662c-.833.495-.573-.236-1.208-.155-.98.478.353.452.542.818.25.663.69.073 1.01-.203.382-.272-.056-.551-.344-.46zM48.211 151.976c-.674-.23-.518.42-.396.878.183.546 1.925-.678.396-.878zM37.57 149.075c-.633.171-.562-.652-1.126-.245-.253.432.683.614.91.907.488.055.898-.412.216-.662zM56.186 152.733c-.092.373.24.628.306.958.184.75.48.053.545-.372.04-.379-.637-1.149-.851-.586z" fill="#D5E7FB"/><path d="M45.163 151.332c-.62-.052-1.026.79-.262.881.772.324.85-.637.262-.881zM57.503 151.754c-.292.217-.608-.666-.788.104.627 1.428 1.753.053.788-.104zM60.652 151.82c-.87-.195-.069 1.86.522.559.183-.413-.282-.424-.522-.559zM39.538 153.266c.028.612 1.034.469.978-.049-.232-.608-.834-.627-.978.049zM28.913 144.005c-.067.214-.352.143-.162.456.2.537.953.195.37-.221-.167-.149.04-.211.17-.201 1.098-.193-.574-.934-.378-.034zM32.236 144.726c-.074-.484-1.25-.665-.913.028.173.348.855.414.913-.028zM33.488 145.348c-.508-.035-.388.792-.03.836.678-.12.914-.704.03-.836zM46.925 152.548c-.085.623.49.878.775.444.07-.357-.631-.962-.775-.444zM62.16 153.026c-.291.127-.432.806.062.815.658-.119.701-.839-.061-.815zM39.26 149.678c-1.336.165.321 1.364.33.495-.024-.383-.112-.507-.33-.495zM46.876 150.664c-.364.163-.309.843.094.782.756-.027.448-.854-.094-.782zM42.883 147.985c-.563-.469-.555.751-.118.877.42-.007.396-.649.118-.877zM58.572 152.319c-.611-.083-.563.723-.133.802.385.018.64-.707.133-.802zM59.144 151.81c.089.456.74.634.715-.064.046-.619-.708-.312-.715.064zM51.75 154.276c-.487.09-.19.846.267.742.511-.003.17-.835-.267-.742zM35.029 148.961c.037.377.657.502.698.055.038-.733-.666-.685-.698-.055zM65.837 152.683c.542-.04.217-.916-.238-.776-.312.199-.039.786.238.776zM52.237 152.657c-.248.196-.066.674.23.644.64-.128.371-.809-.23-.644zM30.718 148.208c-.5.094-.62.594.056.622.515.067.364-.653-.056-.622zM35.581 146.851c-.25-.003-.223.291-.124.47.413.601.883-.355.124-.47zM41.642 148.314c-.262.007-.39.104-.376.301.09.797 1.466-.288.376-.301zM29.273 142.829c.561-.141.162-.773-.397-.599-.271.209.094.635.397.599z" fill="#D5E7FB"/><path d="M40.226 150.801c-.029-.365-.112-.441-.376-.345-.648.163.38 1.177.376.345zM32.292 146.169c.003.162.173.274.332.262.754-.133-.288-1.302-.332-.262zM34.899 148.574c.215-.159.04-.413-.175-.575-.643-.334-.314.885.175.575zM33.958 149.165c-.388.003-.581.323-.319.519.502.161.992-.516.32-.519zM26.505 143.123c-.444.07-.112.697.294.604.437-.128.098-.547-.294-.604zM37.32 147.123c-.127-.101-.381-.055-.478.056-.582.785 1.014.354.477-.056zM31.082 142.553c.093-.259-.335-.633-.549-.419-.17.369.36.837.55.419zM65.625 154.091c.054.562.615.262.493-.315-.148-.314-.495-.016-.493.315zM63.018 154.029c.141.452.612.029.53-.369-.169-.327-.588.072-.53.369zM58.97 155.532c-.22.205.028.567.247.305.214-.202-.031-.563-.248-.305zM54.306 154.923c-.155.104-.327.422-.225.575.406.225.783-.808.225-.575zM34.974 150.563c.092.197.414.311.429.04-.072-.369-.629-.487-.428-.04zM34.568 151.4c.003.237.573.576.613.231-.07-.261-.616-.6-.613-.231zM52.838 152.342c.127.212.41.184.35-.078-.143-.368-.504-.2-.35.078zM122.61 146.402c-.023.485.304.901.615.23.207-.405.476.255.746.192 1.447-.05 1.029-1.174.561-.699-.182.304-.217.243-.428.032-.852-.646.841-.243.149-1.01-.589-.298 1.103-.806-.321-.95-.922.197.181.734-.203.888-.597.357-.5-.091-1.103.303-.743.202-.036.67-.016 1.014zM98.413 150.688c.119.473.8-.032.727-.255-.299-.645.158-.688-.313-1.221-.295-.157-1.029-.131-1.164.184-.493.438-2.205.051-2.022-.822.444-.674-.584-1.042-.49-.148-.058.527.005 1.953.717 1.27.068.192.252.38-.076.405-.884.438.397 1.045.538.198.073-.628.974.157 1.133-.156a.807.807 0 01.95.545zM118.308 150.761c.377-.666-.703-.624-.808-.19-.237.482-.684-.516-.757.598-.89-1.958-1.258.374-.802.659.275-.001.182-.413.331-.526.385-.219 1.035 1.212 1.57.539.118-.503.042-.68.466-1.08zM121.249 146.973c-.213.376-.674.138-.999.319-.344.345.726.853 1.033 1.157.513 1.916.868.128.379-.735.765-.373.43-1.256-.413-.741zM111.173 150.528c-.018-.662-1.46-1.3-.986-.16-.243.919-1.132-1.242-1.322-.114-.254.458 1.023.426.771.656-.961-.329-.63.934-.026.374.185-.198.551.456.686-.273.043-.414.716-.142.877-.483zM105.708 151.95c-.327-.241-.344-1.559-.988-.631-.164.368.51.49.569.779.154 1.419-1.162.572-.936 1.558.548.795.507-.3.86-.163.394.113.487-.349.475-.649.017-.274.313-.703.02-.894zM127.246 145.051c.425.478 1.122-.44.531-.718-.317-.234-.592-.759-1.016-.675-.523-.097-1.193.66-.642.997.673.16.704-.717 1.127.396zM109.798 152.584c-.791.125.591-1.152-1.28-.698-.218.251-.345.854.147.776.093-.03.148-.114.212.048.247.964.701-.014.815.516.06 1.15 1.185-.847.106-.642zM122.538 150.514c-.301.089-.479.266-.779.124-.963.129-.621 2.482.053.897.216-.726.788.146 1.065.44.616.083-.112-1.268-.339-1.461zM99.114 151.914c-.26-.326-1.607-1.326-1.545-.528.178.472.124 1.412.784 1.211.467-.006 1.453-.048.76-.683zM107.615 151.704c-.048-.799-.366-.466-.514-.976-.119-.366-.38-.2-.386.051.011.352-.383.431-.499.723.038.566 1.332.931 1.399.202zM125.049 148.574c.438-.625-.54-1.068-.488-.192-.088.577.055 2.139.797 1.21.185-.437-.486-.663-.309-1.018zM126.649 145.972c-.105.497.666.4.467.812-.032.104-.076.296.053.341 1.483.561-.095-2.376-.52-1.153zM103.087 151.976c-.675-.23-.518.42-.397.878.183.546 1.925-.678.397-.878zM123.688 147.413c-1.424.093.876 2.479.423.415.041-.265-.086-.438-.423-.415zM111.061 152.733c-.091.373.241.628.307.958.183.75.479.053.544-.372.04-.379-.637-1.149-.851-.586zM119.675 150.168c-.293.208.207.973.529 1.037 1.184-.153.045-1.183-.529-1.037z" fill="#D5E7FB"/><path d="M100.038 151.332c-.62-.052-1.026.79-.262.881.773.324.85-.637.262-.881zM112.378 151.754c-.292.217-.608-.666-.788.104.626 1.428 1.753.053.788-.104zM115.528 151.82c-.871-.195-.069 1.86.521.559.183-.413-.281-.424-.521-.559zM127.868 142.361c-.634.358.036 1.134.617.836.49-.28-.187-.955-.617-.836zM94.413 153.266c.028.612 1.034.469.978-.049-.232-.608-.833-.627-.978.049zM123.236 144.276c-.056-.389-.494-.37-.724-.098-.666.459.628 1.297.724.098zM125.919 148.17c-.812.229.846 1.462.692.577-.018-.459-.296-.721-.692-.577zM132.772 142.96c.524-.08.381-.455.156-.728-.523-.168-1.454.637-.156.728zM125.098 145.541c.144.34.964.641.933.012.064-.75-.927-.422-.933-.012zM125.474 151.589c.055.383.487.878.694.327.116-.532-.718-1.119-.694-.327zM101.8 152.548c-.085.623.49.878.775.444.07-.357-.631-.962-.775-.444zM117.036 153.026c-.293.127-.432.806.061.815.658-.119.702-.839-.061-.815zM129.542 142.749c-.844.34-.418.795.339.67.376-.156.005-.76-.339-.67zM130.098 149.573c-.292.278.317 1.357.595.782.176-.3-.222-1.093-.595-.782zM94.135 149.678c-1.336.165.322 1.364.33.495-.024-.383-.112-.507-.33-.495zM130.685 142.936c.222.33.717.316.606-.197-.23-.955-.718-.572-.606.197zM125.751 147.343c.53.151 1.121-.634.253-.613-.609-.136-.6.301-.253.613zM101.751 150.664c-.364.163-.309.843.094.782.756-.027.448-.854-.094-.782zM133.6 146.718c.064.313.842.44.808-.027-.08-.699-.782-.585-.808.027zM97.758 147.985c-.562-.469-.554.751-.117.877.42-.007.395-.649.117-.877zM113.448 152.319c-.612-.083-.564.723-.134.802.385.018.639-.707.134-.802zM130.133 145.798c-.554.051-.237.69.139.751.586-.039.46-.771-.139-.751zM114.019 151.81c.089.456.74.634.715-.064.046-.619-.707-.312-.715.064zM106.625 154.276c-.487.09-.19.846.267.742.511-.003.17-.835-.267-.742zM120.713 152.683c.541-.04.216-.916-.237-.776-.314.199-.04.786.237.776zM107.112 152.657c-.248.196-.065.674.23.644.639-.128.372-.809-.23-.644zM132.13 144.434c-.53-.397-1.137.221-.211.491.254.038.464-.304.211-.491zM128.854 146.281c-.419.083-.246.706.144.593.634.055.324-.562-.144-.593z" fill="#D5E7FB"/><path d="M95.101 150.801c-.028-.365-.112-.441-.375-.345-.648.163.379 1.177.375.345zM121.37 149.528c-.459-.07-.746.631-.197.791.478.176.731-.675.197-.791zM134.057 143.123c.047.265.582.653.649.23-.003-.439-.584-.683-.649-.23zM120.5 154.091c.055.562.615.262.494-.315-.149-.314-.496-.016-.494.315zM117.893 154.029c.141.452.613.029.529-.369-.167-.327-.587.072-.529.369zM122.374 148.513c.414.236.603-.422-.026-.439-.297.037-.171.314.026.439zM113.844 155.532c-.22.205.029.567.248.305.214-.202-.031-.563-.248-.305zM109.181 154.923c-.155.104-.327.422-.225.575.406.225.783-.808.225-.575zM91.031 150.446c-.283-.095-.807-.665-.854-.036-.19-.244-.482-.154-.327.154.311.292.544.163.827.607.491.149 1.014-.499.354-.725zM89.443 151.4c.003.237.573.576.614.231-.072-.261-.616-.6-.614-.231zM128.112 150.223c-.318-.317-.523.243-.164.339.199.06.327-.212.164-.339zM107.713 152.342c.127.212.41.184.351-.078-.144-.368-.505-.2-.351.078z" fill="#D5E7FB"/><path d="M35.68 143.953c.41-.111-.129-.655.382-.602.658-.043.461.847 1.08.972.23.064.292.135.086.305-.63.554.278 1.149-.403 1.214-.537.269.38.721.592.294.169-.303 1.252-.428.65-.8-1.12-.813.272-.391.414-.939.064-.321.501-.273.777-.242.303.087.12.598.409.765.052.082.042.134-.086.144-.365.035-.462.484-.705.747-.09.232-.52.421-.338.663.36.452.576.063.892.295.102.249-.441.732-.602.475-.092-.557-1.167-.476-.757.107.239.586-.427.594-.784.748-.222.666 1.76 1.232.975.146-.21-.573.583.37.697-.114.252-.48.607-.252.985-.269.482-.398 1.29.115 1.864.166 1.697.002-2.215-2.206 3.037-1.239.86.221 1.384.229 1.01 1.19-.257.044-.485-.274-.576-.508-.325-.883-.96-.012-1.472-.268-.492-.217-.403.4-.366.699-.048.471.102.734.605.685.5-.025.392 1.109 1.18.523.325-1.31 1.259.67 1.382-.396-.04-.422-.391-.683.08-.932.342-.623 1.131-.755.995.219-.054.384.688.016.939.243.31.149.283.983-.107.661-.306-.668-.588-.221-1.068-.336-.873-.427-.457 1.175-1.31.678-1.453-1.013-.163 2.502.325 1.525.063-.333.333-.562.631-.635 1.824.044.437.42 1.047 1.207.372.271.852-.333.913.406.07.3.576.861.766.36.058-.603-.424-1.093.122-1.586.835-.329.256-.714.351-1.248.068-.122.235-.358.236-.077-.015.38.65.61.207.9-.128.082-.306.163-.227.336.131.385 1.16.521.878-.066.017-.826-.096-.771-.521-1.48.38-.592-.865-1.421-1.02-.571-.04.366-.215.181-.433.087-.471-.3.962-.761 1.12-1.091.542-.075.016.197.711 1.077-.033.698.727.656.79 1.189-.036.309.034.661.268.829.386.154.297-.622.734-.179 1.689.856-.148-1.66.815-1.091.147.417.55.217.535-.216-.096-.428.553-.287.5-.689-.006-.161-.187-.36.035-.483.334-.161.744.749.988-.016.046-.347.242.215.393.296.408.499-1.166-.016-1.282.39-.11.32-.408.789-.083 1.052.262-.129 1.24-.732 1.274-.078-.201.71.33.506.49.825.014.193-.058.361.17.478.378.336.633-.533.908.02 1.151.764 3.132-.5.892-1.105-.347-.367-.537.63-.65.127.174-.949.386-.439.622-.996.083-.357 1.381.173.783.421-.8.137-.347.693.186.516.493.215.82.496.83.882.33.507.616-.088.177-.27 1.132-.808-1.324-.667-.35-1.677.443-.054-.087-.551.19-.511.808.254.556-.225.601-.642.304.202.51-.206.31-.452.612-.7-.027-1.043-.586-.395.104-.334-.355-.955.244-.846.192.165.82-.072.703.279-.135.726 1.135.186 1.344-.08.202-.037 1.926 1.317 1.197 1.213-.216-.515-.74-.128-.98-.542-3.131-.469 1.049 2.099-2.14 2.065-.642-1.023-1.045 1.508-.05.517.162-.024.254.399.467.037.543-.665.81 1.153 1.486.464.991-.383-.724-.68.806-.933-.26.561.062.532.606.947-.553.19-.102.683.257.743.103.277.343.682.606.727 1.344-.373-.193-.762-.307-1.283.612-.254-.209-.512-.054-.96.211-.738-.558-.53-.543-.83.123-.52.767.1.755-.281 1.164-.393 1.566 2.461 1.899 1.05 1.702-.685.048-1.143.246-.563-.556.05-.69-.551-.051-.309 1.31.005-.617-1.351.477-1.385.118.419.33.499.599-.016.534-.103.64.356 1.335.064.84-.345 1 1.082 1.735.512-.03.168.043.74-.099.777-1.39-.679.235-1.056-2.049-.778-.27-.12-.364.014-.389.209-.407.02-.881.26-.444.653.613.986.604.385 1.231.559-.024.624.1 1.725.77 1.035.603-1.836.448-.362 1.274-.673.758.349-.028-.961.28-1.066.402-.545 1.25-1.11 1.155.082-.056.383.688.015.938.242.31.149.284.983-.107.661-.306-.668-.587-.221-1.068-.336-.873-.427-.457 1.175-1.31.678-1.453-1.013-.163 2.502.325 1.526.088-.497.605-.715 1.036-.617-.426.471.733.541.221.025.823.124-.096.495.422 1.164.371.271.852-.333.913.406.07.299.575.86.765.359-.563-2.481.95-.718.474-2.834.065-.122.239-.356.236-.076-.016.379.65.609.206.899-.127.082-.305.164-.226.336.14.407 1.204.505.86-.096-.188-.289.236-.561-.089-.826-.371-.289-.409-.699-.353-1.091-1.18-1.305-.836.484-1.514-.016-.46-.298.946-.763 1.12-1.09.326-.03.322-.027.291.299-.073.383.41.415.42.777-.032.699.722.656.789 1.189-.036.309.034.662.269.829.387.155.297-.622.734-.177.91.598.864-.44.48-.978.158-.717.627.713.868-.193-.157-.524.498-.406.501-.826-.005-.16-.186-.359.036-.482.329-.163.75.75.987-.017.05-.346.24.216.394.297.26.858-1.044-.185-1.282.389-.85 2.264.912-.137 1.19.975-.2.71.33.505.49.825.009.192-.05.362.17.478.379.335.633-.533.908.02.245.381.596.22.926.165 2.166.112.33-1.782-.476-1.112-.053.2-.248.138-.208-.031.175-.935.356-.446.608-.96.09-.367.5-.028.774.01.545.091-.37.636.164.876.516.08.747.791 1.113.6.945-.691-1.316-.888-.503-1.438.436.062.412-.447.118-.588-.015-.095.062-.175.164-.135 1.03.322.338-.542.735-.957.392.348.513.733.976.211.935 1.778-.576.906-1.55 1.625-.362.183.097.715.353.348.253-.382.332.376.597-.073.487-.717.69.994 1.432.516.792-.036.93-.869.056-.52-.113-.116.203-.378.78-.478.23.086-.412.347.114.611.438.472 1.816.872 1.036-.125.566-.73-.445-.881-.811-1.236-.472-.735 1.57.598.896-.528.397.112 1.473.885 1.486 1.564-.223-.155-.311-.572-.704-.234-.3.407.48.459.656.704-.461-.097-.769.625-.212.785.358.133.581-.309.465-.582.457.058.877-.38.284-.63-.144-.763.975.18.77-.602.11-.108.084-.332-.178-.405.053-.221.579.439.716.069.019-.079.084-.165.124-.057.94 1.31.462.088 1.016-.31.548-.388 2.94 1.022 1.955-.619.163-.154.202-.359-.076-.426.024-.169.616-.059.898-.121.01.133-.162.408.024.491 1.427.359-.458-1.297 1.828-.251.907-.082 1.546.288 1.143 1.106-.258.044-.486-.275-.577-.508-.325-.884-.96-.012-1.472-.269-.491-.217-.402.401-.366.699-.047.472.104.735.605.685.5-.024.393 1.11 1.18.523.16-.167.026-.468.323-.443.471-.101.961.886 1.06.047.055-.274-.399-.646-.079-.794.399-.544 1.252-1.109 1.154.082-.055.384.687.015.938.242.31.15.283.984-.107.662-.304-.668-.59-.221-1.068-.337-.873-.427-.457 1.175-1.31.679-1.453-1.014-.163 2.502.325 1.525.063-.333.333-.562.631-.635 1.825.043.437.419 1.048 1.207.371.271.852-.333.912.406.07.3.576.861.766.36-.629-1.856.955-1.424.462-2.539-.155-.146.234-.755.246-.372-.015.381.651.61.207.899-.128.082-.306.164-.227.337.142.407 1.203.504.861-.097.037-.596-.056-.865-.48-1.365.301-.616-.792-1.548-1.043-.655-.085.534-1.26-.128.283-.617.163-.241.811-.744.695-.086-.073.383.409.415.419.776-.031.699.724.656.79 1.19-.036.308.034.661.269.828.385.155.296-.621.733-.177.913.6.862-.441.482-.978.158-.717.624.714.867-.192-.159-.526.499-.406.501-.827-.005-.16-.187-.359.036-.482.33-.161.748.749.987-.016-.032-.361.668.511.399.565-.44.353-.913-.427-1.287.12-.182.269-.442 1.368.162.933.167-.25 1.112-.415 1.028.042-.201.71.33.506.489.825.012.194-.051.361.171.478.379.335.633-.533.908.02.244.382.596.22.926.165 2.165.113.33-1.781-.476-1.112-.051.201-.25.137-.208-.031.175-.935.356-.446.608-.96.097-.385.561.01.845.024.389.165-.423.624.092.862.517.081.749.792 1.114.601.212-.135.414-.383.125-.566-1.449-.741-.436-.508-.507-1.428-.027-.103.037-.215.161-.168 1.108.348.221-.682.847-1.043.204-.127.462-.58.201-.783-.382-.245-.851.807-.973.171-.013-.322.153-.876.574-.641.203.096.742-.082.624.241-.183.387.562.52.599.162.268-.893 2.027.542 2.142.891-.099.216-.268.024-.403-.05-.363-.083-.557-.154-.777-.412-1.252-.276-1.505.19-.906 1.183.33 1.266-.925.46-1.718 1.145-.437.121.019.759.305.364.253-.382.332.376.597-.073.487-.717.69.995 1.432.517.343-.595-.447-.609.719-.99.507-.056-.343.33.23.604.38.158.882.826 1.253.413.207-.341-.394-.407-.236-.841.351-.784-1.218-.65-.861-1.109.464-.267 1.523.719.865-.541-.251-.991.539.174-.121-1.773.067-.34.403.157.552.251.446.232.164.855.626 1.022 1.057-.007.024-.983.345-.989.167-.036.185-.129.139-.275-.151-.635.816-.987 1.03-1.623.418-.679 1.039.381 1.395-.832.584-.414.314 1.471 1.123.992 1.11-.977.95-.524.788-1.749.75-.235.72.554.951 1.048.878.302.32-.822.511-1.394H33.952c.013.767 1.123 1.729 1.728 1.953zm58.005 3.24c-.319-.321.274-.67.621-.423.112.262-.514.788-.62.423zm-1.078-2.477c1.813.509.652-.47 1.527-.561.35.078-.262.519.207.689.554.349-2.244.961-1.734-.128zm-1.738 1.074c.446.232.165.855.626 1.022.855-.093 1.276-2.258 1.822.065-.755-.13-.221.509-.389.852-.055.315-.79.436-.675-.015.764-.373.43-1.257-.412-.741-.212.368-.658.148-.986.31.024-.173-.078-.387-.39-.431.132-.146.29-.285.074-.521-.318-.487-.311-1.324.33-.541zm-3.664.138c-.113.226.038.581.344.491.325.017.207-.552.528-.463.216.571.711-.231.926.26.074.336.98.654.918.917-.768.044-1.429-.915-2.377-.47-.84.438-.273-.038-.571-.384-.297-.252-.939.767-.976.117-.08-.778.779-.666 1.208-.468z" fill="#D5E7FB"/><path d="M66.992 150.113c.358-.239.866.31 1.062.032a.803.803 0 01.95.543c.12.473.8-.032.727-.255-.303-.604.207-.959-.472-1.293-.316-.007-.888-.06-1.005.257-.377.479-2.84-.486-2.104.852-.27.846.834.464.842-.136zM88.9 150.761c.376-.666-.703-.624-.809-.19-.237.482-.684-.516-.757.598-.89-1.958-1.257.374-.802.659.275-.001.183-.413.332-.526.384-.219 1.035 1.212 1.57.539.117-.503.042-.68.465-1.08zM81.764 150.528c-.017-.662-1.46-1.3-.986-.16-.243.919-1.131-1.242-1.321-.114-.255.458 1.022.426.77.656-.96-.329-.63.934-.026.374.185-.198.552.456.686-.273.044-.414.716-.142.877-.483zM76.3 151.95c-.328-.241-.344-1.559-.989-.631-.163.368.51.49.57.779.154 1.419-1.162.572-.937 1.558.548.795.507-.3.86-.163.394.113.488-.349.475-.649.017-.274.314-.703.02-.894zM80.39 152.584c-.791.125.59-1.152-1.28-.698-.218.251-.346.854.147.776.093-.03.147-.114.212.048.247.964.7-.014.815.516.06 1.15 1.185-.847.105-.642zM93.13 150.514c-.302.089-.48.266-.78.124-.963.129-.62 2.482.053.897.216-.726.788.146 1.065.44.616.083-.112-1.268-.339-1.461zM78.205 151.704c-.048-.799-.366-.466-.514-.976-.119-.366-.38-.2-.386.051.012.352-.383.431-.499.723.038.566 1.333.931 1.399.202zM73.678 151.976c-.675-.23-.518.42-.397.878.184.546 1.926-.678.397-.878zM81.652 152.733c.021.672.652 2.015.852.586.04-.379-.637-1.149-.852-.586zM70.63 151.332c-1.607.242.144 1.578.662.584.096-.468-.496-.946-.662-.584zM82.97 151.754c-.293.217-.609-.666-.789.104.626 1.428 1.753.053.788-.104zM86.119 151.82c-.87-.195-.069 1.86.521.559.184-.413-.282-.424-.521-.559zM65.983 153.217c-.233-.609-.835-.627-.978.049.027.613 1.034.469.978-.049zM96.599 148.869c1.204.829.377-1.535-.308-.513-.364.187-.006.725.308.513zM96.065 151.589c.056.383.487.878.694.327.117-.532-.717-1.119-.694-.327zM72.392 152.548c-.086.623.489.878.775.444.07-.357-.632-.962-.775-.444zM87.627 153.026c-.293.127-.432.806.062.815.658-.119.701-.839-.061-.815zM72.343 150.664c-.365.163-.31.843.093.782.755-.027.448-.854-.093-.782zM68.35 147.985c-.563-.469-.555.751-.118.877.42-.007.396-.649.118-.877zM84.039 152.319c-.612-.083-.564.723-.133.802.384.018.639-.707.133-.802zM84.61 151.81c.09.456.74.634.715-.064.047-.619-.707-.312-.715.064zM77.216 154.276c-.486.09-.19.846.267.742.512-.003.17-.835-.267-.742zM91.304 152.683c.541-.04.217-.916-.238-.776-.313.199-.039.786.238.776zM77.703 152.657c-.248.196-.065.674.23.644.639-.128.372-.809-.23-.644zM91.091 154.091c.055.562.615.262.494-.315-.149-.314-.496-.016-.493.315zM88.485 154.029c.14.452.612.029.529-.369-.168-.327-.587.072-.53.369zM84.436 155.532c-.22.205.029.567.248.305.213-.202-.031-.563-.248-.305zM79.771 154.923c-.154.104-.327.422-.224.575.407.225.782-.808.224-.575zM60.647 151.631c-.07-.261-.615-.6-.614-.231.003.237.575.576.614.231zM78.305 152.342c.127.212.409.184.35-.078-.143-.368-.505-.2-.35.078z" fill="#D5E7FB"/><defs><linearGradient id="paint0_linear" x1="80" y1="5.047" x2="80" y2="155.047" gradientUnits="userSpaceOnUse"><stop offset=".161" stop-color="#D5E7FB"/><stop offset=".737" stop-color="#D5E7FB" stop-opacity="0"/></linearGradient><clipPath id="clip0"><rect x="5" y="5" width="150" height="150" rx="75" fill="#fff"/></clipPath></defs></svg>