<svg xmlns="http://www.w3.org/2000/svg" version="1.1" xmlns:xlink="http://www.w3.org/1999/xlink" width="24" height="24" x="0" y="0" viewBox="0 0 2000 2000" style="enable-background:new 0 0 512 512" xml:space="preserve"><g><path d="M741.03 1806.65a30.003 30.003 0 0 1-27.52-18.07l-128.46-296.39c-6.65 1.21-12.87 1.85-18.73 1.91-22.95.26-36.72-8.66-44.24-16.18-7.58-7.58-16.54-21.48-16.17-44.7.09-5.97.78-12.32 2.06-19.13L211.5 1286.53a30.015 30.015 0 0 1-17.61-21.91 30.035 30.035 0 0 1 8.25-26.87l83.53-83.53a29.982 29.982 0 0 1 29.13-7.72c97.9 26.78 239.34 65.23 290.2 78.52 63.16-93.34 151.89-205.27 253.67-320.04-117.1-51.91-484.86-213.27-639.72-281.16a29.99 29.99 0 0 1-9.17-48.68L319.02 465.9a30.019 30.019 0 0 1 28.63-7.86l260.77 66.49 71.75-71.75c16.11-16.11 37.53-24.98 60.31-24.99h.02c22.78 0 44.2 8.87 60.31 24.98s24.99 37.54 24.99 60.33-8.87 44.21-24.99 60.33l-4.71 4.71c108.82 33.45 246.2 75.33 290.91 88.09 126.77-122.23 241.56-214.47 332.65-267.21 45.95-26.61 86-43.26 119.02-49.48 49.2-9.27 76.79 6.04 91.28 20.53 14.58 14.58 29.95 42.4 20.37 92.08-6.43 33.36-23.44 73.84-50.55 120.32-53.71 92.08-147.34 208.02-271.26 336.01l92.77 286.03 5.3-5.3c16.11-16.11 37.54-24.99 60.33-24.99s44.22 8.87 60.33 24.99c16.11 16.11 24.98 37.54 24.98 60.33 0 22.78-8.88 44.21-24.99 60.32l-71.75 71.75 66.5 260.77a29.995 29.995 0 0 1-7.86 28.63l-109.25 109.25a30.018 30.018 0 0 1-26.82 8.26 29.996 29.996 0 0 1-21.91-17.52l-278.67-641.78c-117.03 103.94-230.85 194.13-325.51 257.88l81.47 287.89a30 30 0 0 1-7.65 29.38l-83.53 83.53a30.207 30.207 0 0 1-21.23 8.75zm-138.74-380.11c11.65 0 22.65 6.83 27.53 18.08l121.2 279.62 39.89-39.89-82.63-292.02a30.005 30.005 0 0 1 12.45-33.28c102.22-66.85 236.2-173.36 367.58-292.23a30.017 30.017 0 0 1 26.46-7.08 29.996 29.996 0 0 1 21.18 17.37l277.68 639.5 66-66-66.5-260.77a29.995 29.995 0 0 1 7.86-28.63l83.83-83.83c4.78-4.78 7.41-11.14 7.42-17.9 0-6.76-2.63-13.11-7.4-17.89-4.78-4.78-11.14-7.41-17.9-7.41s-13.12 2.63-17.9 7.41l-39.94 39.94c-7.38 7.38-18.07 10.4-28.22 7.96s-18.3-9.98-21.53-19.91l-113.47-349.84a30 30 0 0 1 7.09-30.23c126.83-129.67 221.92-246.31 275-337.31 23.36-40.04 38.39-75.12 43.46-101.45 2.08-10.77 4.33-30.07-3.89-38.29-8.13-8.13-27.13-5.99-37.74-3.99-25.96 4.89-60.56 19.57-100.06 42.44-89.76 51.97-204.89 145.34-332.97 270.01-12.26 11.93-26.6 8.24-32.72 6.67-2.91-.75-6.92-1.85-12.27-3.37-9.48-2.69-23.27-6.73-40.98-12-29.69-8.84-70.91-21.3-122.53-37.03-87.83-26.77-176.56-54.12-177.44-54.4a30.01 30.01 0 0 1-20.28-21.44c-2.53-10.21.47-21 7.9-28.44l39.94-39.94c4.78-4.78 7.41-11.14 7.41-17.9s-2.63-13.12-7.41-17.9-11.13-7.41-17.89-7.4c-6.76 0-13.12 2.63-17.9 7.42l-83.83 83.83a30.012 30.012 0 0 1-28.63 7.86l-260.77-66.49-66.11 66.11c60.35 26.47 179.91 78.91 298.38 130.95 98.31 43.18 176.66 77.65 232.87 102.43 33.39 14.72 59.25 26.15 76.85 33.97 9.34 4.15 16.67 7.42 21.68 9.68 2.62 1.18 4.63 2.1 5.98 2.73 3.84 1.78 15.51 7.2 18.67 21.88 2.02 9.43-.6 19.25-7.06 26.41-117.91 130.55-219.94 258.79-287.29 361.11-5.41 8.22-16.65 15.89-31.99 12.77-.84-.17-2.07-.44-3.66-.82-2.46-.59-5.89-1.45-10.49-2.63-8.21-2.11-20.2-5.27-35.64-9.38-25.9-6.9-61.95-16.62-107.13-28.87-55.53-15.06-111.52-30.34-138.64-37.75l-39.93 39.93 279.77 120.38c14.45 6.22 21.64 22.54 16.48 37.4-5.05 14.54-6.12 23.03-6.2 27.42 4.31-.08 12.58-1.11 26.66-5.93 3.21-1.12 6.49-1.64 9.72-1.64z" fill="#000000" opacity="1" data-original="#000000"></path></g></svg>